<svg width="125" height="59" viewBox="0 0 125 59" fill="none" xmlns="http://www.w3.org/2000/svg">
<g clip-path="url(#clip0_2054_34099)">
<path d="M56.4612 59C53.9106 59 51.2183 58.6517 48.3842 57.955C42.0076 56.4224 37.4731 52.8696 34.7808 47.2966C32.9387 43.6741 32.0885 40.3999 32.2302 37.4741C32.5136 34.4089 32.7261 32.1797 32.8678 30.7864C33.0095 30.0898 33.1512 29.3932 33.2929 28.6965C33.5763 27.8606 33.7889 27.0246 33.9306 26.1886C32.9387 26.746 32.0176 27.2336 31.1674 27.6516C30.3172 27.9302 29.3961 28.2089 28.4042 28.4875C26.137 29.3235 23.728 29.7415 21.1774 29.7415C16.7846 29.7415 12.7461 28.5572 9.06185 26.1886C5.3776 23.6808 2.75611 20.2673 1.19738 15.9482C-0.644745 10.6537 -0.36134 5.35935 2.0476 0.064949C4.45653 -5.22945 8.42419 -8.85195 13.9506 -10.8025C14.5174 -10.9418 15.7927 -11.4991 17.7765 -12.4744C19.7604 -13.589 22.7361 -15.6093 26.7038 -18.5351C30.8131 -21.461 36.127 -25.7104 42.6453 -31.2835C48.3134 -36.1599 53.1312 -40.4094 57.0989 -44.0319C61.0666 -47.7937 63.1212 -49.7443 63.2629 -49.8836C65.9553 -52.5308 69.0727 -54.342 72.6153 -55.3173C76.2995 -56.2926 79.9838 -56.2229 83.6681 -55.1083C89.7612 -53.5757 94.154 -50.0926 96.8464 -44.6588C97.6966 -43.2656 98.4051 -41.106 98.9719 -38.1802C99.6804 -35.3936 99.4678 -32.1891 98.3342 -28.5666C98.3342 -28.4273 98.2634 -28.288 98.1217 -28.1487C97.98 -28.0093 97.9091 -27.8003 97.9091 -27.5217C97.7674 -27.243 97.6257 -26.8947 97.484 -26.4767C97.484 -26.0588 97.4132 -25.7104 97.2715 -25.4318C96.9881 -24.4565 96.563 -23.4116 95.9961 -22.2969C95.571 -21.1823 95.0751 -19.8587 94.5083 -18.3261C93.9415 -16.9329 93.3038 -15.261 92.5953 -13.3104C92.0285 -11.4992 91.32 -9.61825 90.4698 -7.66768C90.7532 -7.80701 91.0366 -7.94633 91.32 -8.08566C91.6034 -8.36431 91.8868 -8.5733 92.1702 -8.71263C97.1298 -11.9171 102.444 -12.8924 108.112 -11.6385C113.78 -10.5239 118.173 -7.52835 121.29 -2.65192C124.691 2.08517 125.754 7.30993 124.478 13.0223C123.345 18.7347 120.298 23.1931 115.338 26.3976C111.938 28.6269 108.678 30.8561 105.561 33.0853C102.585 35.1752 99.5387 37.4044 96.4212 39.773C92.8787 42.4202 89.5487 44.8584 86.4312 47.0876C83.4555 49.3168 80.4089 51.2674 77.2915 52.9393C75.0242 54.1933 72.8987 55.1685 70.9149 55.8652C68.931 56.7011 66.9472 57.3977 64.9634 57.955C61.8459 58.6517 59.0119 59 56.4612 59Z" fill="#DEF2FF"/>
</g>
<defs>
<clipPath id="clip0_2054_34099">
<rect width="125" height="59" fill="white"/>
</clipPath>
</defs>
</svg>
