<svg width="159" height="66" viewBox="0 0 159 66" fill="none" xmlns="http://www.w3.org/2000/svg">
<g clip-path="url(#clip0_2054_34091)">
<path d="M38.9561 66C37.4035 66 35.9214 65.9292 34.51 65.7875C33.2397 65.7875 32.2517 65.7167 31.5459 65.575C27.5939 64.4417 24.0653 62.6001 20.9601 60.0503C17.8549 57.642 15.526 54.6672 13.9734 51.1257C12.9854 49.1424 12.3502 47.3717 12.0679 45.8134C11.7856 44.1135 11.6445 42.4135 11.6445 40.7136C11.6445 38.447 11.8562 36.2513 12.2796 34.1264C11.0093 33.2764 9.66846 32.3556 8.257 31.364C6.84555 30.2307 5.78696 29.1683 5.08123 28.1767C1.69375 23.6435 0 18.827 0 13.7273C0 10.3274 0.776311 7.06923 2.32891 3.9527C3.74036 0.83617 5.71639 -1.85539 8.257 -4.12196C8.96273 -4.83026 10.3036 -6.17603 12.2796 -8.15928C14.1145 -10.1425 15.8083 -12.1258 17.3609 -14.109L21.5952 -18.7838C23.5712 -20.9087 25.6178 -23.1045 27.735 -25.371C29.8522 -27.6376 31.8282 -29.6917 33.6631 -31.5333C35.9214 -33.5165 37.8975 -35.2164 39.5912 -36.633C41.285 -38.0496 42.767 -39.1829 44.0373 -40.0329C51.3768 -44.566 58.9987 -45.9826 66.9028 -44.2827C75.0892 -42.1578 80.5233 -37.5538 83.2051 -30.4708L82.9933 -30.6833C83.5579 -29.4084 83.9814 -28.1334 84.2636 -26.8585C84.6871 -25.7252 84.9694 -24.5211 85.1105 -23.2461C87.0866 -25.371 88.8509 -27.3543 90.4035 -29.1959C91.9561 -31.1791 93.3675 -32.9499 94.6378 -34.5081L97.6019 -37.908C97.8841 -38.1913 98.0959 -38.4746 98.237 -38.7579C98.5193 -39.1829 98.6605 -39.3954 98.6605 -39.3954C101.907 -43.2203 105.718 -45.9118 110.093 -47.4701C114.61 -49.17 119.127 -49.4533 123.643 -48.32C126.748 -47.4701 129.571 -45.9118 132.112 -43.6452C134.794 -41.3787 136.981 -38.7579 138.675 -35.7831C140.651 -31.2499 141.498 -27.3543 141.216 -24.0961C141.075 -20.9796 140.863 -18.8547 140.581 -17.7214C140.439 -17.1547 140.228 -16.5172 139.945 -15.8089C139.804 -15.1006 139.663 -14.4632 139.522 -13.8965L138.252 -9.85921L138.04 -9.22173C140.863 -9.08007 143.686 -8.30094 146.509 -6.88433C149.332 -5.60939 151.66 -3.83863 153.495 -1.57206C155.33 0.694508 156.671 3.17356 157.518 5.86511C158.506 8.55666 159 11.1774 159 13.7273C159 20.8103 156.107 26.8309 150.32 31.789L149.261 32.8514C146.297 35.4013 143.121 37.9512 139.734 40.5011C136.487 43.051 133.029 45.4592 129.36 47.7258C121.032 52.6839 112.846 55.163 104.8 55.163C101.413 55.163 98.0253 54.6671 94.6378 53.6755C92.0972 53.1089 89.6977 52.1173 87.4394 50.7007C85.3222 49.2841 83.4874 47.655 81.9348 45.8134C80.241 47.23 78.6178 48.5758 77.0652 49.8507C75.5126 50.984 73.7483 52.1881 71.7723 53.463H71.984C68.7377 55.7296 65.6325 57.642 62.6685 59.2003C59.7044 60.7586 56.8815 62.1043 54.1997 63.2376C51.9414 64.2292 49.4008 64.9375 46.5779 65.3625C43.8962 65.7875 41.3555 66 38.9561 66Z" fill="#FFE1E1"/>
</g>
<defs>
<clipPath id="clip0_2054_34091">
<rect width="159" height="66" fill="white"/>
</clipPath>
</defs>
</svg>
