<svg width="125" height="53" viewBox="0 0 125 53" fill="none" xmlns="http://www.w3.org/2000/svg">
<g id="CVH">
<path id="Vector" d="M101.462 43.9489C100.699 43.9489 99.8418 43.8536 98.889 43.6631C95.9671 42.9008 93.7439 41.154 92.2194 38.4227C90.4409 39.1214 88.5988 39.2802 86.6932 38.8991C84.7241 38.4545 83.0408 37.4381 81.6434 35.8502C79.9284 33.8811 79.1662 31.5943 79.3567 28.99C79.4837 26.3222 80.5318 24.1308 82.5009 22.4158C83.1996 21.8441 83.9619 21.1771 84.7876 20.4149C85.5499 19.5891 86.3756 18.7634 87.2649 17.9376C88.7894 16.4132 90.3774 14.8569 92.0289 13.2689C93.7439 11.681 95.3954 10.2835 96.9834 9.07666C98.0632 8.2509 99.0795 7.52043 100.032 6.88523C101.049 6.25004 102.001 5.71012 102.891 5.26548C106.194 3.67749 109.433 3.23286 112.609 3.93157C116.23 4.94789 118.739 7.26635 120.136 10.887C121.026 13.4278 120.994 16.0956 120.041 18.8904C119.914 19.208 119.787 19.5256 119.66 19.8432C119.533 20.1608 119.374 20.5102 119.183 20.8913C121.47 21.9711 123.122 23.7497 124.138 26.2269C125.027 28.7677 124.932 31.245 123.852 33.6587C122.772 36.009 120.962 37.6287 118.421 38.518C116.452 39.2802 114.642 39.9789 112.99 40.6141C111.339 41.1858 109.941 41.6622 108.798 42.0433C108.163 42.2974 107.559 42.5197 106.988 42.7103C106.48 42.9008 106.067 43.0596 105.749 43.1867C105.114 43.3137 104.447 43.4725 103.748 43.6631C103.05 43.8536 102.287 43.9489 101.462 43.9489Z" fill="#D4D7DE"/>
<path id="Vector_2" d="M72.2439 52.4291C71.1006 52.4291 69.8937 52.2703 68.6233 51.9527C65.7649 51.2539 63.7323 49.6342 62.5255 47.0934C61.6997 45.4419 61.3186 43.9492 61.3821 42.6153C61.5091 41.2179 61.6044 40.2015 61.6679 39.5663C61.7315 39.2487 61.795 38.9312 61.8585 38.6136C61.9855 38.2324 62.0808 37.8513 62.1443 37.4702C61.6997 37.7243 61.2868 37.9466 60.9057 38.1372C60.5246 38.2642 60.1117 38.3912 59.6671 38.5183C58.6508 38.8994 57.5709 39.0899 56.4276 39.0899C54.4585 39.0899 52.6482 38.55 50.9966 37.4702C49.3451 36.3269 48.17 34.7706 47.4713 32.8015C46.6456 30.3878 46.7726 27.974 47.8524 25.5603C48.9323 23.1465 50.7108 21.495 53.1881 20.6058C53.4421 20.5422 54.0138 20.2882 54.9031 19.8435C55.7924 19.3354 57.1263 18.4143 58.9048 17.0804C60.7469 15.7465 63.1289 13.8092 66.0508 11.2684C68.5916 9.04519 70.7512 7.10784 72.5298 5.45633C74.3083 3.7413 75.2294 2.85203 75.2929 2.78851C76.4998 1.58164 77.8972 0.755884 79.4852 0.311247C81.1367 -0.13339 82.7882 -0.101633 84.4397 0.406523C87.171 1.10524 89.1402 2.69323 90.347 5.17049C90.7281 5.80569 91.0457 6.79024 91.2998 8.12415C91.6174 9.39454 91.5221 10.8555 91.014 12.507C91.014 12.5705 90.9822 12.634 90.9187 12.6976C90.8552 12.7611 90.8234 12.8564 90.8234 12.9834C90.7599 13.1104 90.6964 13.2692 90.6329 13.4598C90.6329 13.6504 90.6011 13.8092 90.5376 13.9362C90.4105 14.3808 90.22 14.8572 89.9659 15.3654C89.7754 15.8735 89.553 16.477 89.299 17.1757C89.0449 17.8109 88.759 18.5731 88.4414 19.4624C88.1874 20.2882 87.8698 21.1457 87.4886 22.0349C87.6157 21.9714 87.7427 21.9079 87.8698 21.8444C87.9968 21.7173 88.1238 21.6221 88.2509 21.5585C90.4741 20.0976 92.8561 19.653 95.3968 20.2246C97.9376 20.7328 99.9067 22.0985 101.304 24.3216C102.829 26.4813 103.305 28.8633 102.733 31.4676C102.225 34.0719 100.86 36.1045 98.6363 37.5655C97.1119 38.5818 95.6509 39.5981 94.2535 40.6144C92.9196 41.5672 91.5539 42.5835 90.1565 43.6634C88.5685 44.8702 87.0758 45.9818 85.6783 46.9981C84.3444 48.0145 82.9788 48.9037 81.5813 49.666C80.565 50.2376 79.6122 50.6823 78.7229 50.9999C77.8337 51.381 76.9444 51.6986 76.0551 51.9527C74.6577 52.2703 73.3873 52.4291 72.2439 52.4291Z" fill="#D4D7DE"/>
<path id="Vector_3" d="M17.5314 52.9998C16.8327 52.9998 16.1657 52.968 15.5305 52.9045C14.9589 52.9045 14.5142 52.8727 14.1966 52.8092C12.4181 52.301 10.8301 51.4753 9.43266 50.3319C8.03523 49.2521 6.98716 47.9182 6.28844 46.3302C5.8438 45.4409 5.55796 44.6469 5.43092 43.9482C5.30389 43.186 5.24037 42.4238 5.24037 41.6615C5.24037 40.6452 5.33565 39.6607 5.5262 38.7079C4.95453 38.3267 4.35109 37.9139 3.7159 37.4692C3.0807 36.9611 2.6043 36.4847 2.28671 36.04C0.762235 34.0074 0 31.8477 0 29.561C0 28.0366 0.349357 26.5756 1.04807 25.1782C1.68327 23.7808 2.57254 22.5739 3.7159 21.5576C4.03349 21.24 4.63693 20.6365 5.5262 19.7473C6.35196 18.858 7.11419 17.9687 7.81291 17.0794L9.7185 14.9833C10.6078 14.0305 11.5288 13.0459 12.4816 12.0296C13.4344 11.0133 14.3237 10.0923 15.1494 9.26654C16.1657 8.37726 17.055 7.61502 17.8172 6.97983C18.5795 6.34463 19.2464 5.83648 19.8181 5.45536C23.1211 3.42273 26.5512 2.78754 30.1083 3.54977C33.7924 4.50256 36.2379 6.56695 37.4448 9.74293L37.3495 9.64765C37.6036 10.2193 37.7942 10.791 37.9212 11.3627C38.1118 11.8708 38.2388 12.4108 38.3023 12.9824C39.1916 12.0296 39.9856 11.1404 40.6843 10.3146C41.383 9.42533 42.0182 8.63134 42.5899 7.93262L43.9238 6.40815C44.0508 6.28111 44.1461 6.15407 44.2096 6.02704C44.3367 5.83648 44.4002 5.7412 44.4002 5.7412C45.8611 4.02617 47.5762 2.8193 49.5453 2.12058C51.5779 1.35835 53.6105 1.23131 55.6432 1.73946C57.0406 2.12058 58.311 2.8193 59.4543 3.83561C60.6612 4.85192 61.6458 6.02703 62.408 7.36095C63.2973 9.39357 63.6784 11.1404 63.5514 12.6013C63.4878 13.9987 63.3926 14.9515 63.2655 15.4597C63.202 15.7138 63.1067 15.9996 62.9797 16.3172C62.9162 16.6348 62.8526 16.9206 62.7891 17.1747L62.2174 18.985L62.1222 19.2709C63.3926 19.3344 64.6629 19.6837 65.9333 20.3189C67.2037 20.8906 68.2518 21.6846 69.0776 22.7009C69.9033 23.7172 70.5067 24.8288 70.8879 26.0357C71.3325 27.2426 71.5548 28.4177 71.5548 29.561C71.5548 32.737 70.2527 35.4366 67.6484 37.6598L67.172 38.1362C65.8381 39.2795 64.4089 40.4229 62.8844 41.5662C61.4234 42.7096 59.8672 43.7894 58.2157 44.8057C54.4681 47.0289 50.7839 48.1405 47.1633 48.1405C45.6388 48.1405 44.1144 47.9182 42.5899 47.4736C41.4465 47.2195 40.3667 46.7749 39.3504 46.1397C38.3976 45.5045 37.5718 44.774 36.8731 43.9482C36.1109 44.5834 35.3804 45.1869 34.6817 45.7585C33.983 46.2667 33.189 46.8066 32.2997 47.3783H32.395C30.934 48.3946 29.5366 49.2521 28.2027 49.9508C26.8688 50.6495 25.5984 51.253 24.3915 51.7611C23.3752 52.2058 22.2319 52.5234 20.9615 52.7139C19.7546 52.9045 18.6112 52.9998 17.5314 52.9998Z" fill="#D4D7DE"/>
</g>
</svg>
