<svg width="351" height="229" viewBox="0 0 351 229" fill="none" xmlns="http://www.w3.org/2000/svg">
<g opacity="0.25">
<path opacity="0.7" d="M285.382 189.891C282.089 189.891 278.384 189.48 274.267 188.656C261.642 185.363 252.037 177.816 245.45 166.014C237.765 169.033 229.806 169.719 221.573 168.073C213.065 166.151 205.792 161.76 199.754 154.899C192.344 146.391 189.05 136.511 189.874 125.258C190.422 113.731 194.951 104.263 203.459 96.8525C206.478 94.3824 209.771 91.5007 213.339 88.2073C216.632 84.6394 220.2 81.0715 224.043 77.5037C230.629 70.9169 237.491 64.1928 244.626 57.3315C252.037 50.4702 259.172 44.4323 266.034 39.2177C270.699 35.6499 275.091 32.4937 279.207 29.7492C283.599 27.0047 287.715 24.6718 291.558 22.7507C305.829 15.8894 319.826 13.9682 333.549 16.9872C349.192 21.3784 360.033 31.3959 366.071 47.0396C369.913 58.0177 369.776 69.5446 365.659 81.6204C365.111 82.9927 364.562 84.365 364.013 85.7372C363.464 87.1095 362.778 88.619 361.954 90.2657C371.835 94.9313 378.97 102.616 383.362 113.32C387.204 124.298 386.792 135.001 382.127 145.43C377.461 155.585 369.639 162.584 358.661 166.426C350.153 169.719 342.331 172.738 335.195 175.483C328.06 177.953 322.022 180.011 317.082 181.658C314.337 182.756 311.73 183.716 309.26 184.54C307.064 185.363 305.28 186.049 303.908 186.598C301.163 187.147 298.282 187.833 295.263 188.656C292.244 189.48 288.95 189.891 285.382 189.891Z" fill="#20CE86"/>
<path opacity="0.7" d="M159.155 226.532C154.215 226.532 149 225.846 143.511 224.474C131.161 221.455 122.378 214.456 117.164 203.478C113.596 196.342 111.949 189.893 112.224 184.129C112.773 178.091 113.184 173.7 113.459 170.956C113.733 169.583 114.008 168.211 114.282 166.839C114.831 165.192 115.243 163.545 115.517 161.899C113.596 162.997 111.812 163.957 110.165 164.78C108.519 165.329 106.735 165.878 104.814 166.427C100.422 168.074 95.7566 168.897 90.8165 168.897C82.3085 168.897 74.4867 166.564 67.351 161.899C60.2152 156.959 55.1379 150.235 52.1189 141.727C48.5511 131.297 49.1 120.868 53.7656 110.439C58.4313 100.01 66.1159 92.8743 76.8195 89.0319C77.9173 88.7575 80.3874 87.6597 84.2297 85.7385C88.072 83.5429 93.8355 79.5634 101.52 73.7999C109.479 68.0364 119.771 59.6657 132.396 48.6876C143.374 39.0818 152.705 30.7111 160.39 23.5753C168.075 16.1652 172.054 12.3228 172.329 12.0484C177.543 6.83382 183.581 3.26597 190.442 1.34482C197.578 -0.576341 204.714 -0.439129 211.849 1.75648C223.651 4.77544 232.159 11.6367 237.373 22.3403C239.02 25.0848 240.392 29.3388 241.49 35.1023C242.862 40.5913 242.451 46.9037 240.255 54.0394C240.255 54.3139 240.118 54.5883 239.843 54.8628C239.569 55.1372 239.432 55.5489 239.432 56.0978C239.157 56.6467 238.883 57.3328 238.608 58.1562C238.608 58.9795 238.471 59.6657 238.197 60.2146C237.648 62.1357 236.825 64.1941 235.727 66.3897C234.903 68.5853 233.943 71.1926 232.845 74.2116C231.747 76.9561 230.512 80.2495 229.14 84.0918C228.042 87.6597 226.67 91.3648 225.023 95.2071C225.572 94.9326 226.121 94.6582 226.67 94.3837C227.219 93.8348 227.768 93.4232 228.317 93.1487C237.922 86.8363 248.214 84.9152 259.192 87.3852C270.17 89.5808 278.678 95.4815 284.716 105.087C291.303 114.419 293.361 124.711 290.891 135.963C288.696 147.216 282.795 155.998 273.189 162.31C266.603 166.702 260.29 171.093 254.252 175.484C248.489 179.601 242.588 183.992 236.55 188.658C229.689 193.872 223.239 198.675 217.201 203.066C211.438 207.458 205.537 211.3 199.499 214.593C195.108 217.063 190.991 218.985 187.149 220.357C183.307 222.003 179.464 223.376 175.622 224.474C169.584 225.846 164.095 226.532 159.155 226.532Z" fill="#00AEFF"/>
<path opacity="0.7" d="M-77.2515 229.001C-80.2704 229.001 -83.1522 228.863 -85.8967 228.589C-88.3667 228.589 -90.2879 228.452 -91.6602 228.177C-99.3448 225.982 -106.206 222.414 -112.244 217.474C-118.282 212.808 -122.81 207.045 -125.829 200.183C-127.75 196.341 -128.986 192.91 -129.534 189.891C-130.083 186.598 -130.358 183.304 -130.358 180.011C-130.358 175.62 -129.946 171.366 -129.123 167.249C-131.593 165.602 -134.2 163.818 -136.945 161.897C-139.689 159.702 -141.748 157.643 -143.12 155.722C-149.707 146.94 -153 137.608 -153 127.728C-153 121.141 -151.491 114.829 -148.472 108.791C-145.727 102.753 -141.885 97.5385 -136.945 93.1473C-135.572 91.775 -132.965 89.1677 -129.123 85.3254C-125.555 81.4831 -122.261 77.6408 -119.243 73.7985L-111.009 64.7416C-107.167 60.6248 -103.187 56.3708 -99.0703 51.9796C-94.9536 47.5884 -91.1113 43.6089 -87.5434 40.041C-83.1522 36.1987 -79.3099 32.9053 -76.0164 30.1607C-72.723 27.4162 -69.8413 25.2206 -67.3712 23.5739C-53.0998 14.7915 -38.2794 12.047 -22.9101 15.3404C-6.99197 19.4572 3.5744 28.3768 8.78899 42.0994L8.3773 41.6877C9.4751 44.1577 10.2985 46.6278 10.8474 49.0979C11.6707 51.2935 12.2196 53.6263 12.4941 56.0964C16.3364 51.9796 19.767 48.1373 22.786 44.5694C25.8049 40.7271 28.5495 37.2965 31.0195 34.2775L36.783 27.6907C37.3319 27.1418 37.7436 26.5929 38.018 26.044C38.5669 25.2206 38.8414 24.809 38.8414 24.809C45.1538 17.3988 52.5639 12.1842 61.0719 9.16525C69.8544 5.87184 78.6368 5.32293 87.4192 7.51853C93.4572 9.16524 98.9462 12.1842 103.886 16.5754C109.101 20.9666 113.355 26.044 116.648 31.8075C120.491 40.5899 122.137 48.1373 121.588 54.4497C121.314 60.4876 120.902 64.6044 120.353 66.8C120.079 67.8978 119.667 69.1328 119.118 70.5051C118.844 71.8773 118.569 73.1124 118.295 74.2102L115.825 82.032L115.413 83.267C120.902 83.5415 126.391 85.051 131.88 87.7955C137.369 90.2655 141.898 93.6962 145.466 98.0874C149.034 102.479 151.641 107.282 153.288 112.496C155.209 117.711 156.169 122.788 156.169 127.728C156.169 141.451 150.543 153.115 139.29 162.721L137.232 164.779C131.469 169.719 125.293 174.659 118.707 179.599C112.394 184.539 105.67 189.205 98.5345 193.596C82.3419 203.202 66.4237 208.005 50.78 208.005C44.1932 208.005 37.6064 207.044 31.0195 205.123C26.0794 204.026 21.4137 202.104 17.0225 199.36C12.9057 196.615 9.33789 193.459 6.31892 189.891C3.02551 192.636 -0.130692 195.243 -3.14966 197.713C-6.16861 199.909 -9.59926 202.242 -13.4416 204.712H-13.0299C-19.3423 209.103 -25.3802 212.808 -31.1437 215.827C-36.9072 218.846 -42.3962 221.453 -47.6107 223.649C-52.002 225.57 -56.9421 226.942 -62.4311 227.766C-67.6457 228.589 -72.5858 229.001 -77.2515 229.001Z" fill="#FF6B6B"/>
</g>
</svg>
