<svg width="129" height="62" viewBox="0 0 129 62" fill="none" xmlns="http://www.w3.org/2000/svg">
<path d="M36.016 107C34.5806 107 33.2104 106.934 31.9055 106.802C30.731 106.802 29.8176 106.736 29.1651 106.605C25.5113 105.55 22.249 103.837 19.3782 101.464C16.5073 99.2234 14.3542 96.4555 12.9188 93.1604C12.0053 91.3151 11.4181 89.6675 11.1571 88.2177C10.8961 86.636 10.7657 85.0543 10.7657 83.4727C10.7657 81.3638 10.9614 79.3208 11.3529 77.3437C10.1784 76.5528 8.93876 75.6961 7.63383 74.7735C6.32891 73.719 5.35021 72.7305 4.69774 71.8078C1.56592 67.59 0 63.1086 0 58.3636C0 55.2003 0.717722 52.1688 2.15314 49.269C3.45807 46.3693 5.28497 43.865 7.63383 41.7561C8.2863 41.0971 9.52598 39.8449 11.3529 37.9996C13.0493 36.1543 14.6152 34.3091 16.0506 32.4638L19.9654 28.1142C21.7923 26.1371 23.6844 24.0941 25.6418 21.9852C27.5992 19.8763 29.4261 17.9651 31.1225 16.2517C33.2104 14.4064 35.0373 12.8247 36.6032 11.5066C38.1691 10.1886 39.5393 9.13414 40.7137 8.34331C47.4993 4.12552 54.5459 2.80746 61.8535 4.38913C69.4221 6.36622 74.4461 10.6499 76.9254 17.2402L76.7297 17.0425C77.2517 18.2287 77.6432 19.415 77.9041 20.6013C78.2956 21.6557 78.5566 22.7761 78.6871 23.9623C80.514 21.9852 82.1451 20.1399 83.5806 18.4265C85.016 16.5812 86.3209 14.9336 87.4954 13.4837L90.2357 10.3204C90.4967 10.0568 90.6924 9.79317 90.8229 9.52956C91.0839 9.13414 91.2144 8.93644 91.2144 8.93644C94.2157 5.37768 97.739 2.87337 101.784 1.42351C105.96 -0.158164 110.136 -0.42178 114.312 0.632665C117.182 1.4235 119.792 2.87336 122.141 4.98226C124.621 7.09115 126.643 9.52956 128.209 12.2975C130.036 16.5153 130.819 20.1399 130.558 23.1715C130.427 26.0712 130.232 28.0483 129.971 29.1027C129.84 29.63 129.644 30.2231 129.383 30.8821C129.253 31.5411 129.123 32.1343 128.992 32.6615L127.818 36.418L127.622 37.0111C130.232 37.1429 132.842 37.8678 135.451 39.1859C138.061 40.3721 140.214 42.0197 141.911 44.1286C143.607 46.2375 144.847 48.5441 145.63 51.0484C146.543 53.5527 147 55.9911 147 58.3636C147 64.9539 144.325 70.5557 138.975 75.1689L137.996 76.1574C135.256 78.5299 132.32 80.9024 129.188 83.2749C126.186 85.6474 122.989 87.8881 119.597 89.997C111.897 94.6102 104.329 96.9169 96.8908 96.9169C93.759 96.9169 90.6272 96.4555 87.4954 95.5329C85.1465 95.0057 82.9281 94.083 80.8402 92.765C78.8828 91.4469 77.1864 89.9312 75.751 88.2177C74.1851 89.5357 72.6844 90.7879 71.249 91.9741C69.8136 93.0286 68.1824 94.1489 66.3555 95.3352H66.5513C63.5499 97.4441 60.6791 99.2235 57.9388 100.673C55.1984 102.123 52.5886 103.375 50.1092 104.43C48.0213 105.352 45.6725 106.011 43.0626 106.407C40.5832 106.802 38.2344 107 36.016 107Z" fill="#FFE1E1"/>
</svg>
