<svg width="47" height="10" viewBox="0 0 47 10" fill="none" xmlns="http://www.w3.org/2000/svg">
<path opacity="0.7" d="M13.3793 7.38893C13.2801 7.38893 13.1685 7.37653 13.0446 7.35174C12.6644 7.25256 12.3751 7.02529 12.1768 6.66991C11.9454 6.76082 11.7057 6.78148 11.4578 6.7319C11.2016 6.67405 10.9826 6.54181 10.8008 6.3352C10.5776 6.079 10.4784 5.78148 10.5032 5.44264C10.5198 5.09553 10.6561 4.8104 10.9123 4.58726C11.0032 4.51288 11.1024 4.4261 11.2098 4.32693C11.309 4.21949 11.4165 4.11205 11.5322 4.00461C11.7305 3.80627 11.9371 3.60379 12.152 3.39717C12.3751 3.19056 12.59 3.00874 12.7966 2.85172C12.9371 2.74428 13.0694 2.64924 13.1933 2.56659C13.3256 2.48395 13.4495 2.4137 13.5652 2.35585C13.995 2.14923 14.4165 2.09138 14.8297 2.18229C15.3008 2.31452 15.6272 2.61618 15.809 3.08725C15.9247 3.41783 15.9206 3.76494 15.7966 4.12858C15.7801 4.1699 15.7636 4.21123 15.7471 4.25255C15.7305 4.29387 15.7099 4.33933 15.6851 4.38891C15.9826 4.52941 16.1975 4.76082 16.3297 5.08313C16.4454 5.41371 16.433 5.73603 16.2925 6.05008C16.152 6.35586 15.9165 6.56661 15.5859 6.68231C15.3297 6.78149 15.0942 6.87239 14.8793 6.95504C14.6644 7.02942 14.4826 7.0914 14.3338 7.14099C14.2512 7.17405 14.1727 7.20297 14.0983 7.22777C14.0322 7.25256 13.9785 7.27322 13.9371 7.28975C13.8545 7.30628 13.7677 7.32694 13.6768 7.35174C13.5859 7.37653 13.4867 7.38893 13.3793 7.38893Z" fill="#20CE86"/>
<path opacity="0.7" d="M9.57815 8.49242C9.42938 8.49242 9.27236 8.47176 9.10707 8.43043C8.73517 8.33952 8.4707 8.12878 8.31368 7.7982C8.20624 7.58332 8.15665 7.38911 8.16492 7.21555C8.18145 7.03373 8.19384 6.9015 8.20211 6.81886C8.21037 6.77753 8.21864 6.73621 8.2269 6.69489C8.24343 6.6453 8.25583 6.59572 8.26409 6.54613C8.20624 6.57919 8.15252 6.60811 8.10293 6.63291C8.05335 6.64943 7.99963 6.66596 7.94178 6.68249C7.80954 6.73208 7.66905 6.75687 7.52029 6.75687C7.26409 6.75687 7.02855 6.68662 6.81367 6.54613C6.59879 6.39737 6.4459 6.19489 6.35499 5.93869C6.24755 5.62464 6.26408 5.31059 6.40458 4.99653C6.54507 4.68248 6.77648 4.46761 7.0988 4.3519C7.13185 4.34364 7.20623 4.31058 7.32194 4.25273C7.43764 4.18661 7.6112 4.06678 7.8426 3.89322C8.08227 3.71967 8.39219 3.4676 8.77236 3.13702C9.10294 2.84776 9.38393 2.5957 9.61534 2.38082C9.84674 2.15768 9.96658 2.04197 9.97484 2.03371C10.1319 1.87668 10.3137 1.76925 10.5203 1.71139C10.7352 1.65354 10.9501 1.65768 11.1649 1.72379C11.5203 1.8147 11.7765 2.02131 11.9335 2.34363C11.9831 2.42627 12.0244 2.55437 12.0575 2.72793C12.0988 2.89322 12.0864 3.0833 12.0203 3.29818C12.0203 3.30644 12.0162 3.31471 12.0079 3.32297C11.9996 3.33124 11.9955 3.34363 11.9955 3.36016C11.9872 3.37669 11.979 3.39735 11.9707 3.42215C11.9707 3.44694 11.9666 3.4676 11.9583 3.48413C11.9418 3.54198 11.917 3.60397 11.8839 3.67008C11.8591 3.7362 11.8302 3.81471 11.7972 3.90562C11.7641 3.98826 11.7269 4.08744 11.6856 4.20314C11.6525 4.31058 11.6112 4.42215 11.5616 4.53785C11.5782 4.52959 11.5947 4.52132 11.6112 4.51306C11.6277 4.49653 11.6443 4.48413 11.6608 4.47587C11.9501 4.28579 12.26 4.22793 12.5906 4.30232C12.9211 4.36843 13.1773 4.54612 13.3592 4.83538C13.5575 5.11637 13.6195 5.42629 13.5451 5.76513C13.479 6.10398 13.3013 6.36844 13.012 6.55852C12.8137 6.69076 12.6236 6.82299 12.4418 6.95522C12.2682 7.07919 12.0906 7.21142 11.9087 7.35192C11.7021 7.50894 11.5079 7.65357 11.3261 7.7858C11.1525 7.91804 10.9748 8.03374 10.793 8.13291C10.6608 8.20729 10.5368 8.26514 10.4211 8.30647C10.3054 8.35605 10.1897 8.39738 10.074 8.43043C9.8922 8.47176 9.72691 8.49242 9.57815 8.49242Z" fill="#00AEFF"/>
<path opacity="0.7" d="M2.45923 8.56752C2.36832 8.56752 2.28154 8.56339 2.19889 8.55512C2.12451 8.55512 2.06666 8.55099 2.02534 8.54273C1.79393 8.47661 1.58732 8.36917 1.4055 8.22041C1.22368 8.07991 1.08732 7.90636 0.996408 7.69975C0.938557 7.58404 0.901367 7.48074 0.884838 7.38983C0.868309 7.29065 0.860044 7.19148 0.860044 7.09231C0.860044 6.96007 0.872441 6.83197 0.897234 6.70801C0.822854 6.65842 0.744341 6.6047 0.661696 6.54685C0.579051 6.48073 0.517067 6.41875 0.475745 6.3609C0.277397 6.09643 0.178223 5.81544 0.178223 5.51792C0.178223 5.31957 0.223677 5.12949 0.314587 4.94767C0.397232 4.76585 0.512935 4.60882 0.661696 4.47659C0.703019 4.43527 0.781531 4.35676 0.897234 4.24105C1.00467 4.12535 1.10385 4.00965 1.19476 3.89394L1.44269 3.62122C1.55839 3.49725 1.67823 3.36915 1.8022 3.23692C1.92616 3.10468 2.04187 2.98485 2.14931 2.87741C2.28154 2.76171 2.39724 2.66253 2.49642 2.57989C2.59559 2.49724 2.68237 2.43113 2.75675 2.38154C3.1865 2.11708 3.63278 2.03443 4.0956 2.13361C4.57494 2.25757 4.89312 2.52617 5.05015 2.93939L5.03775 2.927C5.07081 3.00138 5.0956 3.07576 5.11213 3.15014C5.13692 3.21626 5.15345 3.2865 5.16172 3.36088C5.27742 3.23692 5.38073 3.12121 5.47164 3.01378C5.56255 2.89807 5.64519 2.79477 5.71957 2.70386L5.89313 2.50551C5.90966 2.48898 5.92205 2.47245 5.93032 2.45592C5.94685 2.43113 5.95511 2.41873 5.95511 2.41873C6.14519 2.19559 6.36833 2.03856 6.62453 1.94766C6.889 1.84848 7.15346 1.83195 7.41793 1.89807C7.59975 1.94765 7.76504 2.03856 7.9138 2.1708C8.07082 2.30303 8.19892 2.45592 8.2981 2.62948C8.4138 2.89394 8.46339 3.12121 8.44686 3.3113C8.43859 3.49312 8.4262 3.61708 8.40967 3.6832C8.4014 3.71626 8.38901 3.75345 8.37248 3.79477C8.36421 3.83609 8.35595 3.87328 8.34768 3.90634L8.2733 4.14188L8.26091 4.17907C8.4262 4.18733 8.59149 4.23279 8.75678 4.31543C8.92207 4.38981 9.05843 4.49312 9.16587 4.62535C9.27331 4.75759 9.35182 4.90221 9.40141 5.05924C9.45926 5.21626 9.48818 5.36916 9.48818 5.51792C9.48818 5.93114 9.31876 6.28238 8.97992 6.57164L8.91793 6.63363C8.74438 6.78239 8.55843 6.93115 8.36008 7.07991C8.17 7.22867 7.96752 7.36917 7.75264 7.5014C7.26503 7.79066 6.78569 7.93529 6.31462 7.93529C6.11627 7.93529 5.91792 7.90636 5.71957 7.84851C5.57081 7.81545 5.43031 7.7576 5.29808 7.67495C5.17411 7.59231 5.06668 7.49727 4.97577 7.38983C4.87659 7.47247 4.78155 7.55099 4.69064 7.62537C4.59973 7.69148 4.49642 7.76173 4.38072 7.83611H4.39312C4.20304 7.96834 4.02122 8.07991 3.84766 8.17082C3.67411 8.26173 3.50882 8.34025 3.35179 8.40636C3.21956 8.46421 3.0708 8.50554 2.90551 8.53033C2.74848 8.55512 2.59972 8.56752 2.45923 8.56752Z" fill="#FF6B6B"/>
<path d="M42.9904 5.31264V5.43387C42.9904 5.49009 42.9922 5.5305 42.9957 5.55509C43.0308 5.57266 43.0695 5.58145 43.1116 5.58145C43.2135 5.58145 43.2645 5.50414 43.2645 5.34953C43.2645 4.833 43.2926 4.29714 43.3488 3.74196C43.4086 3.18326 43.4718 2.75281 43.5386 2.45062C43.8232 2.24331 44.2027 2.13965 44.6771 2.13965C45.1514 2.13965 45.5169 2.23276 45.7734 2.419C46.0334 2.60172 46.1634 2.82309 46.1634 3.08311C46.1634 3.19204 46.0984 3.64181 45.9684 4.43242C45.8243 5.23709 45.6399 6.08392 45.415 6.97292C45.3693 7.15213 45.2867 7.40337 45.1672 7.72664C45.0513 8.04991 44.9265 8.31872 44.793 8.53307C44.3749 9.19718 43.8583 9.6083 43.2434 9.76642C42.9553 9.84021 42.6654 9.87711 42.3737 9.87711C41.808 9.87711 41.3705 9.73655 41.0613 9.45545C40.7767 9.20245 40.6344 8.88796 40.6344 8.51198C40.6344 8.13952 40.7451 7.78813 40.9665 7.45783C41.0192 7.44378 41.1158 7.43675 41.2563 7.43675C41.3969 7.43675 41.5726 7.45432 41.7834 7.48946C42.3667 7.59839 42.6636 7.65285 42.6742 7.65285C42.6988 7.65636 42.7251 7.66163 42.7532 7.66866C42.7849 7.67218 42.8253 7.67393 42.8745 7.67393C42.9237 7.67393 42.9658 7.65988 43.001 7.63177C43.0361 7.60366 43.0537 7.54744 43.0537 7.4631L41.8098 7.22592C41.5041 7.09942 41.2388 6.83413 41.0139 6.43004C40.7363 5.93107 40.5483 5.25466 40.4499 4.4008C40.218 4.09861 40.1021 3.73669 40.1021 3.31503C40.1021 2.89337 40.2075 2.52617 40.4183 2.21344H41.7729C42.2262 2.21344 42.5652 2.34345 42.7901 2.60347C42.9553 2.79673 43.0607 3.0796 43.1064 3.45206C43.0291 4.06347 42.9904 4.68366 42.9904 5.31264Z" fill="#818285" stroke="white" stroke-width="0.172397"/>
<path d="M40.0651 1.61387V5.3192C40.0651 5.84276 40.1916 6.1836 40.4446 6.34173C40.4481 6.3593 40.4499 6.39268 40.4499 6.44187V6.53675C40.4499 7.03922 40.3216 7.42047 40.0651 7.6805C39.8121 7.94052 39.452 8.07053 38.9846 8.07053C38.5173 8.07053 38.1466 7.94052 37.8725 7.6805C37.5457 7.37128 37.3823 6.90394 37.3823 6.27848V0.802172C37.7513 0.577286 38.1729 0.464844 38.6473 0.464844C39.1252 0.464844 39.4801 0.566745 39.712 0.770547C39.9474 0.970836 40.0651 1.25194 40.0651 1.61387Z" fill="#818285" stroke="white" stroke-width="0.172397"/>
<path d="M34.7097 8.13869C33.7364 8.13869 32.9686 7.86813 32.4064 7.327C31.8301 6.78236 31.542 6.03742 31.542 5.0922C31.542 4.14347 31.8389 3.39151 32.4327 2.83632C32.9809 2.31979 33.6749 2.06152 34.5147 2.06152C35.3545 2.06152 36.0274 2.29344 36.5334 2.75726C37.0429 3.21757 37.2976 3.78506 37.2976 4.45971C37.2976 5.06058 37.0886 5.51386 36.6704 5.81957C36.2839 6.1077 35.7568 6.25177 35.0892 6.25177C34.5902 6.25177 34.1686 6.14811 33.8242 5.94079C33.7961 5.96188 33.7821 6.00053 33.7821 6.05675C33.7821 6.16216 33.9209 6.25879 34.1984 6.34664C34.476 6.44151 34.7905 6.48895 35.1419 6.48895C35.4968 6.48895 35.8183 6.44503 36.1065 6.35718C36.3981 6.26582 36.6318 6.15865 36.8075 6.03567C36.8918 6.10946 36.9586 6.2465 37.0078 6.44678C37.0605 6.64356 37.0868 6.82452 37.0868 6.98967C37.0868 7.15131 37.071 7.29537 37.0394 7.42187C36.7653 7.65379 36.4842 7.81894 36.1961 7.91732C35.7885 8.0649 35.293 8.13869 34.7097 8.13869ZM34.6412 4.5704C34.8169 4.5704 34.9047 4.50364 34.9047 4.37011C34.9047 4.24361 34.8116 4.18036 34.6254 4.18036C34.4391 4.18036 34.332 4.28051 34.3039 4.4808C34.4023 4.54053 34.5147 4.5704 34.6412 4.5704Z" fill="#818285" stroke="white" stroke-width="0.172397"/>
<path d="M28.3899 8.04289C27.9718 8.04289 27.638 7.96734 27.3885 7.81624C27.1109 7.65812 26.9721 7.42445 26.9721 7.11523V4.4008C26.7648 4.10915 26.6611 3.75074 26.6611 3.32557C26.6611 2.89688 26.7648 2.52617 26.9721 2.21344H27.7785C28.1932 2.21344 28.4901 2.34696 28.6693 2.61402C28.5814 2.7124 28.5041 2.83714 28.4374 2.98824C28.3706 3.13933 28.3372 3.24826 28.3372 3.31503C28.3372 3.37827 28.353 3.42571 28.3847 3.45734C28.4198 3.48896 28.469 3.50477 28.5322 3.50477C28.6552 3.01635 28.8889 2.65794 29.2333 2.42954C29.5179 2.23628 29.8693 2.13965 30.2874 2.13965C30.8075 2.13965 31.2151 2.25033 31.5102 2.47171C31.6156 2.75281 31.6683 3.09717 31.6683 3.50477C31.6683 3.90886 31.5875 4.27606 31.4259 4.60636C31.3064 4.66961 31.1413 4.72407 30.9304 4.76975C30.7196 4.81192 30.507 4.833 30.2927 4.833C30.0783 4.833 29.8851 4.81895 29.7129 4.79083C29.5442 4.75921 29.4212 4.7311 29.3439 4.7065C29.3158 4.73461 29.3018 4.77502 29.3018 4.82773C29.3018 4.88044 29.3352 4.92085 29.4019 4.94896C29.4722 4.97355 29.5882 5.00166 29.7498 5.03329V7.6792C29.3668 7.92166 28.9135 8.04289 28.3899 8.04289Z" fill="#818285" stroke="white" stroke-width="0.172397"/>
<path d="M26.5079 5.36727C26.5079 5.62027 26.536 5.82407 26.5922 5.97868C26.6484 6.13329 26.7468 6.25451 26.8874 6.34236C26.8909 6.35993 26.8926 6.39331 26.8926 6.4425V6.53738C26.8926 7.03634 26.7415 7.42462 26.4394 7.70221C26.1723 7.94818 25.842 8.07117 25.4485 8.07117C25.1814 8.07117 24.9372 8.00792 24.7158 7.88142C24.4944 7.75492 24.3363 7.5722 24.2414 7.33326C24.122 7.33326 24.0622 7.39124 24.0622 7.5072C24.0622 7.60558 24.1237 7.71627 24.2467 7.83925C24.0183 7.99386 23.674 8.07117 23.2137 8.07117C22.5636 8.07117 22.0435 7.89547 21.6535 7.54409C21.267 7.18919 21.0737 6.6955 21.0737 6.06301C21.0737 5.42701 21.2793 4.93507 21.6904 4.5872C22.0664 4.27447 22.5531 4.1181 23.1504 4.1181C23.3542 4.1181 23.551 4.13216 23.7407 4.16027C23.8672 4.18487 23.9357 4.19892 23.9463 4.20244C23.9568 4.1673 23.9621 4.13743 23.9621 4.11283C23.9621 4.02147 23.8848 3.95998 23.7302 3.92836C23.5756 3.89673 23.3735 3.88092 23.1241 3.88092C22.5935 3.88092 22.1402 3.98809 21.7642 4.20244C21.592 3.91079 21.5059 3.54184 21.5059 3.09558C21.5059 2.84258 21.5376 2.65459 21.6008 2.53161C21.8538 2.41565 22.1753 2.31375 22.5654 2.22591C22.9554 2.13455 23.3665 2.08887 23.7987 2.08887C24.6912 2.08887 25.3659 2.28388 25.8227 2.67392C26.2795 3.06396 26.5079 3.61738 26.5079 4.33421V5.36727ZM23.7724 5.62554C23.6248 5.62554 23.551 5.6923 23.551 5.82583C23.551 5.95232 23.6371 6.01557 23.8092 6.01557C23.9287 6.01557 24.0166 5.98746 24.0728 5.93124C24.129 5.87151 24.1571 5.76961 24.1571 5.62554C24.1571 5.62554 24.0289 5.62554 23.7724 5.62554Z" fill="#818285" stroke="white" stroke-width="0.172397"/>
<path d="M18.1273 5.87798C18.1625 5.87798 18.1941 5.8692 18.2222 5.85163V5.37199C18.4611 5.21035 18.795 5.07859 19.2236 4.97669C19.6558 4.87478 20.0758 4.82383 20.4834 4.82383C20.6696 5.01358 20.8242 5.2982 20.9472 5.67769C21.0737 6.05367 21.1404 6.39452 21.1475 6.70022C21.0772 6.84077 20.9577 6.99187 20.7891 7.1535C20.6239 7.31514 20.4236 7.46448 20.1882 7.60152C19.6049 7.94587 18.9355 8.11805 18.18 8.11805C17.0978 8.11805 16.2457 7.80356 15.6237 7.17459C14.9807 6.53858 14.6592 5.65837 14.6592 4.53394C14.6592 3.406 15.0106 2.52052 15.7133 1.87749C16.0225 1.58935 16.3827 1.37325 16.7938 1.22918C17.205 1.0816 17.6372 1.00781 18.0904 1.00781C18.9759 1.00781 19.7015 1.22216 20.2673 1.65084C20.833 2.07953 21.1158 2.60836 21.1158 3.23734C21.1158 3.71171 20.97 4.06309 20.6784 4.29149C20.3867 4.51637 19.9914 4.62882 19.4925 4.62882C19.2184 4.62882 18.9425 4.56205 18.6649 4.42853C18.3874 4.29149 18.2222 4.16323 18.1695 4.04376C18.1695 3.75563 18.1748 3.52899 18.1853 3.36384C18.1783 3.36032 18.166 3.35857 18.1484 3.35857H18.1115C18.0588 3.35857 18.0166 3.37438 17.985 3.406C17.9569 3.43411 17.9306 3.49561 17.906 3.59048C17.8849 3.68535 17.8743 3.94362 17.8743 4.36528C17.8743 5.37375 17.9587 5.87798 18.1273 5.87798Z" fill="#818285" stroke="white" stroke-width="0.172397"/>
</svg>
