<svg width="141" height="16" viewBox="0 0 141 16" fill="none" xmlns="http://www.w3.org/2000/svg">
<path d="M8.54279 3.03302V6.09306H9.90041V7.08435H8.54279V10.306H7.34679V3.03302H8.54279ZM6.64642 4.1105V5.06946H0.871128V4.1105H3.16616V3.02225H4.36216V4.1105H6.64642ZM3.75878 5.46813C5.1595 5.46813 6.12923 6.21159 6.14001 7.33217C6.12923 8.44197 5.1595 9.17466 3.75878 9.17466C2.34728 9.17466 1.36677 8.44197 1.36677 7.33217C1.36677 6.21159 2.34728 5.46813 3.75878 5.46813ZM3.75878 6.39476C3.01531 6.39476 2.53045 6.73955 2.53045 7.33217C2.53045 7.91401 3.01531 8.2588 3.75878 8.24803C4.50224 8.2588 4.99788 7.91401 4.99788 7.33217C4.99788 6.73955 4.50224 6.39476 3.75878 6.39476ZM8.93068 11.599V12.5687H2.30418V9.73495H3.50018V11.599H8.93068ZM18.2078 3.46401V4.20747C18.2078 4.93477 18.2078 5.76982 18.0031 6.85808H19.296V7.82781H15.4279V9.34706H18.2293V12.7627H17.0333V10.306H11.3011V9.34706H14.2319V7.82781H10.3961V6.85808H16.7963C16.9902 5.86141 17.0118 5.10178 17.0118 4.42297H11.4951V3.46401H18.2078ZM28.8317 10.5969V11.5774H19.9318V10.5969H21.9897V8.1295C21.214 7.68774 20.7453 6.99276 20.7506 6.12539C20.7399 4.57382 22.2699 3.55021 24.3602 3.55021C26.4613 3.55021 27.9913 4.57382 27.9913 6.12539C27.9913 6.9766 27.5388 7.6608 26.7845 8.10795V10.5969H28.8317ZM24.3602 4.49839C22.9056 4.49839 21.9143 5.11256 21.9251 6.12539C21.9143 7.12745 22.9056 7.75238 24.3602 7.75238C25.8148 7.75238 26.8169 7.12745 26.8169 6.12539C26.8169 5.11256 25.8148 4.49839 24.3602 4.49839ZM23.175 10.5969H25.567V8.56049C25.1952 8.64669 24.7912 8.68979 24.3602 8.68979C23.94 8.68979 23.5413 8.64669 23.175 8.57127V10.5969ZM38.4752 4.326V5.3065H37.1499V6.41631H38.4752V7.40759H37.1499V8.74367H35.9539V3.02225H37.1499V4.326H38.4752ZM32.2043 3.58254C33.702 3.57176 34.8225 4.53072 34.8333 5.90989C34.8225 7.27829 33.702 8.23725 32.2043 8.24803C30.6958 8.23725 29.5644 7.27829 29.5752 5.90989C29.5644 4.53072 30.6958 3.57176 32.2043 3.58254ZM32.2043 4.58459C31.3638 4.58459 30.7389 5.11256 30.7497 5.90989C30.7389 6.718 31.3638 7.22442 32.2043 7.23519C33.0339 7.22442 33.6589 6.718 33.6589 5.90989C33.6589 5.11256 33.0339 4.58459 32.2043 4.58459ZM33.9821 8.96994C35.9754 8.96994 37.2361 9.68107 37.2469 10.8663C37.2361 12.0515 35.9754 12.7519 33.9821 12.7519C31.9672 12.7519 30.685 12.0515 30.685 10.8663C30.685 9.68107 31.9672 8.96994 33.9821 8.96994ZM33.9821 9.92889C32.646 9.92889 31.881 10.2521 31.881 10.8663C31.881 11.4805 32.646 11.7929 33.9821 11.7929C35.3182 11.7929 36.0616 11.4805 36.0616 10.8663C36.0616 10.2521 35.3182 9.92889 33.9821 9.92889ZM47.9031 10.6077V11.5882H39.0032V10.6077H42.839V8.71134H39.9837V3.66873H41.1797V5.2634H45.6943V3.66873H46.8903V8.71134H44.0242V10.6077H47.9031ZM41.1797 7.74161H45.6943V6.22236H41.1797V7.74161ZM56.9863 4.326V5.29573H48.9375V4.326H52.3747V3.15154H53.5599V4.326H56.9863ZM57.4389 10.7478V11.7175H48.5389V10.7478H52.3747V9.55178C50.6884 9.41709 49.6702 8.74367 49.681 7.66619C49.6702 6.49173 50.9309 5.79137 52.9673 5.79137C54.9714 5.79137 56.2428 6.49173 56.2428 7.66619C56.2428 8.73828 55.2192 9.4117 53.5599 9.541V10.7478H57.4389ZM52.9673 6.72878C51.642 6.73955 50.8985 7.05202 50.9093 7.66619C50.8985 8.29112 51.642 8.60359 52.9673 8.61437C54.2711 8.60359 55.0145 8.29112 55.0145 7.66619C55.0145 7.05202 54.2711 6.73955 52.9673 6.72878ZM63.5374 3.91655V4.86474H58.0961V3.91655H60.2726V2.94682H61.4686V3.91655H63.5374ZM60.8545 5.20953C62.1798 5.20953 63.1279 5.93144 63.1387 6.9766C63.1279 8.03253 62.1798 8.73289 60.8545 8.73289C59.5292 8.73289 58.5918 8.03253 58.6025 6.9766C58.5918 5.93144 59.5292 5.20953 60.8545 5.20953ZM60.8545 6.11461C60.1649 6.11461 59.7123 6.43786 59.7231 6.9766C59.7123 7.51534 60.1649 7.86013 60.8545 7.86013C61.5441 7.86013 62.0181 7.51534 62.0181 6.9766C62.0181 6.43786 61.5441 6.11461 60.8545 6.11461ZM66.2311 3.02225V8.80832H65.0351V8.0433H63.5913V7.08435H65.0351V6.13616H63.602V5.16643H65.0351V3.02225H66.2311ZM60.9407 9.18543V10.0043H65.0459V9.18543H66.2311V12.6441H59.7447V9.18543H60.9407ZM60.9407 11.7067H65.0459V10.9094H60.9407V11.7067ZM75.7237 3.02225V12.7627H74.5277V3.02225H75.7237ZM67.6534 10.0582C68.4291 10.0528 69.3073 10.0528 70.2285 10.0259V9.13156C69.1295 8.95916 68.4184 8.28574 68.4184 7.36449C68.4184 6.26546 69.3881 5.53277 70.8104 5.53277C72.2434 5.53277 73.2347 6.26546 73.2347 7.36449C73.2347 8.28035 72.5182 8.94839 71.4245 9.12078V9.98277C72.2811 9.94506 73.1431 9.87502 73.9566 9.76727L74.0428 10.6616C71.8986 11.0279 69.5821 11.0495 67.8258 11.0495L67.6534 10.0582ZM73.7842 4.14283V5.09101H67.8581V4.14283H70.2285V3.05457H71.4245V4.14283H73.7842ZM70.8104 6.44863C70.0777 6.45941 69.5497 6.79343 69.5605 7.36449C69.5497 7.92478 70.0777 8.2588 70.8104 8.24803C71.5754 8.2588 72.0818 7.92478 72.0818 7.36449C72.0818 6.79343 71.5754 6.45941 70.8104 6.44863Z" fill="#2A2E37"/>
<path d="M83.6371 4.68368L83.0562 5.26465L89.7158 11.9243L90.2968 11.3434L83.6371 4.68368Z" fill="black"/>
<path d="M89.7134 4.68406L83.0537 11.3438L83.6347 11.9247L90.2944 5.26503L89.7134 4.68406Z" fill="black"/>
<path d="M136.065 8.50517V8.67741C136.065 8.75729 136.068 8.8147 136.073 8.84964C136.123 8.87461 136.177 8.88709 136.237 8.88709C136.382 8.88709 136.455 8.77726 136.455 8.55759C136.455 7.82371 136.494 7.06238 136.574 6.27359C136.659 5.4798 136.749 4.86824 136.844 4.43889C137.248 4.14434 137.788 3.99707 138.461 3.99707C139.135 3.99707 139.655 4.12937 140.019 4.39396C140.389 4.65357 140.573 4.96808 140.573 5.33752C140.573 5.49228 140.481 6.1313 140.296 7.25459C140.091 8.39784 139.829 9.601 139.51 10.8641C139.445 11.1187 139.328 11.4756 139.158 11.9349C138.993 12.3942 138.816 12.7761 138.626 13.0807C138.032 14.0242 137.298 14.6083 136.425 14.833C136.015 14.9378 135.603 14.9902 135.189 14.9902C134.385 14.9902 133.764 14.7906 133.324 14.3912C132.92 14.0317 132.718 13.5849 132.718 13.0507C132.718 12.5215 132.875 12.0223 133.19 11.553C133.264 11.533 133.402 11.5231 133.601 11.5231C133.801 11.5231 134.051 11.548 134.35 11.5979C135.179 11.7527 135.601 11.8301 135.616 11.8301C135.651 11.8351 135.688 11.8426 135.728 11.8525C135.773 11.8575 135.831 11.86 135.9 11.86C135.97 11.86 136.03 11.8401 136.08 11.8001C136.13 11.7602 136.155 11.6803 136.155 11.5605L134.388 11.2235C133.953 11.0438 133.576 10.6669 133.257 10.0927C132.863 9.38383 132.595 8.4228 132.456 7.20965C132.126 6.78031 131.961 6.2661 131.961 5.66701C131.961 5.06793 132.111 4.54623 132.411 4.10191H134.335C134.979 4.10191 135.461 4.28663 135.781 4.65606C136.015 4.93064 136.165 5.33253 136.23 5.86172C136.12 6.73039 136.065 7.61154 136.065 8.50517Z" fill="#2A2E37" stroke="white" stroke-width="0.172397"/>
<path d="M131.909 3.24871V8.51316C131.909 9.25702 132.089 9.74128 132.448 9.96593C132.453 9.99089 132.455 10.0383 132.455 10.1082V10.243C132.455 10.9569 132.273 11.4986 131.909 11.868C131.549 12.2375 131.038 12.4222 130.374 12.4222C129.71 12.4222 129.183 12.2375 128.794 11.868C128.329 11.4287 128.097 10.7647 128.097 9.87607V2.09548C128.621 1.77597 129.22 1.61621 129.894 1.61621C130.573 1.61621 131.078 1.76099 131.407 2.05055C131.742 2.33511 131.909 2.7345 131.909 3.24871Z" fill="#2A2E37" stroke="white" stroke-width="0.172397"/>
<path d="M124.301 12.52C122.919 12.52 121.828 12.1356 121.029 11.3668C120.21 10.593 119.801 9.5346 119.801 8.19165C119.801 6.84371 120.223 5.77535 121.066 4.98656C121.845 4.25268 122.831 3.88574 124.024 3.88574C125.217 3.88574 126.174 4.21524 126.892 4.87423C127.616 5.52823 127.978 6.33449 127.978 7.29303C127.978 8.14672 127.681 8.79074 127.087 9.22507C126.538 9.63444 125.789 9.83913 124.841 9.83913C124.132 9.83913 123.533 9.69186 123.043 9.39731C123.003 9.42726 122.983 9.48218 122.983 9.56206C122.983 9.71183 123.181 9.84912 123.575 9.97392C123.969 10.1087 124.416 10.1761 124.915 10.1761C125.42 10.1761 125.876 10.1137 126.286 9.9889C126.7 9.8591 127.032 9.70683 127.282 9.5321C127.402 9.63694 127.497 9.83164 127.566 10.1162C127.641 10.3958 127.679 10.6529 127.679 10.8875C127.679 11.1172 127.656 11.3219 127.611 11.5016C127.222 11.8311 126.823 12.0657 126.413 12.2055C125.834 12.4152 125.13 12.52 124.301 12.52ZM124.204 7.45029C124.454 7.45029 124.578 7.35543 124.578 7.16572C124.578 6.986 124.446 6.89613 124.182 6.89613C123.917 6.89613 123.765 7.03842 123.725 7.32298C123.865 7.40785 124.024 7.45029 124.204 7.45029Z" fill="#2A2E37" stroke="white" stroke-width="0.172397"/>
<path d="M115.322 12.3842C114.728 12.3842 114.254 12.2769 113.9 12.0622C113.505 11.8376 113.308 11.5056 113.308 11.0663V7.20965C113.013 6.79529 112.866 6.28607 112.866 5.68199C112.866 5.07292 113.013 4.54623 113.308 4.10191H114.454C115.043 4.10191 115.465 4.29162 115.719 4.67104C115.595 4.81083 115.485 4.98805 115.39 5.20273C115.295 5.4174 115.248 5.57216 115.248 5.66701C115.248 5.75688 115.27 5.82427 115.315 5.86921C115.365 5.91414 115.435 5.9366 115.525 5.9366C115.699 5.24266 116.031 4.73344 116.521 4.40894C116.925 4.13436 117.424 3.99707 118.018 3.99707C118.757 3.99707 119.336 4.15433 119.756 4.46885C119.905 4.86824 119.98 5.35749 119.98 5.9366C119.98 6.51072 119.865 7.03242 119.636 7.50171C119.466 7.59157 119.231 7.66895 118.932 7.73385C118.632 7.79376 118.33 7.82371 118.026 7.82371C117.721 7.82371 117.447 7.80374 117.202 7.76381C116.962 7.71887 116.788 7.67894 116.678 7.64399C116.638 7.68393 116.618 7.74134 116.618 7.81623C116.618 7.89111 116.665 7.94852 116.76 7.98846C116.86 8.02341 117.025 8.06335 117.254 8.10828V11.8675C116.71 12.212 116.066 12.3842 115.322 12.3842Z" fill="#2A2E37" stroke="white" stroke-width="0.172397"/>
<path d="M112.648 8.58072C112.648 8.94017 112.688 9.22973 112.768 9.4494C112.848 9.66906 112.987 9.8413 113.187 9.9661C113.192 9.99107 113.195 10.0385 113.195 10.1084V10.2432C113.195 10.9521 112.98 11.5038 112.551 11.8981C112.171 12.2476 111.702 12.4223 111.143 12.4223C110.763 12.4223 110.416 12.3325 110.102 12.1528C109.787 11.973 109.563 11.7134 109.428 11.374C109.258 11.374 109.173 11.4563 109.173 11.6211C109.173 11.7609 109.261 11.9181 109.435 12.0929C109.111 12.3125 108.622 12.4223 107.968 12.4223C107.044 12.4223 106.305 12.1727 105.751 11.6735C105.202 11.1693 104.927 10.4678 104.927 9.56921C104.927 8.66559 105.219 7.96666 105.803 7.47242C106.338 7.0281 107.029 6.80594 107.878 6.80594C108.167 6.80594 108.447 6.82591 108.716 6.86585C108.896 6.9008 108.994 6.92076 109.009 6.92576C109.023 6.87583 109.031 6.8334 109.031 6.79845C109.031 6.66865 108.921 6.58128 108.701 6.53635C108.482 6.49142 108.195 6.46896 107.84 6.46896C107.086 6.46896 106.442 6.62122 105.908 6.92576C105.664 6.51139 105.541 5.98719 105.541 5.35316C105.541 4.99371 105.586 4.72662 105.676 4.55189C106.036 4.38714 106.492 4.24236 107.047 4.11755C107.601 3.98775 108.185 3.92285 108.799 3.92285C110.067 3.92285 111.025 4.19993 111.674 4.75408C112.323 5.30823 112.648 6.09453 112.648 7.11297V8.58072ZM108.761 8.94766C108.552 8.94766 108.447 9.04252 108.447 9.23223C108.447 9.41195 108.569 9.50182 108.814 9.50182C108.984 9.50182 109.108 9.46188 109.188 9.382C109.268 9.29713 109.308 9.15235 109.308 8.94766C109.308 8.94766 109.126 8.94766 108.761 8.94766Z" fill="#2A2E37" stroke="white" stroke-width="0.172397"/>
<path d="M100.741 9.30613C100.791 9.30613 100.836 9.29365 100.876 9.26869V8.58723C101.215 8.35758 101.689 8.17037 102.299 8.02559C102.913 7.88081 103.509 7.80842 104.088 7.80842C104.353 8.07801 104.573 8.48239 104.747 9.02156C104.927 9.55575 105.022 10.04 105.032 10.4743C104.932 10.674 104.762 10.8887 104.523 11.1184C104.288 11.348 104.003 11.5602 103.669 11.7549C102.84 12.2441 101.889 12.4888 100.816 12.4888C99.2782 12.4888 98.0675 12.0419 97.1839 11.1483C96.2703 10.2447 95.8135 8.99411 95.8135 7.39655C95.8135 5.794 96.3127 4.53593 97.3112 3.62233C97.7505 3.21295 98.2622 2.90592 98.8463 2.70124C99.4304 2.49156 100.045 2.38672 100.689 2.38672C101.947 2.38672 102.978 2.69125 103.781 3.30032C104.585 3.90939 104.987 4.66074 104.987 5.55437C104.987 6.22834 104.78 6.72758 104.365 7.05208C103.951 7.37159 103.389 7.53135 102.68 7.53135C102.291 7.53135 101.899 7.43649 101.505 7.24678C101.11 7.05208 100.876 6.86986 100.801 6.70012C100.801 6.29074 100.808 5.96874 100.823 5.7341C100.813 5.7291 100.796 5.72661 100.771 5.72661H100.718C100.644 5.72661 100.584 5.74907 100.539 5.794C100.499 5.83394 100.461 5.92131 100.426 6.0561C100.396 6.1909 100.381 6.55784 100.381 7.15692C100.381 8.58973 100.501 9.30613 100.741 9.30613Z" fill="#2A2E37" stroke="white" stroke-width="0.172397"/>
</svg>
