<svg width="146" height="106" viewBox="0 0 146 106" fill="none" xmlns="http://www.w3.org/2000/svg">
<path d="M76.7873 158C73.3184 158 69.6568 157.521 65.8025 156.564C57.1304 154.459 50.9635 149.577 47.3019 141.921C44.7966 136.944 43.6403 132.445 43.833 128.425C44.2184 124.214 44.5075 121.151 44.7002 119.237C44.893 118.28 45.0857 117.323 45.2784 116.366C45.6638 115.217 45.9529 114.069 46.1456 112.92C44.7966 113.686 43.5439 114.356 42.3877 114.93C41.2314 115.313 39.9787 115.696 38.6297 116.079C35.5463 117.227 32.2701 117.801 28.8013 117.801C22.8271 117.801 17.3347 116.174 12.3241 112.92C7.31353 109.474 3.74831 104.785 1.62844 98.8505C-0.876854 91.5765 -0.491423 84.3024 2.78473 77.0284C6.06089 69.7543 11.4569 64.7773 18.9728 62.0974C19.7436 61.906 21.4781 61.1403 24.1761 59.8003C26.8741 58.269 30.9211 55.4933 36.3171 51.4735C41.9059 47.4536 49.1327 41.6152 57.9976 33.9583C65.7062 27.2585 72.2585 21.4202 77.6545 16.4432C83.0505 11.2748 85.8449 8.59485 86.0376 8.40343C89.6992 4.76641 93.9389 2.27793 98.7568 0.937974C103.767 -0.401982 108.778 -0.306281 113.789 1.2251C122.075 3.33074 128.049 8.1163 131.711 15.5818C132.867 17.496 133.831 20.463 134.602 24.4829C135.565 28.3114 135.276 32.7141 133.735 37.6911C133.735 37.8825 133.638 38.0739 133.445 38.2653C133.253 38.4567 133.156 38.7439 133.156 39.1267C132.964 39.5096 132.771 39.9881 132.578 40.5624C132.578 41.1367 132.482 41.6152 132.289 41.9981C131.904 43.338 131.326 44.7737 130.555 46.3051C129.977 47.8364 129.302 49.655 128.531 51.7606C127.76 53.6748 126.893 55.9719 125.93 58.6518C125.159 61.1403 124.195 63.7245 123.039 66.4044C123.424 66.213 123.81 66.0216 124.195 65.8301C124.581 65.4473 124.966 65.1602 125.351 64.9687C132.096 60.566 139.323 59.2261 147.032 60.9489C154.74 62.4802 160.715 66.5958 164.954 73.2956C169.58 79.804 171.025 86.9823 169.29 94.8307C167.749 102.679 163.605 108.804 156.86 113.207C152.235 116.27 147.803 119.333 143.563 122.395C139.516 125.267 135.373 128.33 131.133 131.584C126.315 135.221 121.786 138.571 117.546 141.633C113.499 144.696 109.356 147.376 105.116 149.673C102.033 151.396 99.1422 152.736 96.4442 153.693C93.7462 154.842 91.0482 155.799 88.3502 156.564C84.1105 157.521 80.2562 158 76.7873 158Z" fill="#DEF2FF"/>
</svg>
