<svg width="182" height="78" viewBox="0 0 182 78" fill="none" xmlns="http://www.w3.org/2000/svg">
<path d="M45.8162 135C43.9902 135 42.2472 134.917 40.5872 134.751C39.0932 134.751 37.9312 134.667 37.1012 134.501C32.4532 133.171 28.3032 131.009 24.6511 128.016C20.9991 125.188 18.2601 121.696 16.4341 117.539C15.2721 115.211 14.5251 113.132 14.1931 111.303C13.8611 109.307 13.6951 107.312 13.6951 105.316C13.6951 102.655 13.9441 100.078 14.4421 97.5832C12.9481 96.5854 11.3711 95.5045 9.71107 94.3404C8.05106 93.01 6.80605 91.7628 5.97604 90.5987C1.99202 85.2772 0 79.6231 0 73.6364C0 69.6452 0.91302 65.8204 2.73903 62.1619C4.39904 58.5033 6.72305 55.3437 9.71107 52.6829C10.5411 51.8514 12.1181 50.2716 14.4421 47.9435C16.6001 45.6153 18.5921 43.2871 20.4181 40.959L25.3981 35.4712C27.7222 32.9767 30.1292 30.3991 32.6192 27.7384C35.1092 25.0776 37.4332 22.6663 39.5912 20.5044C42.2472 18.1763 44.5712 16.1807 46.5633 14.5177C48.5553 12.8548 50.2983 11.5244 51.7923 10.5266C60.4243 5.2051 69.3884 3.54212 78.6844 5.53769C88.3125 8.03215 94.7035 13.4368 97.8575 21.7517L97.6085 21.5022C98.2725 22.9989 98.7705 24.4956 99.1025 25.9922C99.6005 27.3226 99.9326 28.7361 100.099 30.2328C102.423 27.7384 104.498 25.4102 106.324 23.2483C108.15 20.9202 109.81 18.8415 111.304 17.0122L114.79 13.0211C115.122 12.6885 115.371 12.3559 115.537 12.0233C115.869 11.5244 116.035 11.2749 116.035 11.2749C119.853 6.78492 124.335 3.62528 129.481 1.79601C134.793 -0.199552 140.105 -0.532152 145.417 0.798222C149.069 1.79601 152.389 3.62527 155.377 6.28603C158.531 8.94678 161.104 12.0233 163.096 15.5155C165.42 20.837 166.416 25.4102 166.084 29.235C165.918 32.8936 165.669 35.388 165.337 36.7184C165.171 37.3836 164.922 38.1319 164.59 38.9634C164.424 39.7949 164.258 40.5432 164.092 41.2084L162.598 45.9479L162.349 46.6962C165.669 46.8625 168.989 47.7772 172.309 49.4401C175.629 50.9368 178.368 53.0155 180.526 55.6763C182.684 58.337 184.261 61.2472 185.257 64.4069C186.419 67.5665 187 70.643 187 73.6364C187 81.9512 183.597 89.0188 176.791 94.8392L175.546 96.0865C172.06 99.0798 168.325 102.073 164.341 105.067C160.523 108.06 156.456 110.887 152.14 113.548C142.346 119.368 132.718 122.278 123.256 122.278C119.272 122.278 115.288 121.696 111.304 120.532C108.316 119.867 105.494 118.703 102.838 117.04C100.348 115.377 98.1895 113.465 96.3635 111.303C94.3715 112.966 92.4625 114.545 90.6365 116.042C88.8105 117.373 86.7355 118.786 84.4115 120.283H84.6605C80.8424 122.943 77.1904 125.188 73.7044 127.018C70.2184 128.847 66.8984 130.427 63.7444 131.757C61.0883 132.921 58.1003 133.753 54.7803 134.252C51.6263 134.751 48.6383 135 45.8162 135Z" fill="#CEFDE3"/>
</svg>
