<svg width="154" height="113" viewBox="0 0 154 113" fill="none" xmlns="http://www.w3.org/2000/svg">
<path d="M92.6037 169C89.4146 169 85.8268 168.601 81.8404 167.802C69.6155 164.609 60.314 157.291 53.9358 145.847C46.4945 148.775 38.7875 149.44 30.8147 147.843C22.5762 145.98 15.5336 141.722 9.68691 135.069C2.51142 126.819 -0.677685 117.239 0.119591 106.328C0.65111 95.1505 5.03613 85.9692 13.2747 78.7839C16.198 76.3887 19.3871 73.5944 22.842 70.401C26.0311 66.9413 29.4859 63.4817 33.2066 60.0221C39.5848 53.6351 46.2288 47.1151 53.1385 40.462C60.314 33.8089 67.2237 27.9541 73.8677 22.8978C78.3856 19.4381 82.6377 16.3777 86.6241 13.7165C90.8762 11.0553 94.8626 8.79319 98.5832 6.93032C112.403 0.277213 125.956 -1.58566 139.244 1.34171C154.393 5.5997 164.89 15.3132 170.737 30.4823C174.457 41.1273 174.325 52.3045 170.338 64.014C169.807 65.3446 169.275 66.6752 168.744 68.0058C168.212 69.3365 167.548 70.8001 166.75 72.3969C176.318 76.921 183.227 84.3725 187.48 94.7513C191.2 105.396 190.802 115.775 186.284 125.888C181.766 135.734 174.192 142.521 163.561 146.246C155.323 149.44 147.749 152.367 140.839 155.028C133.929 157.424 128.082 159.419 123.299 161.016C120.641 162.081 118.117 163.012 115.725 163.811C113.599 164.609 111.871 165.274 110.542 165.806C107.885 166.339 105.094 167.004 102.171 167.802C99.2476 168.601 96.0585 169 92.6037 169Z" fill="#CEFDE3"/>
</svg>
