<svg width="218" height="124" viewBox="0 0 218 124" fill="none" xmlns="http://www.w3.org/2000/svg">
<path d="M147.77 43.9489C147.008 43.9489 146.15 43.8536 145.198 43.6631C142.276 42.9008 140.052 41.154 138.528 38.4227C136.749 39.1214 134.907 39.2802 133.002 38.8991C131.033 38.4545 129.349 37.4381 127.952 35.8502C126.237 33.8811 125.475 31.5943 125.665 28.99C125.792 26.3222 126.84 24.1308 128.81 22.4158C129.508 21.8441 130.27 21.1771 131.096 20.4149C131.858 19.5891 132.684 18.7634 133.573 17.9376C135.098 16.4132 136.686 14.8569 138.337 13.2689C140.052 11.681 141.704 10.2835 143.292 9.07666C144.372 8.2509 145.388 7.52043 146.341 6.88523C147.357 6.25004 148.31 5.71012 149.199 5.26548C152.502 3.67749 155.742 3.23286 158.918 3.93157C162.538 4.94789 165.047 7.26635 166.445 10.887C167.334 13.4278 167.302 16.0956 166.35 18.8904C166.223 19.208 166.096 19.5256 165.968 19.8432C165.841 20.1608 165.683 20.5102 165.492 20.8913C167.779 21.9711 169.43 23.7497 170.447 26.2269C171.336 28.7677 171.241 31.245 170.161 33.6587C169.081 36.009 167.271 37.6287 164.73 38.518C162.761 39.2802 160.95 39.9789 159.299 40.6141C157.647 41.1858 156.25 41.6622 155.107 42.0433C154.471 42.2974 153.868 42.5197 153.296 42.7103C152.788 42.9008 152.375 43.0596 152.058 43.1867C151.422 43.3137 150.756 43.4725 150.057 43.6631C149.358 43.8536 148.596 43.9489 147.77 43.9489Z" fill="white"/>
<path d="M118.553 52.4291C117.409 52.4291 116.202 52.2703 114.932 51.9527C112.074 51.2539 110.041 49.6342 108.834 47.0934C108.008 45.4419 107.627 43.9492 107.691 42.6153C107.818 41.2179 107.913 40.2015 107.977 39.5663C108.04 39.2487 108.104 38.9312 108.167 38.6136C108.294 38.2324 108.389 37.8513 108.453 37.4702C108.008 37.7243 107.595 37.9466 107.214 38.1372C106.833 38.2642 106.42 38.3912 105.976 38.5183C104.959 38.8994 103.88 39.0899 102.736 39.0899C100.767 39.0899 98.9567 38.55 97.3052 37.4702C95.6537 36.3269 94.4786 34.7706 93.7799 32.8015C92.9542 30.3878 93.0812 27.974 94.161 25.5603C95.2409 23.1465 97.0194 21.495 99.4967 20.6058C99.7507 20.5422 100.322 20.2882 101.212 19.8435C102.101 19.3354 103.435 18.4143 105.213 17.0804C107.055 15.7465 109.437 13.8092 112.359 11.2684C114.9 9.04519 117.06 7.10784 118.838 5.45633C120.617 3.7413 121.538 2.85203 121.601 2.78851C122.808 1.58164 124.206 0.755884 125.794 0.311247C127.445 -0.13339 129.097 -0.101633 130.748 0.406523C133.48 1.10524 135.449 2.69323 136.656 5.17049C137.037 5.80569 137.354 6.79024 137.608 8.12415C137.926 9.39454 137.831 10.8555 137.323 12.507C137.323 12.5705 137.291 12.634 137.227 12.6976C137.164 12.7611 137.132 12.8564 137.132 12.9834C137.069 13.1104 137.005 13.2692 136.941 13.4598C136.941 13.6504 136.91 13.8092 136.846 13.9362C136.719 14.3808 136.529 14.8572 136.275 15.3654C136.084 15.8735 135.862 16.477 135.608 17.1757C135.353 17.8109 135.068 18.5731 134.75 19.4624C134.496 20.2882 134.178 21.1457 133.797 22.0349C133.924 21.9714 134.051 21.9079 134.178 21.8444C134.305 21.7173 134.432 21.6221 134.559 21.5585C136.783 20.0976 139.165 19.653 141.705 20.2246C144.246 20.7328 146.215 22.0985 147.613 24.3216C149.137 26.4813 149.614 28.8633 149.042 31.4676C148.534 34.0719 147.168 36.1045 144.945 37.5655C143.42 38.5818 141.96 39.5981 140.562 40.6144C139.228 41.5672 137.862 42.5835 136.465 43.6634C134.877 44.8702 133.384 45.9818 131.987 46.9981C130.653 48.0145 129.287 48.9037 127.89 49.666C126.874 50.2376 125.921 50.6823 125.032 50.9999C124.142 51.381 123.253 51.6986 122.364 51.9527C120.966 52.2703 119.696 52.4291 118.553 52.4291Z" fill="white"/>
<path d="M63.84 53.0003C63.1413 53.0003 62.4743 52.9685 61.8391 52.905C61.2675 52.905 60.8228 52.8732 60.5052 52.8097C58.7267 52.3015 57.1387 51.4758 55.7413 50.3324C54.3438 49.2526 53.2957 47.9187 52.597 46.3307C52.1524 45.4414 51.8666 44.6474 51.7395 43.9487C51.6125 43.1865 51.549 42.4242 51.549 41.662C51.549 40.6457 51.6442 39.6611 51.8348 38.7084C51.2631 38.3272 50.6597 37.9144 50.0245 37.4697C49.3893 36.9616 48.9129 36.4852 48.5953 36.0405C47.0708 34.0079 46.3086 31.8482 46.3086 29.5615C46.3086 28.0371 46.658 26.5761 47.3567 25.1787C47.9919 23.7812 48.8811 22.5744 50.0245 21.5581C50.3421 21.2405 50.9455 20.637 51.8348 19.7478C52.6606 18.8585 53.4228 17.9692 54.1215 17.0799L56.0271 14.9838C56.9164 14.031 57.8374 13.0464 58.7902 12.0301C59.743 11.0138 60.6323 10.0928 61.458 9.26702C62.4743 8.37775 63.3636 7.61551 64.1258 6.98032C64.8881 6.34512 65.555 5.83697 66.1267 5.45585C69.4297 3.42322 72.8598 2.78802 76.4169 3.55026C80.101 4.50305 82.5465 6.56744 83.7534 9.74342L83.6581 9.64814C83.9122 10.2198 84.1027 10.7915 84.2298 11.3632C84.4203 11.8713 84.5474 12.4112 84.6109 12.9829C85.5002 12.0301 86.2942 11.1409 86.9929 10.3151C87.6916 9.42582 88.3268 8.63183 88.8985 7.93311L90.2324 6.40864C90.3594 6.2816 90.4547 6.15456 90.5182 6.02752C90.6453 5.83696 90.7088 5.74169 90.7088 5.74169C92.1697 4.02666 93.8848 2.81979 95.8539 2.12107C97.8865 1.35884 99.9191 1.2318 101.952 1.73995C103.349 2.12107 104.62 2.81978 105.763 3.8361C106.97 4.85241 107.954 6.02752 108.717 7.36144C109.606 9.39406 109.987 11.1408 109.86 12.6018C109.796 13.9992 109.701 14.952 109.574 15.4602C109.511 15.7143 109.415 16.0001 109.288 16.3177C109.225 16.6353 109.161 16.9211 109.098 17.1752L108.526 18.9855L108.431 19.2714C109.701 19.3349 110.972 19.6842 112.242 20.3194C113.512 20.8911 114.56 21.6851 115.386 22.7014C116.212 23.7177 116.815 24.8293 117.196 26.0362C117.641 27.2431 117.863 28.4182 117.863 29.5615C117.863 32.7375 116.561 35.4371 113.957 37.6603L113.481 38.1367C112.147 39.28 110.717 40.4234 109.193 41.5667C107.732 42.7101 106.176 43.7899 104.524 44.8062C100.777 47.0294 97.0925 48.141 93.4719 48.141C91.9474 48.141 90.423 47.9187 88.8985 47.474C87.7551 47.22 86.6753 46.7753 85.659 46.1401C84.7062 45.5049 83.8804 44.7745 83.1817 43.9487C82.4195 44.5839 81.689 45.1874 80.9903 45.759C80.2916 46.2672 79.4976 46.8071 78.6083 47.3788H78.7036C77.2426 48.3951 75.8452 49.2526 74.5113 49.9513C73.1774 50.65 71.907 51.2535 70.7001 51.7616C69.6838 52.2063 68.5405 52.5239 67.2701 52.7144C66.0632 52.905 64.9198 53.0003 63.84 53.0003Z" fill="white"/>
<path d="M187.149 71.0782C188.871 71.0782 190.29 71.3328 191.405 71.8422C192.545 72.3272 193.455 72.97 194.134 73.7703C194.837 74.5707 195.347 75.4802 195.662 76.4989C196.001 77.5175 196.232 78.5605 196.353 79.6276C196.28 80.1855 196.196 80.9373 196.098 81.8832C196.001 82.8049 195.904 83.8478 195.807 85.0119C195.735 86.1519 195.674 87.3646 195.626 88.65C195.577 89.9355 195.553 91.2088 195.553 92.47C195.553 92.7368 195.553 93.0278 195.553 93.3431C195.553 93.6341 195.565 93.9009 195.589 94.1435C195.735 94.2162 195.868 94.2647 195.989 94.289C196.135 94.3132 196.268 94.3254 196.39 94.3254C196.778 94.3254 197.044 94.1799 197.19 93.8888C197.36 93.5978 197.445 93.2097 197.445 92.7246C197.445 90.6873 197.505 88.6743 197.626 86.6855C197.748 84.6724 197.893 82.7806 198.063 81.0101C198.257 79.2396 198.463 77.6388 198.682 76.2078C198.924 74.7769 199.142 73.6127 199.336 72.7153C200.404 71.9392 201.604 71.3935 202.938 71.0782C204.296 70.7386 205.776 70.5688 207.376 70.5688C209.05 70.5688 210.517 70.7629 211.779 71.1509C213.04 71.5147 214.083 71.9998 214.907 72.6062C215.756 73.2125 216.387 73.9037 216.799 74.6799C217.236 75.456 217.454 76.2563 217.454 77.081C217.454 77.2265 217.405 77.7116 217.308 78.5362C217.211 79.3366 217.054 80.4037 216.835 81.7377C216.641 83.0716 216.387 84.636 216.071 86.4308C215.78 88.2013 215.417 90.1052 214.98 92.1425C214.568 94.1799 214.095 96.3263 213.561 98.5819C213.052 100.813 212.482 103.069 211.851 105.349C210.784 109.181 209.487 112.297 207.959 114.699C206.455 117.124 204.793 119.016 202.974 120.374C201.18 121.756 199.288 122.702 197.299 123.212C195.31 123.721 193.309 123.976 191.296 123.976C189.235 123.976 187.452 123.709 185.948 123.175C184.445 122.666 183.196 121.963 182.201 121.065C181.231 120.192 180.503 119.173 180.018 118.009C179.533 116.845 179.291 115.62 179.291 114.335C179.291 113.098 179.46 111.921 179.8 110.806C180.164 109.666 180.758 108.49 181.583 107.277C181.777 107.228 182.031 107.192 182.347 107.168C182.686 107.143 183.001 107.131 183.293 107.131C184.02 107.131 184.748 107.18 185.475 107.277C186.203 107.35 186.785 107.422 187.222 107.495L192.933 108.55C193.2 108.599 193.467 108.647 193.734 108.696C194.001 108.744 194.267 108.768 194.534 108.768C194.946 108.768 195.286 108.684 195.553 108.514C195.844 108.344 195.989 107.944 195.989 107.313L187.404 105.676C186.506 105.312 185.572 104.694 184.602 103.821C183.656 102.948 182.759 101.747 181.91 100.219C181.061 98.6668 180.285 96.7386 179.582 94.4345C178.903 92.1304 178.381 89.3776 178.017 86.1761C177.362 85.3272 176.805 84.2843 176.344 83.0474C175.859 81.7862 175.616 80.3795 175.616 78.8272C175.616 77.4933 175.786 76.1593 176.126 74.8254C176.465 73.4914 177.023 72.2424 177.799 71.0782H187.149Z" fill="white"/>
<path d="M156.843 61.3284C157.085 61.1828 157.473 60.9767 158.007 60.7099C158.541 60.4431 159.171 60.1884 159.899 59.9459C160.651 59.6791 161.499 59.4608 162.445 59.291C163.391 59.097 164.398 59 165.465 59C167.211 59 168.703 59.194 169.94 59.5821C171.201 59.9702 172.232 60.5159 173.032 61.2192C173.833 61.8983 174.415 62.7229 174.778 63.6931C175.166 64.6632 175.36 65.7425 175.36 66.931V92.5065C175.36 94.18 175.542 95.6231 175.906 96.8358C176.27 98.0243 176.961 98.9338 177.98 99.5644C178.004 99.7584 178.016 100.001 178.016 100.292C178.016 100.559 178.016 100.765 178.016 100.91C178.016 104.427 177.119 107.071 175.324 108.841C173.554 110.612 171.08 111.497 167.902 111.497C166.471 111.497 165.089 111.291 163.755 110.879C162.421 110.466 161.245 109.775 160.226 108.805C159.208 107.835 158.383 106.562 157.752 104.985C157.146 103.409 156.843 101.456 156.843 99.1278V61.3284Z" fill="white"/>
<path d="M137.923 87.3406C138.529 87.3406 138.978 87.2193 139.269 86.9768C139.584 86.71 139.742 86.3705 139.742 85.9581C139.742 85.4731 139.56 85.1335 139.196 84.9395C138.857 84.7455 138.444 84.6484 137.959 84.6484C137.28 84.6484 136.735 84.8425 136.322 85.2305C135.934 85.5943 135.692 86.0915 135.595 86.7221C135.837 86.8677 136.153 87.0132 136.541 87.1587C136.929 87.28 137.389 87.3406 137.923 87.3406ZM138.396 111.97C135.073 111.97 132.066 111.497 129.374 110.551C126.681 109.581 124.377 108.199 122.461 106.404C120.569 104.585 119.102 102.378 118.059 99.7828C117.041 97.1876 116.531 94.265 116.531 91.015C116.531 87.5953 117.077 84.5757 118.168 81.9563C119.284 79.3369 120.776 77.1419 122.643 75.3714C124.535 73.6009 126.73 72.2669 129.228 71.3695C131.726 70.4721 134.358 70.0234 137.123 70.0234C140.057 70.0234 142.701 70.46 145.054 71.3331C147.406 72.182 149.407 73.3583 151.056 74.8621C152.73 76.3658 154.015 78.1242 154.913 80.1372C155.81 82.1503 156.259 84.2968 156.259 86.5766C156.259 88.7352 155.871 90.5906 155.095 92.1428C154.343 93.6951 153.288 94.9805 151.93 95.9992C150.571 96.9936 148.958 97.7333 147.091 98.2184C145.223 98.7035 143.198 98.946 141.015 98.946C139.366 98.946 137.765 98.752 136.213 98.3639C134.685 97.9759 133.375 97.4544 132.284 96.7996C132.163 96.8966 132.078 97.03 132.029 97.1997C132.005 97.3453 131.993 97.4787 131.993 97.5999C131.993 97.9637 132.26 98.3275 132.793 98.6913C133.327 99.0309 134.018 99.3462 134.867 99.6372C135.716 99.904 136.686 100.134 137.778 100.328C138.869 100.498 139.96 100.583 141.052 100.583C142.556 100.583 143.926 100.486 145.163 100.292C146.4 100.074 147.503 99.8191 148.473 99.5281C149.468 99.2128 150.329 98.8732 151.056 98.5094C151.784 98.1456 152.39 97.794 152.875 97.4544C153.191 97.7212 153.458 98.1214 153.676 98.655C153.918 99.1643 154.125 99.7343 154.294 100.365C154.464 100.995 154.585 101.65 154.658 102.329C154.755 102.984 154.804 103.591 154.804 104.148C154.804 104.706 154.767 105.24 154.694 105.749C154.646 106.234 154.573 106.659 154.476 107.023C153.7 107.677 152.851 108.308 151.93 108.914C151.008 109.496 149.917 110.018 148.655 110.479C147.394 110.915 145.927 111.267 144.253 111.534C142.604 111.825 140.652 111.97 138.396 111.97Z" fill="white"/>
<path d="M90.5545 71.0782C92.0582 71.0782 93.3073 71.3207 94.3017 71.8058C95.3203 72.2909 96.1207 72.97 96.7028 73.8431C96.3875 74.1827 96.0843 74.595 95.7933 75.08C95.5265 75.5651 95.284 76.0502 95.0657 76.5353C94.8716 76.9961 94.714 77.4448 94.5927 77.8813C94.4715 78.2937 94.4108 78.6211 94.4108 78.8636C94.4108 79.1547 94.52 79.4215 94.7383 79.664C94.9565 79.8823 95.2961 79.9914 95.7569 79.9914C96.2177 78.1966 96.8605 76.6929 97.6851 75.4802C98.534 74.2675 99.492 73.2974 100.559 72.5698C101.651 71.8422 102.815 71.3328 104.052 71.0418C105.313 70.7265 106.586 70.5688 107.872 70.5688C108.915 70.5688 109.873 70.6416 110.746 70.7871C111.619 70.9084 112.407 71.0782 113.11 71.2965C113.814 71.5147 114.432 71.7694 114.966 72.0605C115.499 72.3272 115.948 72.594 116.312 72.8608C116.7 73.8795 116.979 74.9588 117.149 76.0987C117.318 77.2386 117.403 78.3543 117.403 79.4457C117.403 81.4103 117.221 83.0474 116.858 84.3571C116.518 85.6668 116.142 86.7461 115.73 87.595C115.342 87.789 114.857 87.983 114.275 88.1771C113.693 88.3711 113.05 88.5409 112.346 88.6864C111.667 88.8319 110.94 88.9532 110.164 89.0502C109.388 89.123 108.624 89.1593 107.872 89.1593C107.071 89.1593 106.356 89.1351 105.725 89.0866C105.119 89.0381 104.561 88.9774 104.052 88.9047C103.542 88.8077 103.069 88.7106 102.633 88.6136C102.221 88.4924 101.796 88.3832 101.36 88.2862C101.165 88.4802 101.068 88.7591 101.068 89.123C101.068 89.4625 101.287 89.7293 101.723 89.9233C102.184 90.1174 102.997 90.3235 104.161 90.5418V108.805C103.336 109.338 102.499 109.775 101.651 110.115C100.802 110.43 99.9649 110.672 99.1403 110.842C98.3399 111.036 97.5638 111.157 96.8119 111.206C96.0843 111.279 95.4052 111.315 94.7746 111.315C93.4164 111.315 92.1431 111.182 90.9547 110.915C89.7662 110.672 88.7233 110.296 87.8259 109.787C86.9528 109.254 86.2616 108.587 85.7522 107.786C85.2429 106.986 84.9883 106.028 84.9883 104.912V86.1761C84.2606 85.1575 83.7149 84.0054 83.3511 82.72C83.0116 81.4345 82.8418 80.0884 82.8418 78.6817C82.8418 77.5175 83.0116 76.2321 83.3511 74.8254C83.7149 73.4187 84.2606 72.1696 84.9883 71.0782H90.5545Z" fill="white"/>
<path d="M62.9032 94.6165C62.3454 94.6165 61.9452 94.762 61.7027 95.053C61.4844 95.3198 61.3752 95.6351 61.3752 95.9989C61.3752 96.484 61.545 96.8235 61.8846 97.0176C62.2484 97.2116 62.6728 97.3086 63.1579 97.3086C63.934 97.3086 64.5282 97.1146 64.9405 96.7265C65.3529 96.3385 65.559 95.6351 65.559 94.6165H62.9032ZM81.7848 92.8338C81.7848 94.5073 81.9667 95.8898 82.3305 96.9812C82.6943 98.0726 83.3855 98.9336 84.4042 99.5642C84.4284 99.7583 84.4405 100.001 84.4405 100.292C84.4405 100.559 84.4405 100.765 84.4405 100.91C84.4405 102.754 84.1495 104.342 83.5674 105.676C82.9853 107.01 82.2213 108.114 81.2754 108.987C80.3538 109.836 79.2988 110.466 78.1103 110.879C76.9219 111.291 75.7092 111.497 74.4723 111.497C73.5991 111.497 72.7381 111.388 71.8892 111.17C71.0646 110.976 70.2764 110.672 69.5245 110.26C68.7969 109.848 68.1299 109.326 67.5236 108.696C66.9415 108.041 66.4807 107.277 66.1411 106.404C65.7288 106.404 65.4135 106.513 65.1952 106.731C65.0012 106.949 64.9042 107.241 64.9042 107.604C64.9042 107.944 65.0133 108.308 65.2316 108.696C65.4499 109.084 65.7652 109.484 66.1775 109.896C65.4014 110.43 64.3585 110.83 63.0488 111.097C61.7391 111.364 60.4051 111.497 59.0469 111.497C56.8398 111.497 54.8267 111.194 53.0077 110.588C51.2129 109.981 49.6607 109.084 48.351 107.895C47.0655 106.707 46.059 105.264 45.3314 103.566C44.628 101.844 44.2764 99.8674 44.2764 97.636C44.2764 95.3319 44.6523 93.3431 45.4042 91.6696C46.1803 89.9719 47.2232 88.5773 48.5329 87.4859C49.8426 86.3702 51.3585 85.5456 53.0805 85.012C54.8267 84.4784 56.67 84.2116 58.6103 84.2116C59.4835 84.2116 60.2596 84.248 60.9387 84.3208C61.6178 84.3693 62.1999 84.4299 62.685 84.5027C63.2428 84.5997 63.7157 84.6967 64.1038 84.7937C64.1766 84.5512 64.2129 84.345 64.2129 84.1752C64.2129 83.8599 64.0432 83.5931 63.7036 83.3749C63.3883 83.1566 62.9639 82.9989 62.4303 82.9019C61.8967 82.7806 61.2782 82.6958 60.5749 82.6472C59.8715 82.5987 59.156 82.5745 58.4284 82.5745C56.7792 82.5745 55.1299 82.7564 53.4807 83.1202C51.8314 83.484 50.3519 84.0418 49.0422 84.7937C48.5086 83.8963 48.0721 82.7564 47.7325 81.3739C47.4172 79.9915 47.2596 78.5847 47.2596 77.1538C47.2596 76.4747 47.296 75.7956 47.3687 75.1165C47.4657 74.4131 47.6476 73.7946 47.9144 73.261C48.545 72.97 49.3454 72.6547 50.3155 72.3152C51.31 71.9513 52.4499 71.6239 53.7353 71.3329C55.045 71.0176 56.476 70.7508 58.0282 70.5325C59.6047 70.3142 61.2904 70.2051 63.0851 70.2051C66.2139 70.2051 68.9424 70.5568 71.2708 71.2601C73.6234 71.9635 75.5758 72.9821 77.128 74.3161C78.6803 75.6258 79.8445 77.2508 80.6206 79.1911C81.3967 81.1071 81.7848 83.2778 81.7848 85.7032V92.8338Z" fill="white"/>
<path d="M24.3022 111.824C20.6157 111.824 17.2808 111.279 14.2976 110.187C11.3144 109.072 8.7556 107.459 6.62127 105.349C4.51119 103.214 2.87407 100.607 1.70989 97.5269C0.569963 94.4224 0 90.8935 0 86.9402C0 82.8655 0.654851 79.3245 1.96455 76.317C3.29851 73.2853 5.0569 70.7629 7.23974 68.7499C9.44683 66.7368 11.9692 65.2331 14.8069 64.2387C17.6688 63.2443 20.6278 62.7471 23.6838 62.7471C26.764 62.7471 29.5896 63.1473 32.1604 63.9476C34.7313 64.748 36.9263 65.8394 38.7453 67.2219C40.5886 68.6043 42.0196 70.2293 43.0382 72.0969C44.0569 73.9644 44.5662 75.9775 44.5662 78.1361C44.5662 79.8581 44.2873 81.3254 43.7295 82.5381C43.1716 83.7508 42.3955 84.7452 41.4011 85.5213C40.431 86.2732 39.2547 86.831 37.8722 87.1948C36.4897 87.5586 34.986 87.7405 33.361 87.7405C32.3424 87.7405 31.3237 87.6071 30.305 87.3404C29.3106 87.0493 28.389 86.6976 27.5401 86.2853C26.6912 85.873 25.9636 85.4364 25.3573 84.9756C24.7752 84.4905 24.3993 84.0661 24.2295 83.7023C24.2295 83.0717 24.2295 82.3441 24.2295 81.5195C24.2537 80.6948 24.2901 79.8581 24.3386 79.0092C24.2659 78.9849 24.1688 78.9728 24.0476 78.9728C23.9506 78.9728 23.8778 78.9728 23.8293 78.9728C23.4655 78.9728 23.1744 79.082 22.9562 79.3002C22.7621 79.4943 22.6045 79.8581 22.4832 80.3917C22.3619 80.901 22.2771 81.6043 22.2285 82.5017C22.2043 83.3991 22.1922 84.539 22.1922 85.9215C22.1922 87.789 22.2285 89.3898 22.3013 90.7237C22.3983 92.0335 22.5196 93.1127 22.6651 93.9616C22.8106 94.7862 22.9925 95.3926 23.2108 95.7807C23.4291 96.1687 23.6716 96.3627 23.9384 96.3627C24.181 96.3627 24.3993 96.3021 24.5933 96.1808V92.8702C25.4422 92.2881 26.4851 91.7667 27.722 91.3058C28.959 90.845 30.2687 90.457 31.6511 90.1417C33.0578 89.8021 34.5009 89.5474 35.9804 89.3777C37.4599 89.1836 38.8666 89.0866 40.2006 89.0866C40.8554 89.7657 41.4496 90.6267 41.9832 91.6696C42.541 92.7126 43.014 93.8404 43.4021 95.053C43.8144 96.2415 44.1418 97.4542 44.3843 98.6911C44.6269 99.9038 44.7603 101.019 44.7845 102.038C44.3237 102.936 43.5354 103.954 42.4198 105.094C41.3041 106.21 39.8853 107.277 38.1632 108.296C36.4412 109.29 34.416 110.127 32.0877 110.806C29.7593 111.485 27.1642 111.824 24.3022 111.824Z" fill="white"/>
</svg>
