<svg width="183" height="248" viewBox="0 0 183 248" fill="none" xmlns="http://www.w3.org/2000/svg">
<g clip-path="url(#clip0_740_22140)">
<path d="M119.383 247.306C113.99 247.306 108.297 246.556 102.305 245.058C88.8221 241.763 79.2342 234.122 73.5415 222.138C69.6464 214.347 67.8487 207.306 68.1483 201.014C68.7476 194.423 69.197 189.629 69.4966 186.633C69.7962 185.135 70.0959 183.637 70.3955 182.138C70.9947 180.341 71.4441 178.543 71.7438 176.745C69.6464 177.944 67.6989 178.992 65.9012 179.891C64.1035 180.49 62.156 181.09 60.0586 181.689C55.2647 183.487 50.1712 184.386 44.7781 184.386C35.4899 184.386 26.9507 181.839 19.1606 176.745C11.3705 171.352 5.82759 164.011 2.53178 154.723C-1.36327 143.338 -0.764028 131.952 4.32949 120.567C9.42302 109.181 17.8123 101.391 29.4975 97.1964C30.696 96.8968 33.3925 95.6983 37.5872 93.601C41.7819 91.204 48.0739 86.8595 56.4632 80.5675C65.1521 74.2755 76.3879 65.1372 90.1703 53.1524C102.155 42.6657 112.342 33.5274 120.731 25.7373C129.121 17.6475 133.465 13.4529 133.765 13.1533C139.458 7.4605 146.049 3.56547 153.54 1.46814C161.33 -0.629193 169.12 -0.479398 176.91 1.91755C189.794 5.21336 199.082 12.7038 204.775 24.389C206.572 27.3852 208.07 32.0293 209.269 38.3213C210.767 44.3136 210.318 51.2049 207.921 58.995C207.921 59.2946 207.771 59.5942 207.471 59.8938C207.172 60.1935 207.022 60.6429 207.022 61.2421C206.722 61.8414 206.423 62.5904 206.123 63.4893C206.123 64.3881 205.973 65.1372 205.673 65.7364C205.074 67.8337 204.175 70.0809 202.977 72.4778C202.078 74.8748 201.029 77.7212 199.831 81.017C198.632 84.0132 197.284 87.6086 195.786 91.8032C194.588 95.6983 193.089 99.7431 191.292 103.938C191.891 103.638 192.49 103.339 193.089 103.039C193.689 102.44 194.288 101.99 194.887 101.691C205.374 94.7994 216.61 92.7021 228.594 95.3987C240.579 97.7956 249.867 104.237 256.459 114.724C263.65 124.911 265.897 136.147 263.2 148.431C260.803 160.716 254.362 170.303 243.875 177.195C236.684 181.989 229.793 186.782 223.201 191.576C216.909 196.071 210.467 200.865 203.876 205.958C196.385 211.651 189.344 216.894 182.753 221.688C176.461 226.482 170.019 230.677 163.427 234.272C158.633 236.969 154.139 239.066 149.944 240.564C145.75 242.362 141.555 243.86 137.36 245.058C130.769 246.556 124.776 247.306 119.383 247.306Z" fill="white"/>
<path d="M150.493 94.7914C145.829 97.8274 138.016 94.0932 133.041 86.451C128.066 78.8087 127.814 70.1522 132.477 67.1163C137.141 64.0803 144.955 67.8144 149.93 75.4567C154.905 83.099 155.157 91.7554 150.493 94.7914Z" fill="#4B4B4B"/>
<path d="M112.27 121.429C107.607 124.465 99.793 120.731 94.8181 113.089C89.8432 105.446 89.591 96.7899 94.2547 93.754C98.9185 90.718 106.732 94.4521 111.707 102.094C116.682 109.737 116.934 118.393 112.27 121.429Z" fill="#4B4B4B"/>
<path d="M163.596 139.851C172.047 132.91 175.889 126.848 166.557 115.456C157.224 104.065 148.841 104.859 139.691 112.049C130.541 119.238 130.083 126.799 139.166 137.951C148.249 149.103 155.145 146.792 163.596 139.851Z" fill="#FF6B6B"/>
</g>
<defs>
<clipPath id="clip0_740_22140">
<rect width="265" height="248" fill="white"/>
</clipPath>
</defs>
</svg>
