<svg width="375" height="380" viewBox="0 0 375 380" fill="none" xmlns="http://www.w3.org/2000/svg">
<path d="M467.457 315.104C461.992 315.104 455.844 314.42 449.013 313.054C428.063 307.589 412.123 295.065 401.193 275.482C388.442 280.492 375.234 281.63 361.572 278.898C347.454 275.71 335.385 268.423 325.366 257.037C313.069 242.919 307.604 226.524 308.971 207.852C309.881 188.724 317.396 173.012 331.514 160.716C336.524 156.617 341.989 151.835 347.909 146.37C353.374 140.45 359.295 134.529 365.671 128.609C376.601 117.678 387.986 106.521 399.827 95.1351C412.123 83.7495 423.964 73.7303 435.35 65.0773C443.092 59.1568 450.379 53.9195 457.21 49.3653C464.497 44.8111 471.328 40.94 477.704 37.752C501.386 26.3665 524.613 23.1785 547.384 28.1882C573.343 35.4749 591.332 52.0978 601.351 78.0568C607.727 96.2737 607.499 115.401 600.668 135.44C599.757 137.717 598.846 139.994 597.935 142.271C597.025 144.548 595.886 147.053 594.52 149.786C610.915 157.528 622.756 170.28 630.043 188.041C636.419 206.258 635.735 224.019 627.993 241.325C620.251 258.176 607.272 269.789 589.055 276.165C574.937 281.63 561.957 286.64 550.116 291.194C538.275 295.293 528.256 298.708 520.058 301.441C515.504 303.263 511.178 304.857 507.079 306.223C503.435 307.589 500.475 308.728 498.198 309.639C493.644 310.549 488.862 311.688 483.852 313.054C478.843 314.42 473.378 315.104 467.457 315.104Z" fill="white"/>
<path d="M257.98 375.905C249.783 375.905 241.13 374.766 232.021 372.489C211.527 367.479 196.954 355.866 188.301 337.649C182.38 325.808 179.648 315.106 180.103 305.542C181.014 295.523 181.697 288.236 182.153 283.682C182.608 281.405 183.063 279.128 183.519 276.851C184.43 274.118 185.113 271.386 185.568 268.653C182.38 270.475 179.42 272.069 176.687 273.435C173.955 274.346 170.995 275.257 167.807 276.167C160.52 278.9 152.778 280.266 144.58 280.266C130.462 280.266 117.483 276.395 105.642 268.653C93.8008 260.455 85.3755 249.298 80.3659 235.18C74.4454 217.874 75.3563 200.568 83.0984 183.262C90.8406 165.956 103.592 154.115 121.354 147.739C123.175 147.283 127.274 145.462 133.65 142.274C140.026 138.63 149.59 132.027 162.342 122.463C175.549 112.899 192.627 99.0086 213.577 80.7917C231.793 64.852 247.278 50.9616 260.03 39.1207C272.781 26.8243 279.385 20.4484 279.84 19.993C288.493 11.34 298.513 5.41952 309.898 2.23157C321.739 -0.956374 333.58 -0.728685 345.421 2.91468C365.004 7.92432 379.122 19.3098 387.775 37.0713C390.508 41.6255 392.785 48.6845 394.607 58.2484C396.884 67.3568 396.201 77.8315 392.557 89.6725C392.557 90.1279 392.329 90.5833 391.874 91.0387C391.419 91.4941 391.191 92.1773 391.191 93.0881C390.736 93.999 390.28 95.1375 389.825 96.5038C389.825 97.87 389.597 99.0086 389.141 99.9194C388.231 103.107 386.864 106.523 385.043 110.166C383.676 113.81 382.082 118.136 380.261 123.146C378.439 127.7 376.39 133.165 374.113 139.541C372.291 145.462 370.014 151.61 367.281 157.986C368.192 157.53 369.103 157.075 370.014 156.619C370.925 155.709 371.835 155.025 372.746 154.57C388.686 144.095 405.764 140.907 423.981 145.006C442.198 148.649 456.316 158.441 466.335 174.381C477.266 189.865 480.681 206.943 476.582 225.616C472.939 244.288 463.147 258.861 447.208 269.336C436.278 276.623 425.803 283.91 415.784 291.196C406.22 298.028 396.428 305.314 386.409 313.057C375.023 321.71 364.321 329.679 354.302 336.966C344.738 344.253 334.946 350.629 324.927 356.094C317.64 360.193 310.809 363.381 304.433 365.658C298.057 368.39 291.681 370.667 285.305 372.489C275.286 374.766 266.178 375.905 257.98 375.905Z" fill="white"/>
<path d="M-134.304 380.001C-139.313 380.001 -144.095 379.773 -148.649 379.317C-152.748 379.317 -155.936 379.09 -158.213 378.634C-170.965 374.991 -182.351 369.07 -192.37 360.873C-202.389 353.131 -209.904 343.567 -214.913 332.181C-218.101 325.805 -220.151 320.113 -221.061 315.103C-221.972 309.638 -222.428 304.173 -222.428 298.708C-222.428 291.421 -221.745 284.362 -220.378 277.531C-224.477 274.798 -228.804 271.838 -233.358 268.65C-237.912 265.007 -241.328 261.591 -243.605 258.403C-254.535 243.83 -260 228.345 -260 211.95C-260 201.02 -257.495 190.545 -252.486 180.526C-247.931 170.507 -241.555 161.854 -233.358 154.567C-231.081 152.29 -226.754 147.963 -220.378 141.587C-214.458 135.212 -208.993 128.836 -203.983 122.46L-190.321 107.431C-183.945 100.6 -177.341 93.5405 -170.51 86.2538C-163.678 78.9671 -157.302 72.3635 -151.382 66.443C-144.095 60.0671 -137.719 54.602 -132.254 50.0478C-126.789 45.4936 -122.007 41.8502 -117.909 39.1177C-94.2266 24.5442 -69.6339 19.99 -44.1303 25.4551C-17.7159 32.2864 -0.182129 47.0876 8.47089 69.8587L7.78772 69.1755C9.60941 73.2743 10.9757 77.3731 11.8865 81.4719C13.2528 85.1153 14.1636 88.9864 14.6191 93.0851C20.995 86.2538 26.6877 79.8779 31.6974 73.9574C36.707 67.5816 41.2612 61.8888 45.36 56.8792L54.9239 45.949C55.8347 45.0382 56.5178 44.1273 56.9732 43.2165C57.8841 41.8502 58.3395 41.1671 58.3395 41.1671C68.8142 28.8707 81.1106 20.2177 95.2286 15.2081C109.802 9.74306 124.376 8.8322 138.949 12.4756C148.968 15.2081 158.077 20.2177 166.274 27.5045C174.927 34.7912 181.986 43.2165 187.451 52.7804C193.827 67.3538 196.56 79.8779 195.649 90.3526C195.194 100.372 194.51 107.203 193.6 110.847C193.144 112.668 192.461 114.718 191.55 116.995C191.095 119.272 190.639 121.321 190.184 123.143L186.085 136.122L185.402 138.172C194.51 138.627 203.619 141.132 212.727 145.686C221.836 149.785 229.35 155.478 235.271 162.765C241.191 170.051 245.518 178.021 248.25 186.674C251.438 195.327 253.032 203.753 253.032 211.95C253.032 234.721 243.696 254.077 225.024 270.016L221.608 273.432C212.044 281.63 201.797 289.827 190.867 298.025C180.392 306.222 169.235 313.964 157.394 321.251C130.524 337.191 104.109 345.161 78.1503 345.161C67.2202 345.161 56.2901 343.567 45.36 340.379C37.1624 338.557 29.4202 335.369 22.1335 330.815C15.3022 326.261 9.38171 321.024 4.37207 315.103C-1.09299 319.657 -6.33034 323.984 -11.34 328.083C-16.3496 331.726 -22.0424 335.597 -28.4183 339.696H-27.7351C-38.2098 346.983 -48.2291 353.131 -57.7929 358.14C-67.3568 363.15 -76.4652 367.476 -85.1182 371.12C-92.405 374.308 -100.603 376.585 -109.711 377.951C-118.364 379.317 -126.562 380.001 -134.304 380.001Z" fill="white"/>
</svg>
