<svg width="235" height="244" viewBox="0 0 235 244" fill="none" xmlns="http://www.w3.org/2000/svg">
<g clip-path="url(#clip0_740_22130)">
<path d="M-20.3051 243.231C-23.601 243.231 -26.747 243.081 -29.7431 242.781C-32.4397 242.781 -34.537 242.631 -36.0351 242.332C-44.4245 239.935 -51.915 236.04 -58.5066 230.647C-65.0982 225.553 -70.0419 219.261 -73.3377 211.771C-75.435 207.576 -76.7833 203.831 -77.3826 200.535C-77.9818 196.94 -78.2814 193.344 -78.2814 189.749C-78.2814 184.955 -77.832 180.311 -76.9331 175.816C-79.6297 174.019 -82.4761 172.071 -85.4723 169.974C-88.4685 167.577 -90.7156 165.33 -92.2137 163.232C-99.4046 153.645 -103 143.458 -103 132.671C-103 125.48 -101.352 118.589 -98.0563 111.998C-95.0601 105.406 -90.8654 99.7132 -85.4723 94.9193C-83.9742 93.4212 -81.1278 90.5748 -76.9331 86.3801C-73.0381 82.1855 -69.4427 77.9908 -66.1469 73.7961L-57.1583 63.9087C-52.9636 59.4144 -48.6191 54.7703 -44.1249 49.9764C-39.6306 45.1825 -35.4359 40.8381 -31.5409 36.943C-26.747 32.7484 -22.5523 29.1529 -18.9569 26.1567C-15.3614 23.1605 -12.2154 20.7636 -9.5189 18.9659C6.061 9.37807 22.241 6.38187 39.019 9.9773C56.397 14.4716 67.933 24.2092 73.625 39.1902L73.176 38.7407C74.374 41.4373 75.273 44.1339 75.873 46.8304C76.771 49.2274 77.371 51.7742 77.67 54.4707C81.865 49.9765 85.61 45.7818 88.906 41.8867C92.202 37.6921 95.198 33.9468 97.895 30.651L104.187 23.4601C104.786 22.8609 105.235 22.2617 105.535 21.6625C106.134 20.7636 106.434 20.3142 106.434 20.3142C113.325 12.2245 121.415 6.5317 130.703 3.23589C140.291 -0.359534 149.878 -0.958782 159.466 1.43816C166.058 3.23588 172.05 6.53168 177.443 11.3256C183.136 16.1195 187.78 21.6624 191.376 27.9545C195.57 37.5423 197.368 45.7818 196.769 52.673C196.469 59.2646 196.02 63.7589 195.421 66.1559C195.121 67.3543 194.672 68.7026 194.072 70.2007C193.773 71.6988 193.473 73.0471 193.173 74.2456L190.477 82.7847L190.027 84.133C196.02 84.4326 202.012 86.0805 208.005 89.0767C213.997 91.7733 218.941 95.5185 222.836 100.312C226.731 105.106 229.577 110.35 231.375 116.042C233.472 121.735 234.521 127.278 234.521 132.671C234.521 147.652 228.379 160.386 216.094 170.873L213.847 173.12C207.555 178.513 200.814 183.906 193.623 189.299C186.732 194.692 179.391 199.786 171.601 204.58C153.923 215.066 136.545 220.31 119.467 220.31C112.276 220.31 105.085 219.261 97.895 217.164C92.501 215.965 87.408 213.868 82.614 210.872C78.12 207.876 74.225 204.43 70.929 200.535C67.333 203.531 63.888 206.378 60.592 209.074C57.296 211.471 53.551 214.018 49.356 216.714H49.806C42.914 221.508 36.323 225.553 30.031 228.849C23.739 232.145 17.746 234.991 12.054 237.388C7.26 239.485 1.867 240.984 -4.1257 241.882C-9.8185 242.781 -15.2116 243.231 -20.3051 243.231Z" fill="white"/>
<path d="M42.2586 123.964C36.7612 123.1 33.4525 115.097 34.8684 106.088C36.2843 97.0799 41.8886 90.4777 47.3859 91.3418C52.8833 92.2058 56.1921 100.209 54.7762 109.217C53.3603 118.225 47.756 124.828 42.2586 123.964Z" fill="#4B4B4B"/>
<path d="M-3.97184 118.186C-9.46923 117.322 -12.778 109.319 -11.3621 100.311C-9.94621 91.3026 -4.34191 84.7004 1.15548 85.5644C6.65286 86.4285 9.96158 94.4316 8.54571 103.44C7.12984 112.448 1.52554 119.05 -3.97184 118.186Z" fill="#4B4B4B"/>
<path d="M-23.5529 124.444L66.0006 135.999C66.0006 135.999 60.2226 182.22 8.22464 173.554C-15.2735 169.637 -26.4417 150.443 -23.5529 124.444Z" fill="#FF6B6B"/>
</g>
<defs>
<clipPath id="clip0_740_22130">
<rect width="338" height="244" fill="white" transform="translate(-103)"/>
</clipPath>
</defs>
</svg>
