<svg width="335" height="56" viewBox="0 0 335 56" fill="none" xmlns="http://www.w3.org/2000/svg">
<rect width="335" height="56" rx="8" fill="#FEE500"/>
<path fill-rule="evenodd" clip-rule="evenodd" d="M105 20.5C100.582 20.5 97 23.2794 97 26.7074C97 28.8393 98.3853 30.7187 100.495 31.8366L99.6071 35.0933C99.5287 35.3811 99.8564 35.6104 100.108 35.4437L103.999 32.8645C104.327 32.8963 104.661 32.9149 105 32.9149C109.418 32.9149 113 30.1355 113 26.7074C113 23.2794 109.418 20.5 105 20.5Z" fill="black"/>
<path d="M131.102 22.6562C131.102 26.9219 129.93 30.5781 124.727 33.1719L123.773 31.8594C126.219 30.6484 127.672 29.2422 128.492 27.5625L124.102 27.9844L123.883 26.4844L129.023 26.1562C129.203 25.5 129.312 24.8047 129.367 24.0625H124.617V22.6562H131.102ZM134.82 21.2656V26.7969H136.914V28.2188H134.82V35.3594H133.086V21.2656H134.82ZM144.93 22.6562C144.93 26.9219 143.758 30.5781 138.555 33.1719L137.602 31.8594C140.047 30.6484 141.5 29.2422 142.32 27.5625L137.93 27.9844L137.711 26.4844L142.852 26.1562C143.031 25.5 143.141 24.8047 143.195 24.0625H138.445V22.6562H144.93ZM148.648 21.2656V26.7969H150.742V28.2188H148.648V35.3594H146.914V21.2656H148.648ZM157.836 22.0625C160.867 22.0625 163.102 23.5781 163.102 25.875C163.102 27.9922 161.281 29.4062 158.695 29.6562V32.25H164.32V33.6719H151.414V32.25H156.977V29.6562C154.406 29.4062 152.586 27.9922 152.602 25.875C152.586 23.5781 154.82 22.0625 157.836 22.0625ZM157.836 23.4688C155.773 23.4531 154.289 24.3906 154.305 25.875C154.289 27.4062 155.773 28.3125 157.836 28.3125C159.93 28.3125 161.398 27.4062 161.398 25.875C161.398 24.3906 159.93 23.4531 157.836 23.4688ZM178.117 28.7969V30.1719H165.211V28.7969H170.789V27.6094H166.867V21.6094H176.57V22.9688H168.602V23.9375H176.227V25.2344H168.602V26.2812H176.68V27.6094H172.523V28.7969H178.117ZM176.492 31.1719V35.3906H174.742V32.5469H166.664V31.1719H176.492ZM188.211 24.6562C188.195 27.25 189.555 29.8438 191.852 30.8281L190.82 32.2188C189.195 31.4688 188 29.9688 187.352 28.125C186.703 30.1172 185.492 31.7422 183.773 32.5469L182.711 31.0938C185.07 30.0781 186.445 27.375 186.445 24.6562V22.4062H188.211V24.6562ZM194.617 21.2656V35.4062H192.867V21.2656H194.617ZM201.758 23.7188C201.758 25.4531 202.883 27.1719 205.102 27.9062L204.227 29.25C202.648 28.7266 201.523 27.6641 200.914 26.3438C200.281 27.7891 199.109 28.9375 197.461 29.5L196.539 28.1562C198.82 27.4062 200.008 25.5781 200.008 23.7188V23.5469H197.023V22.1562H204.695V23.5469H201.758V23.7188ZM207.836 21.2656V24.7969H209.805V26.25H207.836V29.7812H206.102V21.2656H207.836ZM207.836 30.4375V35.3906H206.102V31.8281H198.43V30.4375H207.836ZM221.586 21.2656V26.8906H223.758V28.3281H221.586V35.3906H219.867V21.2656H221.586ZM218.773 23.4375V24.8281H210.445V23.4375H213.789V21.4688H215.523V23.4375H218.773ZM214.664 25.75C216.695 25.75 218.211 27.125 218.211 29.0781C218.211 31.0312 216.695 32.3906 214.664 32.3906C212.602 32.3906 211.086 31.0312 211.102 29.0781C211.086 27.125 212.602 25.75 214.664 25.75ZM214.664 27.1719C213.555 27.1719 212.758 27.9219 212.758 29.0781C212.758 30.2344 213.555 30.9688 214.664 30.9531C215.742 30.9688 216.539 30.2344 216.555 29.0781C216.539 27.9219 215.742 27.1719 214.664 27.1719ZM236.148 21.2656V35.3906H234.398V21.2656H236.148ZM231.93 22.7656C231.93 26.9688 230.305 30.5469 225.352 32.8906L224.445 31.5C228.141 29.7422 229.859 27.3516 230.164 24.1406H225.164V22.7656H231.93Z" fill="black"/>
</svg>
