<svg width="375" height="341" viewBox="0 0 375 341" fill="none" xmlns="http://www.w3.org/2000/svg">
<path d="M439.064 282.766C434.16 282.766 428.643 282.153 422.513 280.927C403.714 276.023 389.41 264.784 379.602 247.211C368.159 251.707 356.307 252.728 344.047 250.276C331.377 247.416 320.547 240.877 311.557 230.66C300.522 217.991 295.618 203.278 296.844 186.522C297.661 169.358 304.405 155.258 317.074 144.224C321.569 140.546 326.473 136.255 331.786 131.351C336.69 126.038 342.003 120.725 347.725 115.412C357.533 105.604 367.75 95.5913 378.376 85.3743C389.41 75.1573 400.036 66.1664 410.253 58.4015C417.2 53.0886 423.739 48.3889 429.869 44.3021C436.408 40.2153 442.538 36.7415 448.26 33.8807C469.511 23.6637 490.354 20.803 510.788 25.2985C534.082 31.8373 550.225 46.7541 559.216 70.0489C564.938 86.396 564.733 103.561 558.603 121.542C557.786 123.586 556.968 125.629 556.151 127.673C555.334 129.716 554.312 131.964 553.086 134.416C567.798 141.363 578.424 152.806 584.963 168.745C590.684 185.092 590.071 201.031 583.124 216.56C576.176 231.681 564.529 242.103 548.182 247.824C535.513 252.728 523.865 257.224 513.24 261.311C502.614 264.989 493.623 268.054 486.267 270.506C482.18 272.141 478.298 273.571 474.62 274.797C471.35 276.023 468.694 277.045 466.65 277.862C462.563 278.68 458.272 279.701 453.777 280.927C449.281 282.153 444.377 282.766 439.064 282.766Z" fill="white"/>
<path d="M251.077 337.324C243.72 337.324 235.955 336.302 227.782 334.259C209.391 329.763 196.314 319.342 188.549 302.995C183.236 292.369 180.784 282.765 181.192 274.183C182.01 265.192 182.623 258.653 183.031 254.566C183.44 252.523 183.849 250.48 184.257 248.436C185.075 245.984 185.688 243.532 186.097 241.08C183.236 242.715 180.579 244.145 178.127 245.371C175.675 246.188 173.019 247.006 170.158 247.823C163.619 250.275 156.672 251.501 149.315 251.501C136.646 251.501 124.999 248.027 114.373 241.08C103.748 233.724 96.1871 223.711 91.6916 211.042C86.3788 195.512 87.1961 179.982 94.1437 164.453C101.091 148.923 112.534 138.297 128.473 132.576C130.107 132.167 133.786 130.532 139.507 127.671C145.229 124.402 153.811 118.476 165.254 109.894C177.106 101.312 192.431 88.8469 211.23 72.4997C227.577 58.1959 241.473 45.7312 252.916 35.1055C264.359 24.0712 270.284 18.3497 270.693 17.941C278.458 10.1761 287.449 4.86329 297.666 2.00254C308.292 -0.858217 318.917 -0.653897 329.543 2.61553C347.116 7.11101 359.785 17.328 367.55 33.2665C370.002 37.3533 372.046 43.6878 373.68 52.2701C375.724 60.4437 375.111 69.8433 371.841 80.469C371.841 80.8776 371.637 81.2863 371.228 81.695C370.82 82.1037 370.615 82.7167 370.615 83.534C370.207 84.3514 369.798 85.3731 369.389 86.5991C369.389 87.8252 369.185 88.8469 368.776 89.6642C367.959 92.525 366.733 95.5901 365.098 98.8595C363.872 102.129 362.442 106.011 360.807 110.507C359.172 114.594 357.333 119.498 355.29 125.219C353.655 130.532 351.612 136.049 349.16 141.771C349.977 141.362 350.794 140.953 351.612 140.545C352.429 139.727 353.246 139.114 354.064 138.706C368.367 129.306 383.693 126.445 400.04 130.123C416.387 133.393 429.056 142.18 438.047 156.483C447.856 170.378 450.921 185.704 447.243 202.46C443.973 219.216 435.187 232.293 420.883 241.693C411.075 248.232 401.675 254.771 392.684 261.309C384.102 267.44 375.315 273.979 366.324 280.926C356.107 288.691 346.503 295.843 337.512 302.382C328.93 308.921 320.143 314.642 311.152 319.546C304.614 323.224 298.483 326.085 292.762 328.129C287.04 330.581 281.319 332.624 275.597 334.259C266.606 336.302 258.433 337.324 251.077 337.324Z" fill="white"/>
<path d="M-100.935 341C-105.43 341 -109.722 340.795 -113.808 340.387C-117.487 340.387 -120.347 340.182 -122.391 339.774C-133.834 336.504 -144.051 331.191 -153.042 323.835C-162.033 316.888 -168.776 308.305 -173.271 298.088C-176.132 292.367 -177.971 287.258 -178.788 282.763C-179.606 277.859 -180.014 272.955 -180.014 268.05C-180.014 261.512 -179.401 255.177 -178.175 249.047C-181.853 246.595 -185.736 243.938 -189.823 241.078C-193.91 237.808 -196.975 234.743 -199.018 231.882C-208.826 218.805 -213.73 204.91 -213.73 190.197C-213.73 180.389 -211.483 170.989 -206.987 161.998C-202.9 153.007 -197.179 145.242 -189.823 138.703C-187.779 136.66 -183.897 132.778 -178.175 127.056C-172.863 121.335 -167.958 115.613 -163.463 109.892L-151.203 96.4052C-145.481 90.275 -139.555 83.9404 -133.425 77.4016C-127.295 70.8627 -121.573 64.9369 -116.26 59.624C-109.722 53.9025 -104 48.9984 -99.0959 44.9116C-94.1918 40.8248 -89.9007 37.5554 -86.2225 35.1033C-64.9712 22.0255 -42.9025 17.9387 -20.0165 22.8429C3.68689 28.9731 19.421 42.2552 27.186 62.6891L26.5729 62.0761C28.2076 65.7542 29.4337 69.4323 30.251 73.1105C31.4771 76.3799 32.2945 79.8537 32.7031 83.5318C38.4246 77.4016 43.5331 71.6801 48.0286 66.3672C52.5241 60.6457 56.6109 55.5373 60.289 51.0418L68.8712 41.2334C69.6886 40.4161 70.3016 39.5987 70.7103 38.7814C71.5276 37.5553 71.9363 36.9423 71.9363 36.9423C81.336 25.908 92.3703 18.1431 105.039 13.6476C118.117 8.74348 131.195 7.92611 144.273 11.1955C153.263 13.6476 161.437 18.1431 168.793 24.6819C176.558 31.2208 182.893 38.7814 187.797 47.3637C193.518 60.4414 195.97 71.6801 195.153 81.0797C194.744 90.0706 194.131 96.2008 193.314 99.4703C192.905 101.105 192.292 102.944 191.475 104.987C191.066 107.031 190.658 108.87 190.249 110.505L186.571 122.152L185.958 123.991C194.131 124.4 202.305 126.647 210.479 130.734C218.652 134.412 225.395 139.521 230.708 146.06C236.021 152.599 239.903 159.75 242.356 167.515C245.216 175.28 246.647 182.841 246.647 190.197C246.647 210.631 238.269 228 221.513 242.304L218.448 245.369C209.866 252.725 200.67 260.081 190.862 267.437C181.462 274.794 171.45 281.741 160.824 288.28C136.712 302.584 113.009 309.736 89.7139 309.736C79.9056 309.736 70.0973 308.305 60.289 305.445C52.9327 303.81 45.9852 300.949 39.4463 296.862C33.3161 292.776 28.0033 288.076 23.5078 282.763C18.6037 286.85 13.9039 290.732 9.4084 294.41C4.91293 297.68 -0.195566 301.153 -5.91707 304.832H-5.30404C-14.7037 311.37 -23.6946 316.888 -32.2769 321.383C-40.8591 325.879 -49.0327 329.761 -56.7976 333.03C-63.3365 335.891 -70.6927 337.935 -78.8663 339.161C-86.6312 340.387 -93.9874 341 -100.935 341Z" fill="white"/>
</svg>
