<svg width="218" height="65" viewBox="0 0 218 65" fill="none" xmlns="http://www.w3.org/2000/svg">
<path d="M187.15 12.0784C188.872 12.0784 190.291 12.3331 191.406 12.8424C192.546 13.3275 193.456 13.9702 194.135 14.7706C194.838 15.571 195.348 16.4805 195.663 17.4991C196.002 18.5178 196.233 19.5607 196.354 20.6279C196.281 21.1857 196.196 21.9376 196.099 22.8835C196.002 23.8051 195.905 24.848 195.808 26.0122C195.736 27.1521 195.675 28.3648 195.627 29.6502C195.578 30.9357 195.554 32.209 195.554 33.4702C195.554 33.737 195.554 34.028 195.554 34.3433C195.554 34.6344 195.566 34.9012 195.59 35.1437C195.736 35.2165 195.869 35.265 195.99 35.2892C196.136 35.3135 196.269 35.3256 196.391 35.3256C196.779 35.3256 197.045 35.1801 197.191 34.8891C197.361 34.598 197.446 34.2099 197.446 33.7249C197.446 31.6876 197.506 29.6745 197.627 27.6857C197.749 25.6726 197.894 23.7808 198.064 22.0103C198.258 20.2398 198.464 18.6391 198.682 17.2081C198.925 15.7771 199.143 14.6129 199.337 13.7155C200.405 12.9394 201.605 12.3937 202.939 12.0784C204.297 11.7389 205.777 11.5691 207.377 11.5691C209.051 11.5691 210.518 11.7631 211.78 12.1512C213.041 12.515 214.084 13.0001 214.908 13.6064C215.757 14.2127 216.388 14.904 216.8 15.6801C217.237 16.4562 217.455 17.2566 217.455 18.0812C217.455 18.2267 217.406 18.7118 217.309 19.5364C217.212 20.3368 217.055 21.404 216.836 22.7379C216.642 24.0719 216.388 25.6363 216.072 27.431C215.781 29.2016 215.418 31.1055 214.981 33.1428C214.569 35.1801 214.096 37.3266 213.562 39.5822C213.053 41.8135 212.483 44.0691 211.852 46.3489C210.785 50.181 209.488 53.2976 207.96 55.6988C206.456 58.1241 204.794 60.0159 202.975 61.3741C201.181 62.7566 199.289 63.7025 197.3 64.2118C195.311 64.7211 193.31 64.9758 191.297 64.9758C189.236 64.9758 187.453 64.709 185.949 64.1754C184.446 63.6661 183.196 62.9627 182.202 62.0654C181.232 61.1922 180.504 60.1736 180.019 59.0094C179.534 57.8452 179.292 56.6204 179.292 55.335C179.292 54.098 179.461 52.9217 179.801 51.806C180.165 50.6661 180.759 49.4898 181.584 48.2771C181.778 48.2286 182.032 48.1922 182.348 48.168C182.687 48.1437 183.002 48.1316 183.294 48.1316C184.021 48.1316 184.749 48.1801 185.476 48.2771C186.204 48.3499 186.786 48.4226 187.223 48.4954L192.934 49.5504C193.201 49.5989 193.468 49.6475 193.735 49.696C194.002 49.7445 194.268 49.7687 194.535 49.7687C194.947 49.7687 195.287 49.6838 195.554 49.5141C195.845 49.3443 195.99 48.9441 195.99 48.3135L187.405 46.6764C186.507 46.3126 185.573 45.6941 184.603 44.821C183.657 43.9478 182.76 42.7473 181.911 41.2193C181.062 39.667 180.286 37.7389 179.583 35.4348C178.904 33.1307 178.382 30.3779 178.018 27.1764C177.363 26.3275 176.806 25.2846 176.345 24.0476C175.86 22.7864 175.617 21.3797 175.617 19.8275C175.617 18.4935 175.787 17.1596 176.127 15.8256C176.466 14.4917 177.024 13.2426 177.8 12.0784H187.15Z" fill="white"/>
<path d="M156.842 2.32836C157.084 2.18284 157.472 1.97668 158.006 1.70989C158.54 1.4431 159.17 1.18843 159.898 0.945896C160.65 0.679105 161.499 0.46082 162.444 0.291044C163.39 0.0970144 164.397 0 165.464 0C167.21 0 168.702 0.194031 169.939 0.58209C171.2 0.97015 172.231 1.51586 173.031 2.21922C173.832 2.89832 174.414 3.72295 174.777 4.6931C175.165 5.66325 175.36 6.74254 175.36 7.93097V33.5065C175.36 35.18 175.541 36.6231 175.905 37.8358C176.269 39.0243 176.96 39.9338 177.979 40.5644C178.003 40.7584 178.015 41.0009 178.015 41.292C178.015 41.5588 178.015 41.7649 178.015 41.9104C178.015 45.4272 177.118 48.0709 175.323 49.8414C173.553 51.6119 171.079 52.4972 167.901 52.4972C166.471 52.4972 165.088 52.291 163.754 51.8787C162.42 51.4664 161.244 50.7752 160.225 49.805C159.207 48.8349 158.382 47.5616 157.751 45.9851C157.145 44.4086 156.842 42.4562 156.842 40.1278V2.32836Z" fill="white"/>
<path d="M137.923 28.3406C138.529 28.3406 138.978 28.2193 139.269 27.9768C139.584 27.71 139.742 27.3705 139.742 26.9581C139.742 26.4731 139.56 26.1335 139.196 25.9395C138.857 25.7455 138.444 25.6484 137.959 25.6484C137.28 25.6484 136.735 25.8425 136.322 26.2305C135.934 26.5943 135.692 27.0915 135.595 27.7221C135.837 27.8677 136.153 28.0132 136.541 28.1587C136.929 28.28 137.389 28.3406 137.923 28.3406ZM138.396 52.9703C135.073 52.9703 132.066 52.4973 129.374 51.5514C126.681 50.5813 124.377 49.1988 122.461 47.404C120.569 45.585 119.102 43.3779 118.059 40.7828C117.041 38.1876 116.531 35.265 116.531 32.015C116.531 28.5953 117.077 25.5757 118.168 22.9563C119.284 20.3369 120.776 18.1419 122.643 16.3714C124.535 14.6009 126.73 13.2669 129.228 12.3695C131.726 11.4721 134.358 11.0234 137.123 11.0234C140.057 11.0234 142.701 11.46 145.054 12.3331C147.406 13.182 149.407 14.3583 151.056 15.8621C152.73 17.3658 154.015 19.1242 154.913 21.1372C155.81 23.1503 156.259 25.2968 156.259 27.5766C156.259 29.7352 155.871 31.5906 155.095 33.1428C154.343 34.6951 153.288 35.9805 151.93 36.9992C150.571 37.9936 148.958 38.7333 147.091 39.2184C145.223 39.7035 143.198 39.946 141.015 39.946C139.366 39.946 137.765 39.752 136.213 39.3639C134.685 38.9759 133.375 38.4544 132.284 37.7996C132.163 37.8966 132.078 38.03 132.029 38.1997C132.005 38.3453 131.993 38.4787 131.993 38.5999C131.993 38.9637 132.26 39.3275 132.793 39.6913C133.327 40.0309 134.018 40.3462 134.867 40.6372C135.716 40.904 136.686 41.1344 137.778 41.3285C138.869 41.4983 139.96 41.5831 141.052 41.5831C142.556 41.5831 143.926 41.4861 145.163 41.2921C146.4 41.0738 147.503 40.8191 148.473 40.5281C149.468 40.2128 150.329 39.8732 151.056 39.5094C151.784 39.1456 152.39 38.794 152.875 38.4544C153.191 38.7212 153.458 39.1214 153.676 39.655C153.918 40.1643 154.125 40.7343 154.294 41.3649C154.464 41.9955 154.585 42.6503 154.658 43.3294C154.755 43.9843 154.804 44.5906 154.804 45.1484C154.804 45.7063 154.767 46.2399 154.694 46.7492C154.646 47.2343 154.573 47.6587 154.476 48.0225C153.7 48.6774 152.851 49.308 151.93 49.9143C151.008 50.4964 149.917 51.0178 148.655 51.4787C147.394 51.9152 145.927 52.2669 144.253 52.5337C142.604 52.8247 140.652 52.9703 138.396 52.9703Z" fill="white"/>
<path d="M90.5545 12.0784C92.0582 12.0784 93.3073 12.321 94.3017 12.806C95.3203 13.2911 96.1207 13.9702 96.7028 14.8433C96.3875 15.1829 96.0843 15.5952 95.7933 16.0803C95.5265 16.5654 95.284 17.0504 95.0657 17.5355C94.8716 17.9963 94.714 18.445 94.5927 18.8816C94.4715 19.2939 94.4108 19.6213 94.4108 19.8639C94.4108 20.1549 94.52 20.4217 94.7383 20.6642C94.9565 20.8825 95.2961 20.9917 95.7569 20.9917C96.2177 19.1969 96.8605 17.6932 97.6851 16.4805C98.534 15.2678 99.492 14.2976 100.559 13.57C101.651 12.8424 102.815 12.3331 104.052 12.042C105.313 11.7267 106.586 11.5691 107.872 11.5691C108.915 11.5691 109.873 11.6419 110.746 11.7874C111.619 11.9086 112.407 12.0784 113.11 12.2967C113.814 12.515 114.432 12.7697 114.966 13.0607C115.499 13.3275 115.948 13.5943 116.312 13.8611C116.7 14.8797 116.979 15.959 117.149 17.0989C117.318 18.2389 117.403 19.3545 117.403 20.446C117.403 22.4105 117.221 24.0476 116.858 25.3573C116.518 26.667 116.142 27.7463 115.73 28.5952C115.342 28.7892 114.857 28.9833 114.275 29.1773C113.693 29.3713 113.05 29.5411 112.346 29.6866C111.667 29.8322 110.94 29.9534 110.164 30.0504C109.388 30.1232 108.624 30.1596 107.872 30.1596C107.071 30.1596 106.356 30.1353 105.725 30.0868C105.119 30.0383 104.561 29.9777 104.052 29.9049C103.542 29.8079 103.069 29.7109 102.633 29.6139C102.221 29.4926 101.796 29.3835 101.36 29.2864C101.165 29.4805 101.068 29.7594 101.068 30.1232C101.068 30.4627 101.287 30.7295 101.723 30.9236C102.184 31.1176 102.997 31.3238 104.161 31.542V49.8051C103.336 50.3387 102.499 50.7752 101.651 51.1148C100.802 51.4301 99.9649 51.6726 99.1403 51.8424C98.3399 52.0364 97.5638 52.1577 96.8119 52.2062C96.0843 52.279 95.4052 52.3154 94.7746 52.3154C93.4164 52.3154 92.1431 52.182 90.9547 51.9152C89.7662 51.6726 88.7233 51.2967 87.8259 50.7874C86.9528 50.2538 86.2616 49.5868 85.7522 48.7864C85.2429 47.9861 84.9883 47.028 84.9883 45.9124V27.1764C84.2606 26.1577 83.7149 25.0057 83.3511 23.7202C83.0116 22.4348 82.8418 21.0887 82.8418 19.682C82.8418 18.5178 83.0116 17.2323 83.3511 15.8256C83.7149 14.4189 84.2606 13.1698 84.9883 12.0784H90.5545Z" fill="white"/>
<path d="M62.9042 35.6167C62.3464 35.6167 61.9462 35.7622 61.7037 36.0533C61.4854 36.3201 61.3762 36.6354 61.3762 36.9992C61.3762 37.4842 61.546 37.8238 61.8856 38.0178C62.2494 38.2119 62.6738 38.3089 63.1589 38.3089C63.935 38.3089 64.5292 38.1148 64.9415 37.7268C65.3538 37.3387 65.56 36.6354 65.56 35.6167H62.9042ZM81.7857 33.8341C81.7857 35.5076 81.9676 36.89 82.3315 37.9814C82.6953 39.0729 83.3865 39.9339 84.4051 40.5645C84.4294 40.7585 84.4415 41.001 84.4415 41.2921C84.4415 41.5589 84.4415 41.765 84.4415 41.9105C84.4415 43.7538 84.1505 45.3424 83.5684 46.6764C82.9863 48.0104 82.2223 49.1139 81.2764 49.987C80.3548 50.8359 79.2997 51.4665 78.1113 51.8788C76.9229 52.2911 75.7102 52.4973 74.4732 52.4973C73.6001 52.4973 72.7391 52.3882 71.8902 52.1699C71.0656 51.9758 70.2773 51.6727 69.5255 51.2604C68.7979 50.848 68.1309 50.3266 67.5245 49.696C66.9425 49.0411 66.4816 48.2772 66.1421 47.404C65.7298 47.404 65.4145 47.5132 65.1962 47.7314C65.0022 47.9497 64.9051 48.2408 64.9051 48.6046C64.9051 48.9441 65.0143 49.3079 65.2326 49.696C65.4509 50.0841 65.7662 50.4842 66.1785 50.8966C65.4023 51.4301 64.3594 51.8303 63.0497 52.0971C61.74 52.3639 60.4061 52.4973 59.0479 52.4973C56.8408 52.4973 54.8277 52.1941 53.0087 51.5878C51.2139 50.9814 49.6617 50.0841 48.352 48.8956C47.0665 47.7072 46.06 46.2641 45.3324 44.5663C44.629 42.8443 44.2773 40.8676 44.2773 38.6363C44.2773 36.3322 44.6533 34.3434 45.4051 32.6699C46.1813 30.9721 47.2242 29.5775 48.5339 28.4861C49.8436 27.3704 51.3594 26.5458 53.0815 26.0122C54.8277 25.4786 56.671 25.2119 58.6113 25.2119C59.4844 25.2119 60.2606 25.2482 60.9397 25.321C61.6188 25.3695 62.2009 25.4301 62.6859 25.5029C63.2438 25.5999 63.7167 25.6969 64.1048 25.7939C64.1775 25.5514 64.2139 25.3452 64.2139 25.1755C64.2139 24.8602 64.0441 24.5934 63.7046 24.3751C63.3893 24.1568 62.9648 23.9992 62.4313 23.9021C61.8977 23.7809 61.2792 23.696 60.5759 23.6475C59.8725 23.599 59.157 23.5747 58.4294 23.5747C56.7801 23.5747 55.1309 23.7566 53.4816 24.1204C51.8324 24.4842 50.3529 25.0421 49.0432 25.7939C48.5096 24.8966 48.0731 23.7566 47.7335 22.3742C47.4182 20.9917 47.2606 19.585 47.2606 18.154C47.2606 17.4749 47.2969 16.7958 47.3697 16.1167C47.4667 15.4133 47.6486 14.7949 47.9154 14.2613C48.546 13.9702 49.3464 13.6549 50.3165 13.3154C51.3109 12.9516 52.4509 12.6242 53.7363 12.3331C55.046 12.0178 56.477 11.751 58.0292 11.5327C59.6057 11.3145 61.2913 11.2053 63.0861 11.2053C66.2148 11.2053 68.9434 11.557 71.2718 12.2604C73.6244 12.9637 75.5768 13.9824 77.129 15.3163C78.6813 16.626 79.8454 18.251 80.6216 20.1913C81.3977 22.1074 81.7857 24.2781 81.7857 26.7035V33.8341Z" fill="white"/>
<path d="M24.3022 52.8245C20.6157 52.8245 17.2808 52.2788 14.2976 51.1874C11.3144 50.0717 8.7556 48.4588 6.62127 46.3487C4.51119 44.2144 2.87407 41.6071 1.70989 38.5269C0.569963 35.4224 0 31.8935 0 27.9402C0 23.8655 0.654851 20.3245 1.96455 17.317C3.29851 14.2853 5.0569 11.7629 7.23974 9.74987C9.44683 7.73681 11.9692 6.23308 14.8069 5.23867C17.6688 4.24427 20.6278 3.74707 23.6838 3.74707C26.764 3.74707 29.5896 4.14726 32.1604 4.94763C34.7313 5.748 36.9263 6.83942 38.7453 8.22188C40.5886 9.60435 42.0196 11.2293 43.0382 13.0969C44.0569 14.9644 44.5662 16.9775 44.5662 19.1361C44.5662 20.8581 44.2873 22.3254 43.7295 23.5381C43.1716 24.7508 42.3955 25.7452 41.4011 26.5213C40.431 27.2732 39.2547 27.831 37.8722 28.1948C36.4897 28.5586 34.986 28.7405 33.361 28.7405C32.3424 28.7405 31.3237 28.6071 30.305 28.3404C29.3106 28.0493 28.389 27.6976 27.5401 27.2853C26.6912 26.873 25.9636 26.4364 25.3573 25.9756C24.7752 25.4905 24.3993 25.0661 24.2295 24.7023C24.2295 24.0717 24.2295 23.3441 24.2295 22.5195C24.2537 21.6948 24.2901 20.8581 24.3386 20.0092C24.2659 19.9849 24.1688 19.9728 24.0476 19.9728C23.9506 19.9728 23.8778 19.9728 23.8293 19.9728C23.4655 19.9728 23.1744 20.082 22.9562 20.3002C22.7621 20.4943 22.6045 20.8581 22.4832 21.3917C22.3619 21.901 22.2771 22.6043 22.2285 23.5017C22.2043 24.3991 22.1922 25.539 22.1922 26.9215C22.1922 28.789 22.2285 30.3898 22.3013 31.7237C22.3983 33.0335 22.5196 34.1127 22.6651 34.9616C22.8106 35.7862 22.9925 36.3926 23.2108 36.7807C23.4291 37.1687 23.6716 37.3627 23.9384 37.3627C24.181 37.3627 24.3993 37.3021 24.5933 37.1808V33.8702C25.4422 33.2881 26.4851 32.7667 27.722 32.3058C28.959 31.845 30.2687 31.457 31.6511 31.1417C33.0578 30.8021 34.5009 30.5474 35.9804 30.3777C37.4599 30.1836 38.8666 30.0866 40.2006 30.0866C40.8554 30.7657 41.4496 31.6267 41.9832 32.6696C42.541 33.7126 43.014 34.8404 43.4021 36.053C43.8144 37.2415 44.1418 38.4542 44.3843 39.6911C44.6269 40.9038 44.7603 42.0195 44.7845 43.0381C44.3237 43.9355 43.5354 44.9542 42.4198 46.0941C41.3041 47.2098 39.8853 48.2769 38.1632 49.2956C36.4412 50.29 34.416 51.1267 32.0877 51.8058C29.7593 52.4849 27.1642 52.8245 24.3022 52.8245Z" fill="white"/>
</svg>
