<svg width="218" height="124" viewBox="0 0 218 124" fill="none" xmlns="http://www.w3.org/2000/svg">
<path d="M147.77 43.9489C147.008 43.9489 146.15 43.8536 145.198 43.6631C142.276 42.9008 140.052 41.154 138.528 38.4227C136.749 39.1214 134.907 39.2802 133.002 38.8991C131.033 38.4545 129.349 37.4381 127.952 35.8502C126.237 33.8811 125.475 31.5943 125.665 28.99C125.792 26.3222 126.84 24.1308 128.81 22.4158C129.508 21.8441 130.27 21.1771 131.096 20.4149C131.858 19.5891 132.684 18.7634 133.573 17.9376C135.098 16.4132 136.686 14.8569 138.337 13.2689C140.052 11.681 141.704 10.2835 143.292 9.07666C144.372 8.2509 145.388 7.52043 146.341 6.88523C147.357 6.25004 148.31 5.71012 149.199 5.26548C152.502 3.67749 155.742 3.23286 158.918 3.93157C162.538 4.94789 165.047 7.26635 166.445 10.887C167.334 13.4278 167.302 16.0956 166.35 18.8904C166.223 19.208 166.096 19.5256 165.968 19.8432C165.841 20.1608 165.683 20.5102 165.492 20.8913C167.779 21.9711 169.43 23.7497 170.447 26.2269C171.336 28.7677 171.241 31.245 170.161 33.6587C169.081 36.009 167.271 37.6287 164.73 38.518C162.761 39.2802 160.95 39.9789 159.299 40.6141C157.647 41.1858 156.25 41.6622 155.107 42.0433C154.471 42.2974 153.868 42.5197 153.296 42.7103C152.788 42.9008 152.375 43.0596 152.058 43.1867C151.422 43.3137 150.756 43.4725 150.057 43.6631C149.358 43.8536 148.596 43.9489 147.77 43.9489Z" fill="white"/>
<path d="M118.554 52.4291C117.41 52.4291 116.203 52.2703 114.933 51.9527C112.075 51.2539 110.042 49.6342 108.835 47.0934C108.009 45.4419 107.628 43.9492 107.692 42.6153C107.819 41.2179 107.914 40.2015 107.978 39.5663C108.041 39.2487 108.105 38.9312 108.168 38.6136C108.295 38.2324 108.39 37.8513 108.454 37.4702C108.009 37.7243 107.596 37.9466 107.215 38.1372C106.834 38.2642 106.421 38.3912 105.977 38.5183C104.96 38.8994 103.88 39.0899 102.737 39.0899C100.768 39.0899 98.9577 38.55 97.3062 37.4702C95.6547 36.3269 94.4796 34.7706 93.7809 32.8015C92.9551 30.3878 93.0822 27.974 94.162 25.5603C95.2418 23.1465 97.0204 21.495 99.4976 20.6058C99.7517 20.5422 100.323 20.2882 101.213 19.8435C102.102 19.3354 103.436 18.4143 105.214 17.0804C107.056 15.7465 109.438 13.8092 112.36 11.2684C114.901 9.04519 117.061 7.10784 118.839 5.45633C120.618 3.7413 121.539 2.85203 121.602 2.78851C122.809 1.58164 124.207 0.755884 125.795 0.311247C127.446 -0.13339 129.098 -0.101633 130.749 0.406523C133.481 1.10524 135.45 2.69323 136.657 5.17049C137.038 5.80569 137.355 6.79024 137.609 8.12415C137.927 9.39454 137.832 10.8555 137.324 12.507C137.324 12.5705 137.292 12.634 137.228 12.6976C137.165 12.7611 137.133 12.8564 137.133 12.9834C137.069 13.1104 137.006 13.2692 136.942 13.4598C136.942 13.6504 136.911 13.8092 136.847 13.9362C136.72 14.3808 136.53 14.8572 136.275 15.3654C136.085 15.8735 135.863 16.477 135.609 17.1757C135.354 17.8109 135.069 18.5731 134.751 19.4624C134.497 20.2882 134.179 21.1457 133.798 22.0349C133.925 21.9714 134.052 21.9079 134.179 21.8444C134.306 21.7173 134.433 21.6221 134.56 21.5585C136.784 20.0976 139.166 19.653 141.706 20.2246C144.247 20.7328 146.216 22.0985 147.614 24.3216C149.138 26.4813 149.615 28.8633 149.043 31.4676C148.535 34.0719 147.169 36.1045 144.946 37.5655C143.421 38.5818 141.96 39.5981 140.563 40.6144C139.229 41.5672 137.863 42.5835 136.466 43.6634C134.878 44.8702 133.385 45.9818 131.988 46.9981C130.654 48.0145 129.288 48.9037 127.891 49.666C126.875 50.2376 125.922 50.6823 125.033 50.9999C124.143 51.381 123.254 51.6986 122.365 51.9527C120.967 52.2703 119.697 52.4291 118.554 52.4291Z" fill="white"/>
<path d="M63.84 53.0003C63.1413 53.0003 62.4743 52.9685 61.8391 52.905C61.2675 52.905 60.8228 52.8732 60.5052 52.8097C58.7267 52.3015 57.1387 51.4758 55.7413 50.3324C54.3438 49.2526 53.2957 47.9187 52.597 46.3307C52.1524 45.4414 51.8666 44.6474 51.7395 43.9487C51.6125 43.1865 51.549 42.4242 51.549 41.662C51.549 40.6457 51.6442 39.6611 51.8348 38.7084C51.2631 38.3272 50.6597 37.9144 50.0245 37.4697C49.3893 36.9616 48.9129 36.4852 48.5953 36.0405C47.0708 34.0079 46.3086 31.8482 46.3086 29.5615C46.3086 28.0371 46.658 26.5761 47.3567 25.1787C47.9919 23.7812 48.8811 22.5744 50.0245 21.5581C50.3421 21.2405 50.9455 20.637 51.8348 19.7478C52.6606 18.8585 53.4228 17.9692 54.1215 17.0799L56.0271 14.9838C56.9164 14.031 57.8374 13.0464 58.7902 12.0301C59.743 11.0138 60.6323 10.0928 61.458 9.26702C62.4743 8.37775 63.3636 7.61551 64.1258 6.98032C64.8881 6.34512 65.555 5.83697 66.1267 5.45585C69.4297 3.42322 72.8598 2.78802 76.4169 3.55026C80.101 4.50305 82.5465 6.56744 83.7534 9.74342L83.6581 9.64814C83.9122 10.2198 84.1027 10.7915 84.2298 11.3632C84.4203 11.8713 84.5474 12.4112 84.6109 12.9829C85.5002 12.0301 86.2942 11.1409 86.9929 10.3151C87.6916 9.42582 88.3268 8.63183 88.8985 7.93311L90.2324 6.40864C90.3594 6.2816 90.4547 6.15456 90.5182 6.02752C90.6453 5.83696 90.7088 5.74169 90.7088 5.74169C92.1697 4.02666 93.8848 2.81979 95.8539 2.12107C97.8865 1.35884 99.9191 1.2318 101.952 1.73995C103.349 2.12107 104.62 2.81978 105.763 3.8361C106.97 4.85241 107.954 6.02752 108.717 7.36144C109.606 9.39406 109.987 11.1408 109.86 12.6018C109.796 13.9992 109.701 14.952 109.574 15.4602C109.511 15.7143 109.415 16.0001 109.288 16.3177C109.225 16.6353 109.161 16.9211 109.098 17.1752L108.526 18.9855L108.431 19.2714C109.701 19.3349 110.972 19.6842 112.242 20.3194C113.512 20.8911 114.56 21.6851 115.386 22.7014C116.212 23.7177 116.815 24.8293 117.196 26.0362C117.641 27.2431 117.863 28.4182 117.863 29.5615C117.863 32.7375 116.561 35.4371 113.957 37.6603L113.481 38.1367C112.147 39.28 110.717 40.4234 109.193 41.5667C107.732 42.7101 106.176 43.7899 104.524 44.8062C100.777 47.0294 97.0925 48.141 93.4719 48.141C91.9474 48.141 90.423 47.9187 88.8985 47.474C87.7551 47.22 86.6753 46.7753 85.659 46.1401C84.7062 45.5049 83.8804 44.7745 83.1817 43.9487C82.4195 44.5839 81.689 45.1874 80.9903 45.759C80.2916 46.2672 79.4976 46.8071 78.6083 47.3788H78.7036C77.2426 48.3951 75.8452 49.2526 74.5113 49.9513C73.1774 50.65 71.907 51.2535 70.7001 51.7616C69.6838 52.2063 68.5405 52.5239 67.2701 52.7144C66.0632 52.905 64.9198 53.0003 63.84 53.0003Z" fill="white"/>
<path d="M187.15 71.0784C188.872 71.0784 190.291 71.3331 191.406 71.8424C192.546 72.3275 193.456 72.9702 194.135 73.7706C194.838 74.571 195.348 75.4805 195.663 76.4991C196.002 77.5178 196.233 78.5607 196.354 79.6279C196.281 80.1857 196.196 80.9376 196.099 81.8835C196.002 82.8051 195.905 83.848 195.808 85.0122C195.736 86.1521 195.675 87.3648 195.627 88.6502C195.578 89.9357 195.554 91.209 195.554 92.4702C195.554 92.737 195.554 93.028 195.554 93.3433C195.554 93.6344 195.566 93.9012 195.59 94.1437C195.736 94.2165 195.869 94.265 195.99 94.2892C196.136 94.3135 196.269 94.3256 196.391 94.3256C196.779 94.3256 197.045 94.1801 197.191 93.8891C197.361 93.598 197.446 93.2099 197.446 92.7249C197.446 90.6876 197.506 88.6745 197.627 86.6857C197.749 84.6726 197.894 82.7808 198.064 81.0103C198.258 79.2398 198.464 77.6391 198.682 76.2081C198.925 74.7771 199.143 73.6129 199.337 72.7155C200.405 71.9394 201.605 71.3937 202.939 71.0784C204.297 70.7389 205.777 70.5691 207.377 70.5691C209.051 70.5691 210.518 70.7631 211.78 71.1512C213.041 71.515 214.084 72.0001 214.908 72.6064C215.757 73.2127 216.388 73.904 216.8 74.6801C217.237 75.4562 217.455 76.2566 217.455 77.0812C217.455 77.2267 217.406 77.7118 217.309 78.5364C217.212 79.3368 217.055 80.404 216.836 81.7379C216.642 83.0719 216.388 84.6363 216.072 86.431C215.781 88.2016 215.418 90.1055 214.981 92.1428C214.569 94.1801 214.096 96.3266 213.562 98.5822C213.053 100.813 212.483 103.069 211.852 105.349C210.785 109.181 209.488 112.298 207.96 114.699C206.456 117.124 204.794 119.016 202.975 120.374C201.181 121.757 199.289 122.702 197.3 123.212C195.311 123.721 193.31 123.976 191.297 123.976C189.236 123.976 187.453 123.709 185.949 123.175C184.446 122.666 183.196 121.963 182.202 121.065C181.232 120.192 180.504 119.174 180.019 118.009C179.534 116.845 179.292 115.62 179.292 114.335C179.292 113.098 179.461 111.922 179.801 110.806C180.165 109.666 180.759 108.49 181.584 107.277C181.778 107.229 182.032 107.192 182.348 107.168C182.687 107.144 183.002 107.132 183.294 107.132C184.021 107.132 184.749 107.18 185.476 107.277C186.204 107.35 186.786 107.423 187.223 107.495L192.934 108.55C193.201 108.599 193.468 108.647 193.735 108.696C194.002 108.744 194.268 108.769 194.535 108.769C194.947 108.769 195.287 108.684 195.554 108.514C195.845 108.344 195.99 107.944 195.99 107.313L187.405 105.676C186.507 105.313 185.573 104.694 184.603 103.821C183.657 102.948 182.76 101.747 181.911 100.219C181.062 98.667 180.286 96.7389 179.583 94.4348C178.904 92.1307 178.382 89.3779 178.018 86.1764C177.363 85.3275 176.806 84.2846 176.345 83.0476C175.86 81.7864 175.617 80.3797 175.617 78.8275C175.617 77.4935 175.787 76.1596 176.127 74.8256C176.466 73.4917 177.024 72.2426 177.8 71.0784H187.15Z" fill="white"/>
<path d="M156.842 61.3284C157.084 61.1828 157.472 60.9767 158.006 60.7099C158.54 60.4431 159.17 60.1884 159.898 59.9459C160.65 59.6791 161.499 59.4608 162.444 59.291C163.39 59.097 164.397 59 165.464 59C167.21 59 168.702 59.194 169.939 59.5821C171.2 59.9702 172.231 60.5159 173.031 61.2192C173.832 61.8983 174.414 62.7229 174.777 63.6931C175.165 64.6632 175.36 65.7425 175.36 66.931V92.5065C175.36 94.18 175.541 95.6231 175.905 96.8358C176.269 98.0243 176.96 98.9338 177.979 99.5644C178.003 99.7584 178.015 100.001 178.015 100.292C178.015 100.559 178.015 100.765 178.015 100.91C178.015 104.427 177.118 107.071 175.323 108.841C173.553 110.612 171.079 111.497 167.901 111.497C166.471 111.497 165.088 111.291 163.754 110.879C162.42 110.466 161.244 109.775 160.225 108.805C159.207 107.835 158.382 106.562 157.751 104.985C157.145 103.409 156.842 101.456 156.842 99.1278V61.3284Z" fill="white"/>
<path d="M137.923 87.3406C138.529 87.3406 138.978 87.2193 139.269 86.9768C139.584 86.71 139.742 86.3705 139.742 85.9581C139.742 85.4731 139.56 85.1335 139.196 84.9395C138.857 84.7455 138.444 84.6484 137.959 84.6484C137.28 84.6484 136.735 84.8425 136.322 85.2305C135.934 85.5943 135.692 86.0915 135.595 86.7221C135.837 86.8677 136.153 87.0132 136.541 87.1587C136.929 87.28 137.389 87.3406 137.923 87.3406ZM138.396 111.97C135.073 111.97 132.066 111.497 129.374 110.551C126.681 109.581 124.377 108.199 122.461 106.404C120.569 104.585 119.102 102.378 118.059 99.7828C117.041 97.1876 116.531 94.265 116.531 91.015C116.531 87.5953 117.077 84.5757 118.168 81.9563C119.284 79.3369 120.776 77.1419 122.643 75.3714C124.535 73.6009 126.73 72.2669 129.228 71.3695C131.726 70.4721 134.358 70.0234 137.123 70.0234C140.057 70.0234 142.701 70.46 145.054 71.3331C147.406 72.182 149.407 73.3583 151.056 74.8621C152.73 76.3658 154.015 78.1242 154.913 80.1372C155.81 82.1503 156.259 84.2968 156.259 86.5766C156.259 88.7352 155.871 90.5906 155.095 92.1428C154.343 93.6951 153.288 94.9805 151.93 95.9992C150.571 96.9936 148.958 97.7333 147.091 98.2184C145.223 98.7035 143.198 98.946 141.015 98.946C139.366 98.946 137.765 98.752 136.213 98.3639C134.685 97.9759 133.375 97.4544 132.284 96.7996C132.163 96.8966 132.078 97.03 132.029 97.1997C132.005 97.3453 131.993 97.4787 131.993 97.5999C131.993 97.9637 132.26 98.3275 132.793 98.6913C133.327 99.0309 134.018 99.3462 134.867 99.6372C135.716 99.904 136.686 100.134 137.778 100.328C138.869 100.498 139.96 100.583 141.052 100.583C142.556 100.583 143.926 100.486 145.163 100.292C146.4 100.074 147.503 99.8191 148.473 99.5281C149.468 99.2128 150.329 98.8732 151.056 98.5094C151.784 98.1456 152.39 97.794 152.875 97.4544C153.191 97.7212 153.458 98.1214 153.676 98.655C153.918 99.1643 154.125 99.7343 154.294 100.365C154.464 100.995 154.585 101.65 154.658 102.329C154.755 102.984 154.804 103.591 154.804 104.148C154.804 104.706 154.767 105.24 154.694 105.749C154.646 106.234 154.573 106.659 154.476 107.023C153.7 107.677 152.851 108.308 151.93 108.914C151.008 109.496 149.917 110.018 148.655 110.479C147.394 110.915 145.927 111.267 144.253 111.534C142.604 111.825 140.652 111.97 138.396 111.97Z" fill="white"/>
<path d="M90.5545 71.0784C92.0582 71.0784 93.3073 71.321 94.3017 71.806C95.3203 72.2911 96.1207 72.9702 96.7028 73.8433C96.3875 74.1829 96.0843 74.5952 95.7933 75.0803C95.5265 75.5654 95.284 76.0504 95.0657 76.5355C94.8716 76.9963 94.714 77.445 94.5927 77.8816C94.4715 78.2939 94.4108 78.6213 94.4108 78.8639C94.4108 79.1549 94.52 79.4217 94.7383 79.6642C94.9565 79.8825 95.2961 79.9917 95.7569 79.9917C96.2177 78.1969 96.8605 76.6932 97.6851 75.4805C98.534 74.2678 99.492 73.2976 100.559 72.57C101.651 71.8424 102.815 71.3331 104.052 71.042C105.313 70.7267 106.586 70.5691 107.872 70.5691C108.915 70.5691 109.873 70.6419 110.746 70.7874C111.619 70.9086 112.407 71.0784 113.11 71.2967C113.814 71.515 114.432 71.7697 114.966 72.0607C115.499 72.3275 115.948 72.5943 116.312 72.8611C116.7 73.8797 116.979 74.959 117.149 76.0989C117.318 77.2389 117.403 78.3545 117.403 79.446C117.403 81.4105 117.221 83.0476 116.858 84.3573C116.518 85.667 116.142 86.7463 115.73 87.5952C115.342 87.7892 114.857 87.9833 114.275 88.1773C113.693 88.3713 113.05 88.5411 112.346 88.6866C111.667 88.8322 110.94 88.9534 110.164 89.0504C109.388 89.1232 108.624 89.1596 107.872 89.1596C107.071 89.1596 106.356 89.1353 105.725 89.0868C105.119 89.0383 104.561 88.9777 104.052 88.9049C103.542 88.8079 103.069 88.7109 102.633 88.6139C102.221 88.4926 101.796 88.3835 101.36 88.2864C101.165 88.4805 101.068 88.7594 101.068 89.1232C101.068 89.4627 101.287 89.7295 101.723 89.9236C102.184 90.1176 102.997 90.3238 104.161 90.542V108.805C103.336 109.339 102.499 109.775 101.651 110.115C100.802 110.43 99.9649 110.673 99.1403 110.842C98.3399 111.036 97.5638 111.158 96.8119 111.206C96.0843 111.279 95.4052 111.315 94.7746 111.315C93.4164 111.315 92.1431 111.182 90.9547 110.915C89.7662 110.673 88.7233 110.297 87.8259 109.787C86.9528 109.254 86.2616 108.587 85.7522 107.786C85.2429 106.986 84.9883 106.028 84.9883 104.912V86.1764C84.2606 85.1577 83.7149 84.0057 83.3511 82.7202C83.0116 81.4348 82.8418 80.0887 82.8418 78.682C82.8418 77.5178 83.0116 76.2323 83.3511 74.8256C83.7149 73.4189 84.2606 72.1698 84.9883 71.0784H90.5545Z" fill="white"/>
<path d="M62.9042 94.6167C62.3464 94.6167 61.9462 94.7622 61.7037 95.0533C61.4854 95.3201 61.3762 95.6354 61.3762 95.9992C61.3762 96.4842 61.546 96.8238 61.8856 97.0178C62.2494 97.2119 62.6738 97.3089 63.1589 97.3089C63.935 97.3089 64.5292 97.1148 64.9415 96.7268C65.3538 96.3387 65.56 95.6354 65.56 94.6167H62.9042ZM81.7857 92.8341C81.7857 94.5076 81.9676 95.89 82.3315 96.9814C82.6953 98.0729 83.3865 98.9339 84.4051 99.5645C84.4294 99.7585 84.4415 100.001 84.4415 100.292C84.4415 100.559 84.4415 100.765 84.4415 100.911C84.4415 102.754 84.1505 104.342 83.5684 105.676C82.9863 107.01 82.2223 108.114 81.2764 108.987C80.3548 109.836 79.2997 110.467 78.1113 110.879C76.9229 111.291 75.7102 111.497 74.4732 111.497C73.6001 111.497 72.7391 111.388 71.8902 111.17C71.0656 110.976 70.2773 110.673 69.5255 110.26C68.7979 109.848 68.1309 109.327 67.5245 108.696C66.9425 108.041 66.4816 107.277 66.1421 106.404C65.7298 106.404 65.4145 106.513 65.1962 106.731C65.0022 106.95 64.9051 107.241 64.9051 107.605C64.9051 107.944 65.0143 108.308 65.2326 108.696C65.4508 109.084 65.7662 109.484 66.1785 109.897C65.4023 110.43 64.3594 110.83 63.0497 111.097C61.74 111.364 60.4061 111.497 59.0479 111.497C56.8408 111.497 54.8277 111.194 53.0087 110.588C51.2139 109.981 49.6617 109.084 48.352 107.896C47.0665 106.707 46.06 105.264 45.3324 103.566C44.629 101.844 44.2773 99.8676 44.2773 97.6363C44.2773 95.3322 44.6533 93.3434 45.4051 91.6699C46.1813 89.9721 47.2242 88.5775 48.5339 87.4861C49.8436 86.3704 51.3594 85.5458 53.0815 85.0122C54.8277 84.4786 56.671 84.2119 58.6113 84.2119C59.4844 84.2119 60.2606 84.2482 60.9397 84.321C61.6188 84.3695 62.2009 84.4301 62.6859 84.5029C63.2438 84.5999 63.7167 84.6969 64.1048 84.7939C64.1775 84.5514 64.2139 84.3452 64.2139 84.1755C64.2139 83.8602 64.0441 83.5934 63.7046 83.3751C63.3893 83.1568 62.9648 82.9992 62.4313 82.9021C61.8977 82.7809 61.2792 82.696 60.5759 82.6475C59.8725 82.599 59.157 82.5747 58.4294 82.5747C56.7801 82.5747 55.1309 82.7566 53.4816 83.1204C51.8324 83.4842 50.3529 84.0421 49.0432 84.7939C48.5096 83.8966 48.0731 82.7566 47.7335 81.3742C47.4182 79.9917 47.2606 78.585 47.2606 77.154C47.2606 76.4749 47.2969 75.7958 47.3697 75.1167C47.4667 74.4133 47.6486 73.7949 47.9154 73.2613C48.546 72.9702 49.3464 72.6549 50.3165 72.3154C51.3109 71.9516 52.4509 71.6242 53.7363 71.3331C55.046 71.0178 56.477 70.751 58.0292 70.5327C59.6057 70.3145 61.2913 70.2053 63.0861 70.2053C66.2148 70.2053 68.9434 70.557 71.2718 71.2604C73.6244 71.9637 75.5768 72.9824 77.129 74.3163C78.6813 75.626 79.8454 77.251 80.6216 79.1913C81.3977 81.1074 81.7857 83.2781 81.7857 85.7035V92.8341Z" fill="white"/>
<path d="M24.3022 111.824C20.6157 111.824 17.2808 111.279 14.2976 110.187C11.3144 109.072 8.7556 107.459 6.62127 105.349C4.51119 103.214 2.87407 100.607 1.70989 97.5269C0.569963 94.4224 0 90.8935 0 86.9402C0 82.8655 0.654851 79.3245 1.96455 76.317C3.29851 73.2853 5.0569 70.7629 7.23974 68.7499C9.44683 66.7368 11.9692 65.2331 14.8069 64.2387C17.6688 63.2443 20.6278 62.7471 23.6838 62.7471C26.764 62.7471 29.5896 63.1473 32.1604 63.9476C34.7313 64.748 36.9263 65.8394 38.7453 67.2219C40.5886 68.6043 42.0196 70.2293 43.0382 72.0969C44.0569 73.9644 44.5662 75.9775 44.5662 78.1361C44.5662 79.8581 44.2873 81.3254 43.7295 82.5381C43.1716 83.7508 42.3955 84.7452 41.4011 85.5213C40.431 86.2732 39.2547 86.831 37.8722 87.1948C36.4897 87.5586 34.986 87.7405 33.361 87.7405C32.3424 87.7405 31.3237 87.6071 30.305 87.3404C29.3106 87.0493 28.389 86.6976 27.5401 86.2853C26.6912 85.873 25.9636 85.4364 25.3573 84.9756C24.7752 84.4905 24.3993 84.0661 24.2295 83.7023C24.2295 83.0717 24.2295 82.3441 24.2295 81.5195C24.2537 80.6948 24.2901 79.8581 24.3386 79.0092C24.2659 78.9849 24.1688 78.9728 24.0476 78.9728C23.9506 78.9728 23.8778 78.9728 23.8293 78.9728C23.4655 78.9728 23.1744 79.082 22.9562 79.3002C22.7621 79.4943 22.6045 79.8581 22.4832 80.3917C22.3619 80.901 22.2771 81.6043 22.2285 82.5017C22.2043 83.3991 22.1922 84.539 22.1922 85.9215C22.1922 87.789 22.2285 89.3898 22.3013 90.7237C22.3983 92.0335 22.5196 93.1127 22.6651 93.9616C22.8106 94.7862 22.9925 95.3926 23.2108 95.7807C23.4291 96.1687 23.6716 96.3627 23.9384 96.3627C24.181 96.3627 24.3993 96.3021 24.5933 96.1808V92.8702C25.4422 92.2881 26.4851 91.7667 27.722 91.3058C28.959 90.845 30.2687 90.457 31.6511 90.1417C33.0578 89.8021 34.5009 89.5474 35.9804 89.3777C37.4599 89.1836 38.8666 89.0866 40.2006 89.0866C40.8554 89.7657 41.4496 90.6267 41.9832 91.6696C42.541 92.7126 43.014 93.8404 43.4021 95.053C43.8144 96.2415 44.1418 97.4542 44.3843 98.6911C44.6269 99.9038 44.7603 101.019 44.7845 102.038C44.3237 102.936 43.5354 103.954 42.4198 105.094C41.3041 106.21 39.8853 107.277 38.1632 108.296C36.4412 109.29 34.416 110.127 32.0877 110.806C29.7593 111.485 27.1642 111.824 24.3022 111.824Z" fill="white"/>
</svg>
