<svg width="335" height="172" viewBox="0 0 335 172" fill="none" xmlns="http://www.w3.org/2000/svg">
<rect width="335" height="172" rx="8" fill="#F7F8F9"/>
<circle cx="167.5" cy="67" r="16" fill="#E5E7EB"/>
<path d="M175.5 58H160.5C160.102 58 159.721 58.158 159.439 58.4393C159.158 58.7206 159 59.1022 159 59.5V74.5C159 74.8978 159.158 75.2794 159.439 75.5607C159.721 75.842 160.102 76 160.5 76H175.5C175.898 76 176.279 75.842 176.561 75.5607C176.842 75.2794 177 74.8978 177 74.5V59.5C177 59.1022 176.842 58.7206 176.561 58.4393C176.279 58.158 175.898 58 175.5 58ZM160.5 59.5H175.5V66.7544L173.185 64.4388C172.904 64.1577 172.523 63.9998 172.125 63.9998C171.727 63.9998 171.346 64.1577 171.065 64.4388L161.003 74.5H160.5V59.5ZM175.5 74.5H163.125L172.125 65.5L175.5 68.875V74.5ZM165 66.25C165.445 66.25 165.88 66.118 166.25 65.8708C166.62 65.6236 166.908 65.2722 167.079 64.861C167.249 64.4499 167.294 63.9975 167.207 63.561C167.12 63.1246 166.906 62.7237 166.591 62.409C166.276 62.0943 165.875 61.88 165.439 61.7932C165.002 61.7064 164.55 61.751 164.139 61.9213C163.728 62.0916 163.376 62.38 163.129 62.75C162.882 63.12 162.75 63.555 162.75 64C162.75 64.5967 162.987 65.169 163.409 65.591C163.831 66.0129 164.403 66.25 165 66.25ZM165 63.25C165.148 63.25 165.293 63.294 165.417 63.3764C165.54 63.4588 165.636 63.5759 165.693 63.713C165.75 63.85 165.765 64.0008 165.736 64.1463C165.707 64.2918 165.635 64.4254 165.53 64.5303C165.425 64.6352 165.292 64.7067 165.146 64.7356C165.001 64.7645 164.85 64.7497 164.713 64.6929C164.576 64.6361 164.459 64.54 164.376 64.4167C164.294 64.2933 164.25 64.1483 164.25 64C164.25 63.8011 164.329 63.6103 164.47 63.4697C164.61 63.329 164.801 63.25 165 63.25Z" fill="#8992A4"/>
<path d="M77.4375 106.656C77.4323 107.505 77.5651 108.333 77.8359 109.141C78.112 109.948 78.5078 110.672 79.0234 111.312C79.5443 111.948 80.1615 112.438 80.875 112.781L79.8125 114.172C79.0625 113.792 78.4115 113.25 77.8594 112.547C77.3125 111.844 76.8854 111.031 76.5781 110.109C76.2604 111.094 75.8125 111.964 75.2344 112.719C74.6615 113.469 73.9792 114.042 73.1875 114.438L72.125 113.047C72.8594 112.698 73.4948 112.19 74.0312 111.523C74.5729 110.852 74.9844 110.094 75.2656 109.25C75.5521 108.401 75.6979 107.536 75.7031 106.656V104.406H77.4375V106.656ZM81.7188 103.266H83.4531V108.797H85.625V110.281H83.4531V117.391H81.7188V103.266ZM90.1406 103.891C90.7448 103.891 91.2995 104 91.8047 104.219C92.3099 104.432 92.7318 104.737 93.0703 105.133C93.4141 105.523 93.6432 105.974 93.7578 106.484H96.3125V103.266H98.0469V110.844H96.3125V107.891H93.7734C93.6641 108.417 93.4375 108.88 93.0938 109.281C92.7552 109.682 92.3307 109.995 91.8203 110.219C91.3099 110.438 90.75 110.547 90.1406 110.547C89.4271 110.547 88.7865 110.404 88.2188 110.117C87.651 109.831 87.2057 109.435 86.8828 108.93C86.5651 108.419 86.4062 107.844 86.4062 107.203C86.4062 106.568 86.5651 105.997 86.8828 105.492C87.2057 104.987 87.651 104.594 88.2188 104.312C88.7865 104.031 89.4271 103.891 90.1406 103.891ZM88.0625 107.203C88.0625 107.573 88.151 107.901 88.3281 108.188C88.5052 108.474 88.75 108.695 89.0625 108.852C89.3802 109.003 89.7396 109.078 90.1406 109.078C90.5312 109.078 90.8802 109.003 91.1875 108.852C91.5 108.695 91.7448 108.474 91.9219 108.188C92.099 107.901 92.1875 107.573 92.1875 107.203C92.1875 106.833 92.099 106.508 91.9219 106.227C91.7448 105.94 91.5026 105.721 91.1953 105.57C90.888 105.419 90.5365 105.344 90.1406 105.344C89.7344 105.344 89.375 105.419 89.0625 105.57C88.75 105.721 88.5052 105.94 88.3281 106.227C88.151 106.508 88.0625 106.833 88.0625 107.203ZM88.7344 111.5H90.4531V113H96.3125V111.5H98.0469V117.219H88.7344V111.5ZM96.3125 115.812V114.344H90.4531V115.812H96.3125ZM105.109 107.281C105.104 108.016 105.242 108.758 105.523 109.508C105.81 110.258 106.221 110.943 106.758 111.562C107.294 112.177 107.922 112.651 108.641 112.984L107.672 114.359C106.896 113.995 106.216 113.461 105.633 112.758C105.049 112.049 104.594 111.24 104.266 110.328C103.938 111.323 103.471 112.206 102.867 112.977C102.263 113.747 101.562 114.323 100.766 114.703L99.75 113.344C100.479 113 101.117 112.503 101.664 111.852C102.211 111.201 102.63 110.474 102.922 109.672C103.219 108.87 103.37 108.073 103.375 107.281V106.094H100.297V104.656H108.062V106.094H105.109V107.281ZM109.375 103.266H111.109V108.766H113.281V110.219H111.109V117.391H109.375V103.266ZM130.562 111.234H117.672V109.812H130.562V111.234ZM119.172 114.781C119.172 114.24 119.367 113.776 119.758 113.391C120.154 113.005 120.719 112.714 121.453 112.516C122.193 112.318 123.073 112.219 124.094 112.219C125.104 112.219 125.977 112.318 126.711 112.516C127.445 112.714 128.008 113.005 128.398 113.391C128.789 113.776 128.984 114.24 128.984 114.781C128.984 115.333 128.789 115.802 128.398 116.188C128.008 116.578 127.445 116.872 126.711 117.07C125.982 117.273 125.109 117.375 124.094 117.375C123.073 117.375 122.193 117.273 121.453 117.07C120.719 116.872 120.154 116.578 119.758 116.188C119.367 115.797 119.172 115.328 119.172 114.781ZM119.25 103.719H129V105.125H120.984V107.312H129.078V108.703H119.25V103.719ZM120.938 114.781C120.932 115.198 121.198 115.51 121.734 115.719C122.271 115.927 123.057 116.031 124.094 116.031C125.115 116.031 125.893 115.927 126.43 115.719C126.971 115.51 127.245 115.198 127.25 114.781C127.24 114.38 126.964 114.076 126.422 113.867C125.88 113.654 125.104 113.547 124.094 113.547C123.068 113.547 122.284 113.654 121.742 113.867C121.201 114.076 120.932 114.38 120.938 114.781ZM144.391 112.312H131.484V110.906H137.078V109.734H133.125V105.984H141.062V104.938H133.078V103.578H142.797V107.25H134.844V108.375H143.078V109.734H138.797V110.906H144.391V112.312ZM132.922 113.203H142.875V117.297H141.125V114.578H132.922V113.203ZM158.203 111.25H145.328V109.844H158.203V111.25ZM145.953 107.844C146.802 107.76 147.557 107.599 148.219 107.359C148.88 107.115 149.409 106.82 149.805 106.477C150.206 106.128 150.451 105.755 150.539 105.359H146.5V103.938H157.047V105.359H152.969C153.057 105.75 153.299 106.12 153.695 106.469C154.091 106.818 154.622 107.115 155.289 107.359C155.956 107.599 156.724 107.76 157.594 107.844L156.984 109.219C155.708 109.089 154.612 108.784 153.695 108.305C152.784 107.82 152.135 107.219 151.75 106.5C151.365 107.224 150.719 107.826 149.812 108.305C148.906 108.784 147.818 109.089 146.547 109.219L145.953 107.844ZM146.828 114.781C146.828 114.24 147.023 113.776 147.414 113.391C147.81 113 148.375 112.703 149.109 112.5C149.849 112.292 150.729 112.188 151.75 112.188C152.76 112.188 153.633 112.292 154.367 112.5C155.102 112.703 155.664 113 156.055 113.391C156.445 113.776 156.641 114.24 156.641 114.781C156.641 115.333 156.445 115.802 156.055 116.188C155.664 116.578 155.102 116.872 154.367 117.07C153.638 117.273 152.766 117.375 151.75 117.375C150.729 117.375 149.849 117.273 149.109 117.07C148.375 116.872 147.81 116.578 147.414 116.188C147.023 115.797 146.828 115.328 146.828 114.781ZM148.594 114.781C148.589 115.188 148.854 115.495 149.391 115.703C149.927 115.906 150.714 116.01 151.75 116.016C152.771 116.01 153.549 115.906 154.086 115.703C154.628 115.495 154.901 115.188 154.906 114.781C154.901 114.375 154.628 114.068 154.086 113.859C153.549 113.651 152.771 113.547 151.75 113.547C150.719 113.547 149.932 113.651 149.391 113.859C148.854 114.068 148.589 114.375 148.594 114.781ZM168 106.656C167.995 107.505 168.128 108.333 168.398 109.141C168.674 109.948 169.07 110.672 169.586 111.312C170.107 111.948 170.724 112.438 171.438 112.781L170.375 114.172C169.625 113.792 168.974 113.25 168.422 112.547C167.875 111.844 167.448 111.031 167.141 110.109C166.823 111.094 166.375 111.964 165.797 112.719C165.224 113.469 164.542 114.042 163.75 114.438L162.688 113.047C163.422 112.698 164.057 112.19 164.594 111.523C165.135 110.852 165.547 110.094 165.828 109.25C166.115 108.401 166.26 107.536 166.266 106.656V104.406H168V106.656ZM172.281 103.266H174.016V108.797H176.188V110.281H174.016V117.391H172.281V103.266ZM182.141 106.141C182.141 106.734 182.273 107.307 182.539 107.859C182.805 108.411 183.198 108.904 183.719 109.336C184.24 109.763 184.865 110.089 185.594 110.312L184.703 111.672C183.917 111.417 183.234 111.039 182.656 110.539C182.078 110.034 181.622 109.438 181.289 108.75C180.966 109.495 180.505 110.143 179.906 110.695C179.312 111.247 178.604 111.667 177.781 111.953L176.891 110.578C177.625 110.333 178.255 109.984 178.781 109.531C179.307 109.073 179.706 108.552 179.977 107.969C180.247 107.38 180.385 106.771 180.391 106.141V105.734H177.344V104.344H185.109V105.734H182.141V106.141ZM179.203 112.594H180.953V115.703H188.938V117.109H179.203V112.594ZM186.797 103.281H188.547V113.531H186.797V103.281ZM198.328 103.891C198.932 103.891 199.487 104 199.992 104.219C200.497 104.432 200.919 104.737 201.258 105.133C201.602 105.523 201.831 105.974 201.945 106.484H204.5V103.266H206.234V110.844H204.5V107.891H201.961C201.852 108.417 201.625 108.88 201.281 109.281C200.943 109.682 200.518 109.995 200.008 110.219C199.497 110.438 198.938 110.547 198.328 110.547C197.615 110.547 196.974 110.404 196.406 110.117C195.839 109.831 195.393 109.435 195.07 108.93C194.753 108.419 194.594 107.844 194.594 107.203C194.594 106.568 194.753 105.997 195.07 105.492C195.393 104.987 195.839 104.594 196.406 104.312C196.974 104.031 197.615 103.891 198.328 103.891ZM196.25 107.203C196.25 107.573 196.339 107.901 196.516 108.188C196.693 108.474 196.938 108.695 197.25 108.852C197.568 109.003 197.927 109.078 198.328 109.078C198.719 109.078 199.068 109.003 199.375 108.852C199.688 108.695 199.932 108.474 200.109 108.188C200.286 107.901 200.375 107.573 200.375 107.203C200.375 106.833 200.286 106.508 200.109 106.227C199.932 105.94 199.69 105.721 199.383 105.57C199.076 105.419 198.724 105.344 198.328 105.344C197.922 105.344 197.562 105.419 197.25 105.57C196.938 105.721 196.693 105.94 196.516 106.227C196.339 106.508 196.25 106.833 196.25 107.203ZM196.922 111.5H198.641V113H204.5V111.5H206.234V117.219H196.922V111.5ZM204.5 115.812V114.344H198.641V115.812H204.5ZM221.141 115.75H208.234V114.312H213.797V112.016H209.766V107.391H217.891V105.641H209.734V104.234H219.609V108.766H211.5V110.594H219.938V112.016H215.516V114.312H221.141V115.75ZM233.531 111.281H223.625V104.5H233.422V105.906H225.344V109.891H233.531V111.281ZM222.062 114.156H234.969V115.594H222.062V114.156ZM246.953 108.891H249.125V110.328H246.953V117.391H245.234V103.266H246.953V108.891ZM235.812 105.438H239.156V103.469H240.891V105.438H244.141V106.828H235.812V105.438ZM236.469 111.078C236.464 110.438 236.615 109.865 236.922 109.359C237.229 108.849 237.654 108.453 238.195 108.172C238.737 107.891 239.349 107.75 240.031 107.75C240.703 107.75 241.307 107.891 241.844 108.172C242.38 108.453 242.802 108.849 243.109 109.359C243.422 109.865 243.578 110.438 243.578 111.078C243.578 111.719 243.422 112.292 243.109 112.797C242.802 113.297 242.38 113.688 241.844 113.969C241.307 114.25 240.703 114.391 240.031 114.391C239.349 114.391 238.737 114.25 238.195 113.969C237.654 113.688 237.229 113.297 236.922 112.797C236.615 112.292 236.464 111.719 236.469 111.078ZM238.125 111.078C238.125 111.453 238.206 111.784 238.367 112.07C238.529 112.352 238.753 112.57 239.039 112.727C239.331 112.878 239.661 112.953 240.031 112.953C240.391 112.953 240.714 112.878 241 112.727C241.286 112.576 241.51 112.357 241.672 112.07C241.833 111.784 241.917 111.453 241.922 111.078C241.917 110.703 241.831 110.372 241.664 110.086C241.503 109.794 241.279 109.57 240.992 109.414C240.711 109.253 240.391 109.172 240.031 109.172C239.661 109.172 239.331 109.253 239.039 109.414C238.753 109.57 238.529 109.794 238.367 110.086C238.206 110.372 238.125 110.703 238.125 111.078ZM261.516 117.391H259.766V103.266H261.516V117.391ZM249.812 113.5C251.635 112.635 253.003 111.602 253.914 110.398C254.831 109.195 255.37 107.776 255.531 106.141H250.531V104.766H257.297C257.297 107.01 256.789 108.979 255.773 110.672C254.758 112.365 253.073 113.771 250.719 114.891L249.812 113.5Z" fill="#575F70"/>
</svg>
