<svg width="335" height="99" viewBox="0 0 335 99" fill="none" xmlns="http://www.w3.org/2000/svg">
<path d="M245.15 12.0782C246.872 12.0782 248.291 12.3328 249.406 12.8422C250.546 13.3272 251.456 13.97 252.135 14.7703C252.838 15.5707 253.348 16.4802 253.663 17.4989C254.002 18.5175 254.233 19.5605 254.354 20.6276C254.281 21.1855 254.196 21.9373 254.099 22.8832C254.002 23.8049 253.905 24.8478 253.808 26.0119C253.736 27.1519 253.675 28.3646 253.627 29.65C253.578 30.9355 253.554 32.2088 253.554 33.47C253.554 33.7368 253.554 34.0278 253.554 34.3431C253.554 34.6341 253.566 34.9009 253.59 35.1435C253.736 35.2162 253.869 35.2647 253.99 35.289C254.136 35.3132 254.269 35.3254 254.391 35.3254C254.779 35.3254 255.045 35.1799 255.191 34.8888C255.361 34.5978 255.446 34.2097 255.446 33.7246C255.446 31.6873 255.506 29.6743 255.627 27.6855C255.749 25.6724 255.894 23.7806 256.064 22.0101C256.258 20.2396 256.464 18.6388 256.682 17.2078C256.925 15.7769 257.143 14.6127 257.337 13.7153C258.405 12.9392 259.605 12.3935 260.939 12.0782C262.297 11.7386 263.777 11.5688 265.377 11.5688C267.051 11.5688 268.518 11.7629 269.78 12.1509C271.041 12.5147 272.084 12.9998 272.908 13.6062C273.757 14.2125 274.388 14.9037 274.8 15.6799C275.237 16.456 275.455 17.2563 275.455 18.081C275.455 18.2265 275.406 18.7116 275.309 19.5362C275.212 20.3366 275.055 21.4037 274.836 22.7377C274.642 24.0716 274.388 25.636 274.072 27.4308C273.781 29.2013 273.418 31.1052 272.981 33.1425C272.569 35.1799 272.096 37.3263 271.562 39.5819C271.053 41.8133 270.483 44.0689 269.852 46.3487C268.785 50.1808 267.488 53.2974 265.96 55.6985C264.456 58.1239 262.794 60.0157 260.975 61.3739C259.181 62.7563 257.289 63.7022 255.3 64.2116C253.311 64.7209 251.31 64.9756 249.297 64.9756C247.236 64.9756 245.453 64.7088 243.949 64.1752C242.446 63.6659 241.196 62.9625 240.202 62.0651C239.232 61.192 238.504 60.1733 238.019 59.0091C237.534 57.845 237.292 56.6202 237.292 55.3347C237.292 54.0978 237.461 52.9215 237.801 51.8058C238.165 50.6659 238.759 49.4896 239.584 48.2769C239.778 48.2284 240.032 48.192 240.348 48.1677C240.687 48.1435 241.002 48.1313 241.294 48.1313C242.021 48.1313 242.749 48.1799 243.476 48.2769C244.204 48.3496 244.786 48.4224 245.223 48.4952L250.934 49.5502C251.201 49.5987 251.468 49.6472 251.735 49.6957C252.002 49.7442 252.268 49.7685 252.535 49.7685C252.947 49.7685 253.287 49.6836 253.554 49.5138C253.845 49.344 253.99 48.9439 253.99 48.3133L245.405 46.6761C244.507 46.3123 243.573 45.6939 242.603 44.8207C241.657 43.9476 240.76 42.747 239.911 41.219C239.062 39.6668 238.286 37.7386 237.583 35.4345C236.904 33.1304 236.382 30.3776 236.018 27.1761C235.363 26.3272 234.806 25.2843 234.345 24.0474C233.86 22.7862 233.617 21.3795 233.617 19.8272C233.617 18.4933 233.787 17.1593 234.127 15.8254C234.466 14.4914 235.024 13.2424 235.8 12.0782H245.15Z" fill="white"/>
<path d="M214.842 2.32836C215.084 2.18284 215.472 1.97668 216.006 1.70989C216.54 1.4431 217.17 1.18843 217.898 0.945896C218.65 0.679105 219.499 0.46082 220.444 0.291044C221.39 0.0970144 222.397 0 223.464 0C225.21 0 226.702 0.194031 227.939 0.58209C229.2 0.97015 230.231 1.51586 231.031 2.21922C231.832 2.89832 232.414 3.72295 232.777 4.6931C233.165 5.66325 233.36 6.74254 233.36 7.93097V33.5065C233.36 35.18 233.541 36.6231 233.905 37.8358C234.269 39.0243 234.96 39.9338 235.979 40.5644C236.003 40.7584 236.015 41.0009 236.015 41.292C236.015 41.5588 236.015 41.7649 236.015 41.9104C236.015 45.4272 235.118 48.0709 233.323 49.8414C231.553 51.6119 229.079 52.4972 225.901 52.4972C224.471 52.4972 223.088 52.291 221.754 51.8787C220.42 51.4664 219.244 50.7752 218.225 49.805C217.207 48.8349 216.382 47.5616 215.751 45.9851C215.145 44.4086 214.842 42.4562 214.842 40.1278V2.32836Z" fill="white"/>
<path d="M195.923 28.3406C196.529 28.3406 196.978 28.2193 197.269 27.9768C197.584 27.71 197.742 27.3705 197.742 26.9581C197.742 26.4731 197.56 26.1335 197.196 25.9395C196.857 25.7455 196.444 25.6484 195.959 25.6484C195.28 25.6484 194.735 25.8425 194.322 26.2305C193.934 26.5943 193.692 27.0915 193.595 27.7221C193.837 27.8677 194.153 28.0132 194.541 28.1587C194.929 28.28 195.389 28.3406 195.923 28.3406ZM196.396 52.9703C193.073 52.9703 190.066 52.4973 187.374 51.5514C184.681 50.5813 182.377 49.1988 180.461 47.404C178.569 45.585 177.102 43.3779 176.059 40.7828C175.041 38.1876 174.531 35.265 174.531 32.015C174.531 28.5953 175.077 25.5757 176.168 22.9563C177.284 20.3369 178.776 18.1419 180.643 16.3714C182.535 14.6009 184.73 13.2669 187.228 12.3695C189.726 11.4721 192.358 11.0234 195.123 11.0234C198.057 11.0234 200.701 11.46 203.054 12.3331C205.406 13.182 207.407 14.3583 209.056 15.8621C210.73 17.3658 212.015 19.1242 212.913 21.1372C213.81 23.1503 214.259 25.2968 214.259 27.5766C214.259 29.7352 213.871 31.5906 213.095 33.1428C212.343 34.6951 211.288 35.9805 209.93 36.9992C208.571 37.9936 206.958 38.7333 205.091 39.2184C203.223 39.7035 201.198 39.946 199.015 39.946C197.366 39.946 195.765 39.752 194.213 39.3639C192.685 38.9759 191.375 38.4544 190.284 37.7996C190.163 37.8966 190.078 38.03 190.029 38.1997C190.005 38.3453 189.993 38.4787 189.993 38.5999C189.993 38.9637 190.26 39.3275 190.793 39.6913C191.327 40.0309 192.018 40.3462 192.867 40.6372C193.716 40.904 194.686 41.1344 195.778 41.3285C196.869 41.4983 197.96 41.5831 199.052 41.5831C200.556 41.5831 201.926 41.4861 203.163 41.2921C204.4 41.0738 205.503 40.8191 206.473 40.5281C207.468 40.2128 208.329 39.8732 209.056 39.5094C209.784 39.1456 210.39 38.794 210.875 38.4544C211.191 38.7212 211.458 39.1214 211.676 39.655C211.918 40.1643 212.125 40.7343 212.294 41.3649C212.464 41.9955 212.585 42.6503 212.658 43.3294C212.755 43.9843 212.804 44.5906 212.804 45.1484C212.804 45.7063 212.767 46.2399 212.694 46.7492C212.646 47.2343 212.573 47.6587 212.476 48.0225C211.7 48.6774 210.851 49.308 209.93 49.9143C209.008 50.4964 207.917 51.0178 206.655 51.4787C205.394 51.9152 203.927 52.2669 202.253 52.5337C200.604 52.8247 198.652 52.9703 196.396 52.9703Z" fill="white"/>
<path d="M148.554 12.0782C150.058 12.0782 151.307 12.3207 152.302 12.8058C153.32 13.2909 154.121 13.97 154.703 14.8431C154.388 15.1827 154.084 15.595 153.793 16.08C153.526 16.5651 153.284 17.0502 153.066 17.5353C152.872 17.9961 152.714 18.4448 152.593 18.8813C152.471 19.2937 152.411 19.6211 152.411 19.8636C152.411 20.1547 152.52 20.4215 152.738 20.664C152.957 20.8823 153.296 20.9914 153.757 20.9914C154.218 19.1966 154.86 17.6929 155.685 16.4802C156.534 15.2675 157.492 14.2974 158.559 13.5698C159.651 12.8422 160.815 12.3328 162.052 12.0418C163.313 11.7265 164.586 11.5688 165.872 11.5688C166.915 11.5688 167.873 11.6416 168.746 11.7871C169.619 11.9084 170.407 12.0782 171.11 12.2965C171.814 12.5147 172.432 12.7694 172.966 13.0605C173.499 13.3272 173.948 13.594 174.312 13.8608C174.7 14.8795 174.979 15.9588 175.149 17.0987C175.318 18.2386 175.403 19.3543 175.403 20.4457C175.403 22.4103 175.221 24.0474 174.858 25.3571C174.518 26.6668 174.142 27.7461 173.73 28.595C173.342 28.789 172.857 28.983 172.275 29.1771C171.693 29.3711 171.05 29.5409 170.346 29.6864C169.667 29.8319 168.94 29.9532 168.164 30.0502C167.388 30.123 166.624 30.1593 165.872 30.1593C165.071 30.1593 164.356 30.1351 163.725 30.0866C163.119 30.0381 162.561 29.9774 162.052 29.9047C161.542 29.8077 161.069 29.7106 160.633 29.6136C160.221 29.4924 159.796 29.3832 159.36 29.2862C159.165 29.4802 159.068 29.7591 159.068 30.123C159.068 30.4625 159.287 30.7293 159.723 30.9233C160.184 31.1174 160.997 31.3235 162.161 31.5418V49.8049C161.336 50.3384 160.499 50.775 159.651 51.1146C158.802 51.4299 157.965 51.6724 157.14 51.8422C156.34 52.0362 155.564 52.1575 154.812 52.206C154.084 52.2787 153.405 52.3151 152.775 52.3151C151.416 52.3151 150.143 52.1817 148.955 51.9149C147.766 51.6724 146.723 51.2965 145.826 50.7871C144.953 50.2536 144.262 49.5866 143.752 48.7862C143.243 47.9858 142.988 47.0278 142.988 45.9121V27.1761C142.261 26.1575 141.715 25.0054 141.351 23.72C141.012 22.4345 140.842 21.0884 140.842 19.6817C140.842 18.5175 141.012 17.2321 141.351 15.8254C141.715 14.4187 142.261 13.1696 142.988 12.0782H148.554Z" fill="white"/>
<path d="M120.904 35.6165C120.346 35.6165 119.946 35.762 119.704 36.053C119.485 36.3198 119.376 36.6351 119.376 36.9989C119.376 37.484 119.546 37.8235 119.886 38.0176C120.249 38.2116 120.674 38.3086 121.159 38.3086C121.935 38.3086 122.529 38.1146 122.942 37.7265C123.354 37.3385 123.56 36.6351 123.56 35.6165H120.904ZM139.786 33.8338C139.786 35.5073 139.968 36.8898 140.331 37.9812C140.695 39.0726 141.386 39.9336 142.405 40.5642C142.429 40.7583 142.442 41.0008 142.442 41.2918C142.442 41.5586 142.442 41.7648 142.442 41.9103C142.442 43.7536 142.15 45.3422 141.568 46.6762C140.986 48.0101 140.222 49.1137 139.276 49.9868C138.355 50.8357 137.3 51.4663 136.111 51.8786C134.923 52.2909 133.71 52.4971 132.473 52.4971C131.6 52.4971 130.739 52.3879 129.89 52.1696C129.066 51.9756 128.277 51.6724 127.525 51.2601C126.798 50.8478 126.131 50.3263 125.525 49.6958C124.942 49.0409 124.482 48.2769 124.142 47.4038C123.73 47.4038 123.414 47.5129 123.196 47.7312C123.002 47.9495 122.905 48.2405 122.905 48.6043C122.905 48.9439 123.014 49.3077 123.233 49.6958C123.451 50.0838 123.766 50.484 124.178 50.8963C123.402 51.4299 122.359 51.8301 121.05 52.0969C119.74 52.3637 118.406 52.4971 117.048 52.4971C114.841 52.4971 112.828 52.1939 111.009 51.5875C109.214 50.9812 107.662 50.0838 106.352 48.8954C105.067 47.7069 104.06 46.2638 103.332 44.5661C102.629 42.8441 102.277 40.8674 102.277 38.636C102.277 36.3319 102.653 34.3431 103.405 32.6696C104.181 30.9719 105.224 29.5773 106.534 28.4859C107.844 27.3702 109.359 26.5456 111.081 26.012C112.828 25.4784 114.671 25.2116 116.611 25.2116C117.484 25.2116 118.261 25.248 118.94 25.3208C119.619 25.3693 120.201 25.4299 120.686 25.5027C121.244 25.5997 121.717 25.6967 122.105 25.7937C122.178 25.5512 122.214 25.345 122.214 25.1752C122.214 24.8599 122.044 24.5931 121.705 24.3749C121.389 24.1566 120.965 23.9989 120.431 23.9019C119.898 23.7806 119.279 23.6958 118.576 23.6472C117.872 23.5987 117.157 23.5745 116.429 23.5745C114.78 23.5745 113.131 23.7564 111.482 24.1202C109.832 24.484 108.353 25.0418 107.043 25.7937C106.51 24.8963 106.073 23.7564 105.734 22.3739C105.418 20.9915 105.261 19.5847 105.261 18.1538C105.261 17.4747 105.297 16.7956 105.37 16.1165C105.467 15.4131 105.649 14.7946 105.915 14.261C106.546 13.97 107.346 13.6547 108.317 13.3152C109.311 12.9513 110.451 12.6239 111.736 12.3329C113.046 12.0176 114.477 11.7508 116.029 11.5325C117.606 11.3142 119.291 11.2051 121.086 11.2051C124.215 11.2051 126.943 11.5568 129.272 12.2601C131.624 12.9635 133.577 13.9821 135.129 15.3161C136.681 16.6258 137.845 18.2508 138.622 20.1911C139.398 22.1071 139.786 24.2778 139.786 26.7032V33.8338Z" fill="white"/>
<path d="M82.3022 52.8245C78.6157 52.8245 75.2808 52.2788 72.2976 51.1874C69.3144 50.0717 66.7556 48.4588 64.6213 46.3487C62.5112 44.2144 60.8741 41.6071 59.7099 38.5269C58.57 35.4224 58 31.8935 58 27.9402C58 23.8655 58.6549 20.3245 59.9646 17.317C61.2985 14.2853 63.0569 11.7629 65.2397 9.74987C67.4468 7.73681 69.9692 6.23308 72.8069 5.23867C75.6688 4.24427 78.6278 3.74707 81.6838 3.74707C84.764 3.74707 87.5896 4.14726 90.1604 4.94763C92.7313 5.748 94.9263 6.83942 96.7453 8.22188C98.5886 9.60435 100.02 11.2293 101.038 13.0969C102.057 14.9644 102.566 16.9775 102.566 19.1361C102.566 20.8581 102.287 22.3254 101.729 23.5381C101.172 24.7508 100.396 25.7452 99.4011 26.5213C98.431 27.2732 97.2547 27.831 95.8722 28.1948C94.4897 28.5586 92.986 28.7405 91.361 28.7405C90.3424 28.7405 89.3237 28.6071 88.305 28.3404C87.3106 28.0493 86.389 27.6976 85.5401 27.2853C84.6912 26.873 83.9636 26.4364 83.3573 25.9756C82.7752 25.4905 82.3993 25.0661 82.2295 24.7023C82.2295 24.0717 82.2295 23.3441 82.2295 22.5195C82.2537 21.6948 82.2901 20.8581 82.3386 20.0092C82.2659 19.9849 82.1688 19.9728 82.0476 19.9728C81.9506 19.9728 81.8778 19.9728 81.8293 19.9728C81.4655 19.9728 81.1744 20.082 80.9562 20.3002C80.7621 20.4943 80.6045 20.8581 80.4832 21.3917C80.3619 21.901 80.2771 22.6043 80.2285 23.5017C80.2043 24.3991 80.1922 25.539 80.1922 26.9215C80.1922 28.789 80.2285 30.3898 80.3013 31.7237C80.3983 33.0335 80.5196 34.1127 80.6651 34.9616C80.8106 35.7862 80.9925 36.3926 81.2108 36.7807C81.4291 37.1687 81.6716 37.3627 81.9384 37.3627C82.181 37.3627 82.3993 37.3021 82.5933 37.1808V33.8702C83.4422 33.2881 84.4851 32.7667 85.722 32.3058C86.959 31.845 88.2687 31.457 89.6511 31.1417C91.0578 30.8021 92.5009 30.5474 93.9804 30.3777C95.4599 30.1836 96.8666 30.0866 98.2006 30.0866C98.8554 30.7657 99.4496 31.6267 99.9832 32.6696C100.541 33.7126 101.014 34.8404 101.402 36.053C101.814 37.2415 102.142 38.4542 102.384 39.6911C102.627 40.9038 102.76 42.0195 102.785 43.0381C102.324 43.9355 101.535 44.9542 100.42 46.0941C99.3041 47.2098 97.8853 48.2769 96.1632 49.2956C94.4412 50.29 92.416 51.1267 90.0877 51.8058C87.7593 52.4849 85.1642 52.8245 82.3022 52.8245Z" fill="white"/>
<path d="M40.5938 81.2812V85.3594H42.5625V86.7969H40.5938V91.6719H38.8594V81.2812H40.5938ZM29.9375 89.375V82.2812H31.6562V84.4375H34.9531V82.2812H36.6719V89.375H29.9375ZM31.5469 95.1094V90.625H33.2812V93.7031H41.1562V95.1094H31.5469ZM31.6562 88H34.9531V85.7812H31.6562V88ZM54.3438 81.2656V86.7812H56.4375V88.2344H54.3438V95.3594H52.6094V81.2656H54.3438ZM43.2031 91.5C46.6406 89.7812 48.5 87.3906 48.8438 84.1719H43.9688V82.7344H50.6094C50.6016 86.8828 48.8828 90.5312 44.1875 92.8438L43.2031 91.5ZM69.0312 81.2812V95.375H67.2656V92.1406H64.2656V90.8281H67.2656V81.2812H69.0312ZM57.0469 88.5312C59.7031 88.5234 63.2344 88.5156 66.2969 88.0938L66.4062 89.375C65.1094 89.5938 63.7734 89.7344 62.4688 89.8203V94.9531H60.7188V89.9062C59.4844 89.9531 58.3125 89.9531 57.2656 89.9531L57.0469 88.5312ZM58.0625 84.75C58.0625 83.0703 59.5625 81.8906 61.6875 81.8906C63.7656 81.8906 65.2812 83.0703 65.2812 84.75C65.2812 86.4688 63.7656 87.5859 61.6875 87.5938C59.5625 87.5859 58.0625 86.4688 58.0625 84.75ZM59.7031 84.75C59.6953 85.6953 60.5 86.2656 61.6875 86.2656C62.8125 86.2656 63.625 85.6953 63.625 84.75C63.625 83.8281 62.8203 83.2188 61.6875 83.2188C60.5 83.2188 59.6953 83.8281 59.7031 84.75ZM83.8438 92.25V93.6719H70.9375V92.25H73.9219V88.6797C72.7969 88.0312 72.1172 87.0156 72.125 85.7656C72.1172 83.5156 74.3203 82.0312 77.3594 82.0312C80.4141 82.0312 82.6328 83.5156 82.625 85.7656C82.6328 87 81.9688 87.9922 80.875 88.6406V92.25H83.8438ZM73.8281 85.7656C73.8203 87.2109 75.25 88.1328 77.3594 88.125C79.4609 88.1328 80.9219 87.2109 80.9219 85.7656C80.9219 84.2969 79.4609 83.3984 77.3594 83.4062C75.25 83.3984 73.8203 84.2969 73.8281 85.7656ZM75.6406 92.25H79.1094V89.3047C78.5703 89.4219 77.9844 89.4844 77.3594 89.4844C76.75 89.4844 76.1719 89.4219 75.6406 89.3125V92.25ZM87.6719 82.6875L87.5 90.6719H85.7344L85.5469 82.6875H87.6719ZM85.4062 92.9062C85.3984 92.25 85.9531 91.7109 86.625 91.7031C87.2734 91.7109 87.8281 92.25 87.8281 92.9062C87.8281 93.5781 87.2734 94.125 86.625 94.125C85.9531 94.125 85.3984 93.5781 85.4062 92.9062ZM105.281 81.2656V90.1406H103.625V86.2969H102.25V89.6719H100.625V81.5469H102.25V84.8906H103.625V81.2656H105.281ZM93.125 84.1562V82.7969H95.7969V81.3906H97.5156V82.7969H100.156V84.1562H93.125ZM93.625 87.1719C93.6094 85.7031 94.8906 84.7266 96.6562 84.7344C98.4531 84.7266 99.7188 85.7031 99.7344 87.1719C99.7188 88.6406 98.4531 89.6094 96.6562 89.6094C94.8906 89.6094 93.6094 88.6406 93.625 87.1719ZM95.1719 87.1719C95.1719 87.8984 95.7734 88.3594 96.6562 88.3594C97.5469 88.3594 98.1562 87.8984 98.1562 87.1719C98.1562 86.4453 97.5469 85.9844 96.6562 85.9844C95.7734 85.9844 95.1719 86.4453 95.1719 87.1719ZM95.6719 92.8594C95.6641 91.2344 97.4922 90.3203 100.516 90.3125C103.531 90.3203 105.352 91.2344 105.359 92.8594C105.352 94.4531 103.531 95.375 100.516 95.375C97.4922 95.375 95.6641 94.4531 95.6719 92.8594ZM97.4062 92.8594C97.3984 93.6328 98.5 94.0547 100.516 94.0469C102.523 94.0547 103.602 93.6328 103.609 92.8594C103.602 92.0391 102.523 91.625 100.516 91.6406C98.5 91.625 97.3984 92.0391 97.4062 92.8594ZM119.906 88.375V89.7656H107.031V88.375H112.578V87.0156H108.703V81.6094H110.422V83.0156H116.516V81.6094H118.234V87.0156H114.328V88.375H119.906ZM108.453 92.2656V90.8906H118.328V95.3906H116.594V92.2656H108.453ZM110.422 85.625H116.516V84.3125H110.422V85.625ZM132 81.2812V85.7188H133.969V87.1562H132V91.8281H130.266V81.2812H132ZM120.875 84.2344V82.8438H124.203V81.2656H125.938V82.8438H129.25V84.2344H120.875ZM121.594 87.5156C121.594 85.8906 123.008 84.8125 125.062 84.8125C127.102 84.8125 128.508 85.8906 128.516 87.5156C128.508 89.1328 127.102 90.1875 125.062 90.1875C123.008 90.1875 121.594 89.1328 121.594 87.5156ZM122.953 95.1094V91H124.688V93.7031H132.562V95.1094H122.953ZM123.281 87.5156C123.273 88.3672 123.992 88.8516 125.062 88.8438C126.133 88.8516 126.859 88.3672 126.859 87.5156C126.859 86.6562 126.133 86.1562 125.062 86.1562C123.992 86.1562 123.273 86.6562 123.281 87.5156ZM149.625 81.2656V85.3281H151.594V86.7812H149.625V91.4531H147.859V81.2656H149.625ZM138.438 88.6094C141.672 87.6719 143.586 85.9141 143.883 83.7656H139.031V82.3438H145.781C145.789 86.0938 143.336 88.7734 139.156 89.9844L138.438 88.6094ZM140.547 95.1094V90.4062H142.312V93.7031H150.156V95.1094H140.547ZM154.688 82.125V84.1562H157.844V82.125H159.562V83.4375H162.406V81.2656H164.141V89.75H162.406V87.7188H159.562V88.8438H152.953V82.125H154.688ZM154.562 92.7031C154.547 90.9844 156.383 90 159.359 90C162.352 90 164.18 90.9844 164.188 92.7031C164.18 94.3906 162.352 95.375 159.359 95.375C156.383 95.375 154.547 94.3906 154.562 92.7031ZM154.688 87.4844H157.844V85.5156H154.688V87.4844ZM156.281 92.7031C156.273 93.5625 157.398 94.0312 159.359 94.0312C161.336 94.0312 162.453 93.5625 162.453 92.7031C162.453 91.7969 161.336 91.3359 159.359 91.3281C157.398 91.3359 156.273 91.7969 156.281 92.7031ZM159.562 86.3125H162.406V84.8125H159.562V86.3125ZM174.344 83.8906C174.352 85.4141 175.242 86.9531 177.094 87.6562L176.172 88.9844C174.914 88.5078 174.039 87.6016 173.531 86.5078C173.016 87.7656 172.094 88.8438 170.75 89.4062L169.812 88.0781C171.758 87.2188 172.664 85.4531 172.672 83.8906V82.1406H174.344V83.8906ZM172.406 92.7656C172.398 91.1406 174.273 90.1719 177.25 90.1719C180.203 90.1719 182.086 91.1406 182.094 92.7656C182.086 94.3984 180.203 95.375 177.25 95.375C174.273 95.375 172.398 94.3984 172.406 92.7656ZM174.141 92.7656C174.133 93.6016 175.289 94.0547 177.25 94.0469C179.18 94.0547 180.336 93.6016 180.344 92.7656C180.336 91.9375 179.18 91.4844 177.25 91.4844C175.289 91.4844 174.133 91.9375 174.141 92.7656ZM177.328 89.5V81.5469H178.953V84.8438H180.359V81.2812H182.016V89.9375H180.359V86.2656H178.953V89.5H177.328ZM194.953 81.2656V84.7031H196.859V86.1562H194.953V89.5781H193.219V81.2656H194.953ZM183.641 88.1562C184.703 88.1562 185.93 88.1562 187.203 88.125V87.4141C185.617 87.25 184.633 86.6016 184.641 85.5625C184.633 84.4219 185.977 83.75 188.047 83.75C190.117 83.75 191.453 84.4219 191.453 85.5625C191.453 86.5859 190.492 87.2422 188.938 87.4062V88.0625C190.141 88 191.352 87.9062 192.484 87.75L192.625 88.8438C189.602 89.3516 186.289 89.375 183.828 89.375L183.641 88.1562ZM184 83.4062V82.2188H187.203V81.1562H188.938V82.2188H192.109V83.4062H184ZM185.516 91.3125V90.1406H194.953V93.1875H187.281V94.0938H195.453V95.2656H185.547V92.1094H193.219V91.3125H185.516ZM186.312 85.5625C186.297 86.0703 186.953 86.3438 188.047 86.3438C189.141 86.3438 189.797 86.0703 189.797 85.5625C189.797 85.0938 189.141 84.8516 188.047 84.8438C186.953 84.8516 186.297 85.0938 186.312 85.5625ZM204.016 81.4844C207.234 81.4922 209.102 82.3438 209.109 83.9062C209.102 85.4844 207.234 86.3359 204.016 86.3438C200.805 86.3359 198.922 85.4844 198.922 83.9062C198.922 82.3438 200.805 81.4922 204.016 81.4844ZM197.594 88.4844V87.0938H210.469V88.4844H197.594ZM199.109 90.7188V89.4375H208.859V92.8906H200.828V93.9375H209.25V95.2656H199.125V91.6562H207.156V90.7188H199.109ZM200.75 83.9062C200.742 84.6875 201.867 85.0469 204.016 85.0469C206.195 85.0469 207.312 84.6875 207.312 83.9062C207.312 83.1797 206.195 82.7656 204.016 82.7656C201.867 82.7656 200.742 83.1797 200.75 83.9062ZM220.562 84.6562C220.547 87.25 221.914 89.8438 224.203 90.8281L223.172 92.2188C221.547 91.4688 220.359 89.9766 219.703 88.1328C219.055 90.1172 217.836 91.7422 216.125 92.5469L215.062 91.0938C217.414 90.0781 218.789 87.3828 218.797 84.6562V82.4062H220.562V84.6562ZM225.219 95.4062V81.2656H226.969V95.4062H225.219ZM234.109 83.7188C234.109 85.4609 235.227 87.1719 237.453 87.9062L236.578 89.25C234.992 88.7188 233.875 87.6641 233.258 86.3438C232.633 87.7891 231.461 88.9375 229.812 89.5L228.891 88.1562C231.164 87.3984 232.359 85.5703 232.359 83.7188V83.5469H229.375V82.1562H237.047V83.5469H234.109V83.7188ZM230.781 91.8281V90.4375H240.188V95.3906H238.453V91.8281H230.781ZM238.453 89.7812V81.2656H240.188V84.7969H242.156V86.25H240.188V89.7812H238.453ZM249.766 83.5156V84.9062H242.844V83.5156H245.469V81.6719H247.188V83.5156H249.766ZM243.25 88.9375C243.234 87.0156 244.539 85.6484 246.328 85.6562C248.125 85.6484 249.406 87.0156 249.406 88.9375C249.406 90.8984 248.125 92.2656 246.328 92.2656C244.539 92.2656 243.234 90.8984 243.25 88.9375ZM244.781 88.9375C244.773 90.0781 245.414 90.7891 246.328 90.7812C247.234 90.7891 247.875 90.0781 247.875 88.9375C247.875 87.8281 247.234 87.0938 246.328 87.0938C245.414 87.0938 244.773 87.8281 244.781 88.9375ZM250.359 94.75V81.5625H251.984V87.0781H253.359V81.2656H255.016V95.3906H253.359V88.4844H251.984V94.75H250.359ZM260.094 81.4844V82.5938H266.188V81.4844H267.906V86.1875H263.969V87.2656H269.578V88.6406H256.703V87.2656H262.25V86.1875H258.375V81.4844H260.094ZM258.219 90.8125V89.5312H267.969V92.9531H259.938V93.9375H268.359V95.2656H258.234V91.7344H266.266V90.8125H258.219ZM260.094 84.8906H266.188V83.8594H260.094V84.8906ZM281.797 81.2656V86.9062H283.75V88.3438H281.797V95.3906H280.047V81.2656H281.797ZM270.328 91.3438C272.312 89.2344 272.969 86.9922 273.109 84.1719H270.891V82.75H274.766C274.758 86.4531 274.234 89.5703 271.688 92.3281L270.328 91.3438ZM274.328 92.2812C276.344 89.875 276.914 87.2344 277.023 84.1719H275.234V82.75H278.672C278.664 86.5469 278.266 90.1719 275.719 93.2344L274.328 92.2812ZM297.266 92.25V93.6719H284.359V92.25H287.344V88.6797C286.219 88.0312 285.539 87.0156 285.547 85.7656C285.539 83.5156 287.742 82.0312 290.781 82.0312C293.836 82.0312 296.055 83.5156 296.047 85.7656C296.055 87 295.391 87.9922 294.297 88.6406V92.25H297.266ZM287.25 85.7656C287.242 87.2109 288.672 88.1328 290.781 88.125C292.883 88.1328 294.344 87.2109 294.344 85.7656C294.344 84.2969 292.883 83.3984 290.781 83.4062C288.672 83.3984 287.242 84.2969 287.25 85.7656ZM289.062 92.25H292.531V89.3047C291.992 89.4219 291.406 89.4844 290.781 89.4844C290.172 89.4844 289.594 89.4219 289.062 89.3125V92.25ZM300.578 90.5312C300.594 88.5391 301.156 87.9297 302.141 87.3281C302.805 86.8984 303.32 86.375 303.312 85.5938C303.32 84.7188 302.633 84.1562 301.781 84.1562C301.008 84.1562 300.258 84.6562 300.203 85.7031H298.25C298.305 83.6016 299.867 82.5312 301.797 82.5312C303.906 82.5312 305.352 83.7031 305.359 85.5625C305.352 86.8359 304.719 87.6641 303.703 88.2656C302.797 88.8203 302.422 89.3594 302.406 90.5312V90.6719H300.578V90.5312ZM300.328 92.9062C300.32 92.25 300.875 91.7109 301.547 91.7031C302.195 91.7109 302.75 92.25 302.75 92.9062C302.75 93.5781 302.195 94.125 301.547 94.125C300.875 94.125 300.32 93.5781 300.328 92.9062Z" fill="white"/>
</svg>
