<svg width="57" height="24" viewBox="0 0 57 24" fill="none" xmlns="http://www.w3.org/2000/svg">
<path opacity="0.7" d="M45.9464 19.9012C45.6013 19.9012 45.213 19.858 44.7815 19.7717C43.4584 19.4266 42.4517 18.6356 41.7613 17.3988C40.956 17.7152 40.1218 17.7871 39.2589 17.6145C38.3673 17.4131 37.605 16.9529 36.9723 16.2339C36.1956 15.3422 35.8505 14.3067 35.9368 13.1274C35.9943 11.9193 36.4689 10.927 37.3606 10.1504C37.677 9.89153 38.0221 9.58952 38.396 9.24436C38.7412 8.87044 39.1151 8.49651 39.5178 8.12259C40.2081 7.43227 40.9272 6.72756 41.6751 6.00848C42.4517 5.2894 43.1995 4.6566 43.9186 4.1101C44.4076 3.73618 44.8678 3.4054 45.2992 3.11777C45.7595 2.83013 46.1909 2.58564 46.5936 2.3843C48.0893 1.66522 49.5562 1.46387 50.9944 1.78027C52.6339 2.24048 53.77 3.29035 54.4028 4.92986C54.8055 6.08039 54.7911 7.28845 54.3597 8.55404C54.3022 8.69785 54.2446 8.84167 54.1871 8.98549C54.1296 9.12931 54.0577 9.2875 53.9714 9.46008C55.0069 9.94906 55.7547 10.7544 56.2149 11.8762C56.6176 13.0267 56.5745 14.1485 56.0855 15.2415C55.5965 16.3058 54.7768 17.0392 53.6262 17.4419C52.7346 17.7871 51.9148 18.1035 51.167 18.3911C50.4191 18.65 49.7863 18.8657 49.2686 19.0383C48.981 19.1533 48.7077 19.254 48.4488 19.3403C48.2187 19.4266 48.0318 19.4985 47.8879 19.556C47.6003 19.6135 47.2983 19.6855 46.9819 19.7717C46.6655 19.858 46.3203 19.9012 45.9464 19.9012Z" fill="#20CE86"/>
<path opacity="0.7" d="M32.7147 23.7413C32.1969 23.7413 31.6504 23.6694 31.0752 23.5255C29.7808 23.2091 28.8604 22.4757 28.3139 21.3251C27.9399 20.5773 27.7674 19.9014 27.7961 19.2973C27.8537 18.6645 27.8968 18.2043 27.9256 17.9167C27.9543 17.7729 27.9831 17.6291 28.0119 17.4852C28.0694 17.3127 28.1125 17.1401 28.1413 16.9675C27.9399 17.0826 27.753 17.1832 27.5804 17.2695C27.4078 17.327 27.2209 17.3846 27.0195 17.4421C26.5593 17.6147 26.0703 17.701 25.5526 17.701C24.6609 17.701 23.8412 17.4565 23.0933 16.9675C22.3455 16.4498 21.8134 15.7451 21.497 14.8534C21.123 13.7604 21.1806 12.6674 21.6695 11.5744C22.1585 10.4814 22.9639 9.73352 24.0857 9.33083C24.2007 9.30207 24.4596 9.18701 24.8623 8.98567C25.265 8.75556 25.869 8.33849 26.6744 7.73446C27.5085 7.13043 28.5871 6.25315 29.9102 5.10262C31.0608 4.0959 32.0387 3.21862 32.8441 2.47077C33.6495 1.69416 34.0665 1.29147 34.0953 1.26271C34.6418 0.716206 35.2746 0.342284 35.9937 0.140941C36.7415 -0.0604024 37.4894 -0.0460221 38.2372 0.184084C39.4741 0.500481 40.3657 1.21956 40.9122 2.34134C41.0848 2.62897 41.2286 3.0748 41.3437 3.67883C41.4875 4.2541 41.4443 4.91566 41.2142 5.6635C41.2142 5.69227 41.1999 5.72103 41.1711 5.74979C41.1423 5.77856 41.1279 5.8217 41.1279 5.87923C41.0992 5.93676 41.0704 6.00866 41.0417 6.09495C41.0417 6.18124 41.0273 6.25315 40.9985 6.31068C40.941 6.51202 40.8547 6.72775 40.7396 6.95785C40.6533 7.18796 40.5527 7.46121 40.4376 7.77761C40.3226 8.06524 40.1931 8.4104 40.0493 8.81309C39.9343 9.18701 39.7904 9.57532 39.6179 9.978C39.6754 9.94924 39.7329 9.92048 39.7904 9.89171C39.848 9.83419 39.9055 9.79104 39.963 9.76228C40.9697 9.10072 42.0484 8.89938 43.1989 9.15825C44.3494 9.38836 45.2411 10.0068 45.8739 11.0135C46.5642 11.9914 46.7799 13.0701 46.5211 14.2494C46.291 15.4287 45.6726 16.3491 44.6658 17.0106C43.9755 17.4709 43.314 17.9311 42.6812 18.3913C42.0771 18.8227 41.4587 19.283 40.8259 19.7719C40.1068 20.3184 39.4309 20.8218 38.7981 21.282C38.1941 21.7422 37.5757 22.1449 36.9429 22.4901C36.4827 22.7489 36.0512 22.9503 35.6485 23.0941C35.2458 23.2667 34.8432 23.4105 34.4405 23.5255C33.8077 23.6694 33.2324 23.7413 32.7147 23.7413Z" fill="#00AEFF"/>
<path opacity="0.7" d="M7.93869 24C7.62229 24 7.32027 23.9856 7.03264 23.9568C6.77377 23.9568 6.57243 23.9425 6.42861 23.9137C5.62324 23.6836 4.90415 23.3097 4.27136 22.7919C3.63856 22.303 3.16397 21.6989 2.84757 20.9798C2.64623 20.5772 2.51679 20.2176 2.45927 19.9012C2.40174 19.5561 2.37298 19.2109 2.37298 18.8657C2.37298 18.4055 2.41612 17.9597 2.50241 17.5282C2.24354 17.3557 1.97029 17.1687 1.68266 16.9674C1.39502 16.7372 1.1793 16.5215 1.03548 16.3202C0.34516 15.3997 0 14.4218 0 13.3863C0 12.696 0.158198 12.0344 0.474595 11.4016C0.762229 10.7688 1.16492 10.2223 1.68266 9.76213C1.82647 9.61831 2.09972 9.34506 2.50241 8.94238C2.87634 8.53969 3.2215 8.137 3.53789 7.73431L4.40079 6.78512C4.80348 6.35367 5.22055 5.90784 5.652 5.44763C6.08345 4.98741 6.48614 4.57035 6.86006 4.19642C7.32027 3.79374 7.72296 3.44857 8.06812 3.16094C8.41328 2.87331 8.7153 2.6432 8.97417 2.47062C10.4699 1.55019 12.0231 1.26256 13.6338 1.60772C15.3021 2.03917 16.4095 2.97398 16.956 4.41215L16.9129 4.369C17.0279 4.62787 17.1142 4.88674 17.1717 5.14561C17.258 5.37572 17.3155 5.62021 17.3443 5.87908C17.747 5.44763 18.1065 5.04494 18.4229 4.67102C18.7393 4.26833 19.027 3.90879 19.2858 3.59239L19.8899 2.90207C19.9474 2.84454 19.9905 2.78702 20.0193 2.72949C20.0768 2.6432 20.1056 2.60006 20.1056 2.60006C20.7671 1.82345 21.5438 1.27694 22.4354 0.960547C23.3558 0.615387 24.2763 0.557859 25.1967 0.787966C25.8295 0.960546 26.4048 1.27694 26.9225 1.73716C27.469 2.19737 27.9148 2.72949 28.26 3.33352C28.6627 4.25395 28.8353 5.04494 28.7777 5.7065C28.749 6.33929 28.7058 6.77074 28.6483 7.00085C28.6195 7.1159 28.5764 7.24534 28.5189 7.38915C28.4901 7.53297 28.4613 7.66241 28.4326 7.77746L28.1737 8.59722L28.1306 8.72665C28.7058 8.75541 29.2811 8.91361 29.8564 9.20125C30.4316 9.46012 30.9062 9.81966 31.2801 10.2799C31.6541 10.7401 31.9273 11.2434 32.0999 11.7899C32.3012 12.3365 32.4019 12.8686 32.4019 13.3863C32.4019 14.8245 31.8123 16.0469 30.633 17.0536L30.4172 17.2694C29.8132 17.7871 29.166 18.3048 28.4757 18.8226C27.8142 19.3403 27.1095 19.8293 26.3616 20.2895C24.6646 21.2962 22.9963 21.7996 21.3568 21.7996C20.6665 21.7996 19.9761 21.6989 19.2858 21.4976C18.7681 21.3825 18.2791 21.1812 17.8189 20.8935C17.3874 20.6059 17.0135 20.2751 16.6971 19.9012C16.352 20.1888 16.0212 20.4621 15.7048 20.721C15.3884 20.9511 15.0289 21.1956 14.6262 21.4544H14.6693C14.0078 21.9146 13.375 22.303 12.7709 22.6194C12.1669 22.9357 11.5916 23.209 11.0451 23.4391C10.5849 23.6404 10.0672 23.7843 9.49191 23.8706C8.9454 23.9568 8.42766 24 7.93869 24Z" fill="#FF6B6B"/>
</svg>
