<svg width="60" height="60" viewBox="0 0 60 60" fill="none" xmlns="http://www.w3.org/2000/svg">
<g id="Frame 427320053">
<rect width="60" height="60" rx="30" fill="white"/>
<g id="CVH">
<path id="Vector" d="M45.531 36.9867C45.2189 36.9867 44.8679 36.9477 44.4779 36.8697C43.2818 36.5577 42.3718 35.8426 41.7477 34.7246C41.0197 35.0106 40.2656 35.0756 39.4856 34.9196C38.6795 34.7376 37.9905 34.3215 37.4185 33.6715C36.7164 32.8654 36.4044 31.9294 36.4824 30.8633C36.5344 29.7713 36.9634 28.8742 37.7695 28.1722C38.0555 27.9381 38.3675 27.6651 38.7055 27.3531C39.0176 27.0151 39.3556 26.6771 39.7196 26.339C40.3436 25.715 40.9937 25.078 41.6697 24.4279C42.3718 23.7779 43.0478 23.2059 43.6978 22.7118C44.1399 22.3738 44.5559 22.0748 44.9459 21.8148C45.3619 21.5548 45.752 21.3337 46.116 21.1517C47.4681 20.5017 48.7942 20.3197 50.0942 20.6057C51.5763 21.0217 52.6034 21.9708 53.1754 23.4529C53.5394 24.4929 53.5264 25.585 53.1364 26.7291C53.0844 26.8591 53.0324 26.9891 52.9804 27.1191C52.9284 27.2491 52.8634 27.3921 52.7854 27.5481C53.7215 27.9901 54.3975 28.7182 54.8135 29.7323C55.1775 30.7723 55.1385 31.7864 54.6965 32.7744C54.2545 33.7365 53.5134 34.3995 52.4734 34.7636C51.6673 35.0756 50.9263 35.3616 50.2502 35.6216C49.5742 35.8556 49.0022 36.0506 48.5341 36.2066C48.2741 36.3106 48.0271 36.4017 47.7931 36.4797C47.5851 36.5577 47.4161 36.6227 47.2861 36.6747C47.026 36.7267 46.753 36.7917 46.467 36.8697C46.181 36.9477 45.869 36.9867 45.531 36.9867Z" fill="#FF6B6B"/>
<path id="Vector_2" d="M33.5713 40.4617C33.1032 40.4617 32.6092 40.3967 32.0892 40.2667C30.9191 39.9807 30.0871 39.3176 29.593 38.2776C29.255 37.6015 29.099 36.9905 29.125 36.4445C29.177 35.8724 29.216 35.4564 29.242 35.1964C29.268 35.0664 29.294 34.9364 29.32 34.8064C29.372 34.6504 29.411 34.4943 29.437 34.3383C29.255 34.4423 29.086 34.5333 28.93 34.6113C28.774 34.6633 28.605 34.7154 28.423 34.7674C28.0069 34.9234 27.5649 35.0014 27.0969 35.0014C26.2908 35.0014 25.5498 34.7804 24.8737 34.3383C24.1977 33.8703 23.7167 33.2333 23.4307 32.4272C23.0926 31.4392 23.1446 30.4511 23.5867 29.463C24.0287 28.475 24.7567 27.7989 25.7708 27.4349C25.8748 27.4089 26.1088 27.3049 26.4728 27.1229C26.8369 26.9149 27.3829 26.5379 28.1109 25.9918C28.865 25.4458 29.84 24.6527 31.0361 23.6127C32.0762 22.7026 32.9602 21.9096 33.6883 21.2335C34.4163 20.5315 34.7933 20.1675 34.8193 20.1415C35.3134 19.6474 35.8854 19.3094 36.5354 19.1274C37.2115 18.9454 37.8875 18.9584 38.5636 19.1664C39.6816 19.4524 40.4877 20.1025 40.9817 21.1165C41.1377 21.3765 41.2677 21.7796 41.3717 22.3256C41.5017 22.8456 41.4627 23.4437 41.2547 24.1197C41.2547 24.1457 41.2417 24.1717 41.2157 24.1977C41.1897 24.2237 41.1767 24.2627 41.1767 24.3147C41.1507 24.3667 41.1247 24.4317 41.0987 24.5097C41.0987 24.5877 41.0857 24.6527 41.0597 24.7047C41.0077 24.8868 40.9297 25.0818 40.8257 25.2898C40.7477 25.4978 40.6567 25.7448 40.5527 26.0308C40.4487 26.2908 40.3317 26.6029 40.2017 26.9669C40.0977 27.3049 39.9677 27.6559 39.8116 28.0199C39.8636 27.9939 39.9157 27.9679 39.9677 27.9419C40.0197 27.8899 40.0717 27.8509 40.1237 27.8249C41.0337 27.2269 42.0088 27.0449 43.0488 27.2789C44.0889 27.4869 44.895 28.0459 45.467 28.956C46.091 29.8401 46.286 30.8151 46.052 31.8812C45.844 32.9472 45.285 33.7793 44.3749 34.3773C43.7509 34.7934 43.1528 35.2094 42.5808 35.6254C42.0348 36.0154 41.4757 36.4315 40.9037 36.8735C40.2537 37.3675 39.6426 37.8225 39.0706 38.2386C38.5246 38.6546 37.9655 39.0186 37.3935 39.3306C36.9775 39.5646 36.5875 39.7467 36.2234 39.8767C35.8594 40.0327 35.4954 40.1627 35.1314 40.2667C34.5593 40.3967 34.0393 40.4617 33.5713 40.4617Z" fill="#FF6B6B"/>
<path id="Vector_3" d="M11.1764 40.6979C10.8904 40.6979 10.6174 40.6849 10.3574 40.6589C10.1234 40.6589 9.94136 40.6459 9.81135 40.6199C9.08331 40.4119 8.43327 40.0739 7.86123 39.6059C7.2892 39.1638 6.86017 38.6178 6.57416 37.9678C6.39215 37.6037 6.27514 37.2787 6.22314 36.9927C6.17113 36.6807 6.14513 36.3687 6.14513 36.0566C6.14513 35.6406 6.18413 35.2376 6.26214 34.8476C6.02812 34.6916 5.78111 34.5226 5.52109 34.3405C5.26108 34.1325 5.06606 33.9375 4.93606 33.7555C4.31202 32.9235 4 32.0394 4 31.1033C4 30.4793 4.14301 29.8813 4.42903 29.3092C4.68904 28.7372 5.05306 28.2432 5.52109 27.8271C5.6511 27.6971 5.89812 27.4501 6.26214 27.0861C6.60016 26.7221 6.91218 26.3581 7.19819 25.994L7.97824 25.136C8.34226 24.746 8.71929 24.3429 9.10931 23.9269C9.49933 23.5109 9.86336 23.1339 10.2014 22.7958C10.6174 22.4318 10.9814 22.1198 11.2934 21.8598C11.6055 21.5998 11.8785 21.3918 12.1125 21.2357C13.4646 20.4037 14.8687 20.1437 16.3247 20.4557C17.8328 20.8457 18.8339 21.6908 19.3279 22.9909L19.2889 22.9518C19.3929 23.1859 19.4709 23.4199 19.5229 23.6539C19.6009 23.8619 19.653 24.0829 19.679 24.3169C20.043 23.9269 20.368 23.5629 20.654 23.2249C20.94 22.8608 21.2 22.5358 21.4341 22.2498L21.9801 21.6258C22.0321 21.5738 22.0711 21.5218 22.0971 21.4698C22.1491 21.3918 22.1751 21.3528 22.1751 21.3528C22.7731 20.6507 23.4752 20.1567 24.2812 19.8707C25.1133 19.5586 25.9453 19.5066 26.7774 19.7147C27.3494 19.8707 27.8695 20.1567 28.3375 20.5727C28.8315 20.9887 29.2345 21.4698 29.5466 22.0158C29.9106 22.8478 30.0666 23.5629 30.0146 24.1609C29.9886 24.733 29.9496 25.123 29.8976 25.331C29.8716 25.435 29.8326 25.552 29.7806 25.682C29.7546 25.812 29.7286 25.929 29.7026 26.033L29.4685 26.7741L29.4295 26.8911C29.9496 26.9171 30.4696 27.0601 30.9896 27.3201C31.5097 27.5541 31.9387 27.8791 32.2767 28.2952C32.6147 28.7112 32.8618 29.1662 33.0178 29.6603C33.1998 30.1543 33.2908 30.6353 33.2908 31.1033C33.2908 32.4034 32.7577 33.5085 31.6917 34.4185L31.4967 34.6136C30.9506 35.0816 30.3656 35.5496 29.7416 36.0176C29.1435 36.4857 28.5065 36.9277 27.8305 37.3437C26.2964 38.2538 24.7883 38.7088 23.3062 38.7088C22.6821 38.7088 22.0581 38.6178 21.4341 38.4358C20.966 38.3318 20.524 38.1498 20.108 37.8898C19.718 37.6297 19.3799 37.3307 19.0939 36.9927C18.7819 37.2527 18.4829 37.4997 18.1969 37.7337C17.9108 37.9418 17.5858 38.1628 17.2218 38.3968H17.2608C16.6628 38.8128 16.0907 39.1638 15.5447 39.4499C14.9987 39.7359 14.4786 39.9829 13.9846 40.1909C13.5686 40.3729 13.1006 40.5029 12.5805 40.5809C12.0865 40.6589 11.6185 40.6979 11.1764 40.6979Z" fill="#FF6B6B"/>
</g>
</g>
</svg>
