<svg width="246" height="338" viewBox="0 0 246 338" fill="none" xmlns="http://www.w3.org/2000/svg">
<g clip-path="url(#clip0_1135_62442)">
<path d="M163.466 338C156.06 338 148.242 336.976 140.013 334.929C121.498 330.424 108.331 319.982 100.514 303.602C95.165 292.955 92.6962 283.332 93.1077 274.733C93.9306 265.724 94.5478 259.172 94.9592 255.077C95.3707 253.029 95.7822 250.982 96.1936 248.934C97.0165 246.477 97.6336 244.02 98.0451 241.563C95.1649 243.201 92.4905 244.634 90.0218 245.863C87.5531 246.682 84.8787 247.501 81.9986 248.32C75.4154 250.777 68.4207 252.005 61.0146 252.005C48.2597 252.005 36.5333 248.525 25.8357 241.563C15.138 234.192 7.52614 224.159 3.00019 211.465C-2.34866 195.904 -1.52576 180.343 5.46889 164.782C12.4635 149.221 23.9841 138.574 40.0307 132.841C41.6765 132.432 45.3795 130.794 51.1398 127.927C56.9001 124.651 65.5406 118.714 77.0611 110.114C88.9932 101.515 104.423 89.025 123.349 72.645C139.807 58.3126 153.797 45.8229 165.317 35.1759C176.838 24.1194 182.804 18.3865 183.215 17.977C191.033 10.1965 200.085 4.87304 210.371 2.00655C221.069 -0.859937 231.766 -0.655208 242.464 2.62077C260.156 7.12526 272.911 17.3627 280.729 33.3332C283.198 37.4281 285.255 43.7754 286.901 52.3748C288.958 60.5648 288.341 69.9833 285.049 80.6303C285.049 81.0397 284.843 81.4492 284.432 81.8587C284.02 82.2682 283.815 82.8825 283.815 83.7015C283.403 84.5205 282.992 85.5442 282.58 86.7727C282.58 88.0012 282.375 89.0249 281.963 89.8439C281.14 92.7104 279.906 95.7817 278.26 99.0577C277.026 102.334 275.586 106.224 273.94 110.728C272.294 114.823 270.443 119.737 268.385 125.47C266.74 130.794 264.682 136.322 262.214 142.055C263.036 141.645 263.859 141.236 264.682 140.827C265.505 140.008 266.328 139.393 267.151 138.984C281.552 129.565 296.981 126.699 313.439 130.384C329.897 133.66 342.652 142.465 351.704 156.797C361.579 170.72 364.665 186.076 360.962 202.866C357.67 219.655 348.824 232.759 334.423 242.177C324.548 248.729 315.085 255.281 306.033 261.833C297.393 267.976 288.546 274.528 279.495 281.489C269.208 289.27 259.539 296.436 250.487 302.988C241.847 309.54 233.001 315.273 223.949 320.187C217.366 323.872 211.194 326.739 205.434 328.786C199.673 331.243 193.913 333.291 188.153 334.929C179.101 336.976 170.872 338 163.466 338Z" fill="#DEF2FF"/>
</g>
<defs>
<clipPath id="clip0_1135_62442">
<rect width="246" height="338" fill="white"/>
</clipPath>
</defs>
</svg>
