<svg width="58" height="58" viewBox="0 0 58 58" fill="none" xmlns="http://www.w3.org/2000/svg">
<g clip-path="url(#clip0_507_15932)">
<path d="M65 33C65 50.6731 50.6731 65 33 65C15.3269 65 1 50.6731 1 33C1 15.3269 15.3269 1 33 1C50.6731 1 65 15.3269 65 33Z" fill="#D9D9D9"/>
<g clip-path="url(#clip1_507_15932)">
<rect x="1" y="1" width="56" height="56" rx="28" fill="#EBFEF4"/>
<g clip-path="url(#clip2_507_15932)">
<rect width="65.625" height="65.625" transform="translate(-3.375 1)" fill="#EBFEF4"/>
<path d="M52.0349 45.6479L52.0292 45.6335C51.0181 42.9632 49.2206 40.5017 47.22 38.4896C45.0279 36.2845 43.1944 34.3704 42.4786 31.2176C41.9471 28.8728 41.9615 26.4444 41.9226 24.042C41.8607 20.1561 41.4977 15.9764 39.2912 12.6623C37.3569 9.75285 34.2228 7.78108 30.6912 7.72779C26.1542 7.6601 21.842 10.3967 19.552 14.2538C17.1323 18.3269 16.8845 23.1231 15.1317 27.4498C14.1537 29.8651 12.5161 32.0213 11.1392 34.2336C9.11842 37.4742 6.6901 40.6674 5.75535 44.4193C3.61363 53.0698 8.30035 62.3626 16.5734 65.6508C17.3526 65.9604 18.1549 66.2125 18.9701 66.4055C19.3431 66.4933 19.719 66.5697 20.0978 66.633C25.8115 67.5951 31.6231 66.8563 37.174 65.3238C40.4463 64.4207 43.6812 63.2109 46.4452 61.2363C51.3393 57.7435 54.2645 51.5546 52.0349 45.6479Z" fill="#603813"/>
<path d="M90.8044 70.1377C89.8755 69.9303 88.9393 69.7531 88.0031 69.5788C86.9257 69.3786 85.8455 69.2029 84.7739 68.9754C84.7005 68.9595 84.5233 68.9033 84.5291 68.804C84.5305 68.7651 84.5651 68.7348 84.6025 68.7233C84.7091 68.6916 84.8474 68.742 84.9496 68.7694C85.7015 68.9725 86.4403 69.1035 87.208 69.2245C87.8763 69.3311 88.5403 69.4521 89.2028 69.586C89.6695 69.6811 90.1534 69.8395 90.6258 69.877C90.9586 69.9029 91.3172 69.8136 91.4353 69.4607C91.7809 68.4266 89.7069 68.1558 89.0948 68.0248C87.2282 67.6244 85.3774 67.1433 83.5064 66.7674C83.3394 66.7343 83.1665 66.7227 83.0153 66.6363C82.9865 66.619 82.9548 66.596 82.9462 66.5629C82.9347 66.5168 82.9692 66.4736 83.0038 66.4404C83.2573 66.2014 83.6217 66.0962 83.9357 65.9594C84.3721 65.7678 84.8589 65.5532 85.219 65.2306C85.484 64.9886 85.6741 64.5825 85.4609 64.2497C85.2838 63.9718 84.9396 63.822 84.6184 63.8076C84.2108 63.7874 83.8161 63.9401 83.433 64.0856C82.5789 64.4111 81.7176 64.7164 80.8477 65.0001C80.0454 65.2623 79.1856 65.281 78.3891 65.5647C77.8619 65.7534 77.3564 65.9954 76.8724 66.2806C76.6694 66.2071 64.4283 60.2702 58.8932 59.1713L49.3167 46.0948C48.9005 46.5629 48.4741 47.0224 48.0492 47.4833C46.8826 48.745 45.7505 50.0383 44.5781 51.2943C44.2094 51.6889 43.8364 52.0792 43.4619 52.4681C43.3179 52.6626 43.1753 52.8556 43.0312 53.05C46.4433 57.2686 52.1714 64.3491 53.8954 66.4476C54.0049 66.7213 54.1691 66.9301 54.3995 67.0511C60.3177 70.1449 75.1686 70.5251 75.3947 70.6303C75.556 70.7066 75.677 70.937 75.7966 71.0724C75.9435 71.2409 76.1005 71.4008 76.2632 71.5549C76.5902 71.8632 76.9401 72.1454 77.3103 72.4018C78.0117 72.8858 78.7809 73.266 79.5917 73.531C80.0843 73.6923 80.597 73.7427 81.1084 73.8061C82.1915 73.9401 83.2688 74.1086 84.3519 74.2324C85.4336 74.3563 86.521 74.3419 87.6056 74.3001C88.0016 74.2843 88.5245 74.267 88.752 73.8796C88.8975 73.629 88.837 73.3308 88.5734 73.194C88.3127 73.0572 87.9786 73.0816 87.692 73.06C87.3665 73.0341 87.041 73.0096 86.714 72.9866C86.1595 72.9463 85.6035 72.9103 85.049 72.8757C84.784 72.8584 84.4801 72.8973 84.2309 72.7936C84.0811 72.7331 84.2425 72.5948 84.3289 72.5732C84.5046 72.53 84.7163 72.5919 84.8935 72.6121C85.1124 72.6366 85.3327 72.6596 85.5517 72.6812C85.991 72.723 86.4317 72.7605 86.8724 72.7922C87.7309 72.857 88.5907 72.903 89.4506 72.9448C89.6839 72.9563 89.9187 72.9664 90.1477 72.9189C90.5682 72.8325 91.0954 72.3485 90.7497 71.8948C90.574 71.6644 90.2442 71.637 89.9547 71.6269C88.994 71.6097 88.0362 71.542 87.0813 71.4397C86.6031 71.3893 86.1264 71.3288 85.6496 71.2626C85.412 71.2294 85.1758 71.1949 84.9381 71.1588C84.8459 71.1444 84.4729 71.1459 84.4441 71.0321C84.4038 70.8722 84.7149 70.8967 84.7926 70.9054C85.4566 70.9875 86.122 71.0681 86.786 71.1488C87.8936 71.2842 89.0012 71.4181 90.1088 71.5535C90.6402 71.6183 91.7147 71.8905 91.9495 71.1934C92.1929 70.469 91.3273 70.2544 90.8044 70.1377Z" fill="#FFCFCA"/>
<path d="M54.9242 52.4198C52.4065 55.3278 50.3037 57.4061 47.7328 60.2651C47.4289 59.9324 47.125 59.5896 46.834 59.254C45.7711 58.0283 44.8911 56.9106 44.858 56.8674L44.8565 56.866C44.8565 56.866 44.0715 74.91 43.9405 75.5639C43.7086 76.7248 46.1643 85.7627 45.6415 86.2855C38.9657 92.9598 19.3589 91.1234 15.6977 83.932C15.2743 83.0996 21.8291 73.7333 21.8291 73.7333C21.8291 73.7333 19.1343 65.103 17.7977 60.0937C17.2561 58.0672 16.8759 56.6327 16.8744 56.6039C16.7319 57.0345 16.4827 58.1723 16.0909 59.4801C14.7831 59.0884 6.14567 57.2837 5.23828 56.866C8.28883 47.1944 12.1805 42.3161 13.9636 40.8888C15.2239 39.8806 23.5617 36.7407 32.8531 37.4393C38.0814 37.831 44.3034 40.1845 45.3606 41.1423C48.0093 43.5375 52.1703 48.8335 54.9242 52.4198Z" fill="#20CE86"/>
<path d="M35.1377 40.1696C34.5875 41.9325 32.7324 42.3459 31.0934 42.3286C29.2858 42.3084 26.8949 41.8907 26.2511 39.9118C25.8075 38.5464 26.1272 36.9793 26.133 35.5722C26.1388 34.6374 26.1085 33.7012 26.0322 32.7679C25.9861 32.1961 25.9241 31.6243 25.8421 31.0554C25.7744 30.5974 25.6995 30.1379 25.6145 29.6813C25.5569 29.3746 25.4949 29.0678 25.4287 28.7639C25.3826 28.5507 25.1262 27.976 25.374 27.8291C25.603 27.6923 26.0725 28.097 26.2626 28.2122C29.0698 29.8945 32.0022 31.3723 35.0254 32.6253C35.1449 32.6743 35.2688 32.729 35.3394 32.837C35.4071 32.9379 35.4085 33.0675 35.4085 33.1914C35.41 34.1722 35.4099 35.1559 35.4114 36.1382C35.4128 36.5199 35.4229 36.903 35.4287 37.2847C35.4474 38.2569 35.433 39.2262 35.1377 40.1696Z" fill="#FFCFCA"/>
<path d="M35.4287 37.2842C32.803 36.5612 30.2796 35.4838 27.9751 34.0435C27.3356 33.6431 26.6746 33.2197 26.0322 32.7674C25.9861 32.1956 25.9241 31.6238 25.8421 31.0549C25.7744 30.5969 25.6995 30.1374 25.6145 29.6808C25.5569 29.3741 25.4949 29.0673 25.4287 28.7634C25.3826 28.5502 25.1262 27.9755 25.374 27.8286C25.603 27.6918 26.0725 28.0965 26.2626 28.2117C29.0698 29.894 32.0022 31.3718 35.0254 32.6248C35.1449 32.6738 35.2688 32.7285 35.3394 32.8365C35.4071 32.9374 35.4085 33.067 35.4085 33.1909C35.41 34.1717 35.4099 35.1554 35.4114 36.1377C35.4128 36.5194 35.4229 36.9025 35.4287 37.2842Z" fill="#F9BFBB"/>
<path d="M39.7913 29.5066C39.2295 30.8806 38.4489 32.1294 37.1713 32.9331C36.0364 33.646 34.6724 33.996 33.3359 33.9369C31.8567 33.8721 30.4351 33.358 29.1777 32.5643C28.5512 32.1697 27.965 31.7074 27.4335 31.1961C26.5045 30.3031 25.7239 29.269 25.0527 28.1743C23.961 26.3927 23.0795 24.3619 22.6431 22.2648C22.5912 22.0228 22.5466 21.7794 22.5077 21.536C22.1678 19.3928 22.3118 17.2036 23.1803 15.1612C23.5706 14.2337 24.1194 13.3738 24.7935 12.6249C27.6337 9.46198 32.5192 8.91467 35.9903 11.3718C37.7993 12.6537 39.1489 14.5794 39.869 16.662C40.098 17.3231 40.2939 18.0015 40.4552 18.69C40.4826 18.8081 40.51 18.9291 40.5344 19.0486C41.2776 22.5125 41.1307 26.2371 39.7913 29.5066Z" fill="#FFCFCA"/>
<path d="M32.604 23.1522C32.4182 23.1608 32.1618 22.8655 32.0898 22.4248C32.0524 22.1929 32.0754 21.9625 32.1532 21.7896C32.1791 21.7291 32.254 21.5894 32.3678 21.5707L32.3851 21.5693C32.5709 21.5592 32.8272 21.8545 32.8993 22.2952C32.9367 22.5271 32.9137 22.759 32.8373 22.9303C32.81 22.9908 32.7365 23.1306 32.6213 23.1493L32.604 23.1522Z" fill="#1F3C49"/>
<path d="M38.1868 22.6102C38.0284 22.6174 37.7648 22.3553 37.6928 21.9073C37.6568 21.6841 37.6784 21.4594 37.7533 21.2923C37.8066 21.1714 37.8815 21.095 37.9564 21.0835L37.9722 21.0821C38.1306 21.0734 38.3942 21.337 38.4662 21.7835C38.5022 22.0082 38.4806 22.2329 38.4057 22.3999C38.3525 22.5195 38.2775 22.5958 38.2026 22.6088L38.1868 22.6102Z" fill="#1F3C49"/>
<path d="M35.3848 23.6232C35.5317 23.4633 35.778 23.3941 36.0099 23.4374C36.2475 23.4762 36.465 23.6462 36.5759 23.8622C36.6911 24.0754 36.7041 24.3519 36.6018 24.5694C36.5024 24.784 36.3051 24.9468 36.0905 24.9756C36.2403 24.8244 36.3253 24.6544 36.357 24.4859C36.3887 24.3188 36.3584 24.1589 36.285 24.0135C36.2086 23.8709 36.0948 23.7542 35.9393 23.6836C35.7823 23.6145 35.595 23.5857 35.3848 23.6232Z" fill="#1F3C49"/>
<path d="M32.6054 19.9257C32.5881 19.9286 32.5708 19.9271 32.5535 19.9214C32.3461 19.858 32.1186 19.8378 31.8953 19.8623C31.8651 19.8666 31.8348 19.871 31.8046 19.8753C31.603 19.9099 31.4071 19.9804 31.2371 20.0798C31.2227 20.0885 31.2083 20.0942 31.1925 20.0956C31.1709 20.0985 31.1565 20.0985 31.1435 20.0942C31.1089 20.087 31.0772 20.0654 31.0585 20.0337C31.0225 19.9732 31.0441 19.8926 31.1046 19.8566C31.3005 19.7413 31.5266 19.6607 31.76 19.6218C31.7945 19.616 31.8305 19.6103 31.8651 19.6074C32.1229 19.5786 32.3879 19.6016 32.6284 19.6736C32.6976 19.6938 32.7365 19.7658 32.7148 19.835C32.7004 19.8825 32.6616 19.9171 32.6126 19.9257H32.6054Z" fill="#1F3C49"/>
<path d="M37.0042 19.146L36.9797 19.1374C36.9509 19.1244 36.9293 19.0999 36.9163 19.0726C36.889 19.0063 36.9192 18.93 36.984 18.9012C37.3066 18.7629 37.6797 18.7254 38.0326 18.7946C38.0643 18.8003 38.0959 18.8075 38.1276 18.8162C38.214 18.8378 38.299 18.8666 38.3782 18.9012C38.443 18.93 38.4747 19.0063 38.4459 19.0711C38.4214 19.1287 38.3638 19.159 38.3033 19.1475C38.2889 19.1446 38.2832 19.1417 38.276 19.1388C38.2083 19.11 38.1363 19.0855 38.0628 19.0668C38.0369 19.0596 38.0095 19.0538 37.9836 19.0495C37.6811 18.989 37.3628 19.0207 37.0863 19.1403C37.0632 19.1503 37.0359 19.1532 37.01 19.1475L37.0042 19.146Z" fill="#1F3C49"/>
<path d="M32.4961 21.8576C32.2254 21.8014 32.1375 22.2248 32.4097 22.281C32.6819 22.3372 32.7698 21.9137 32.4961 21.8576Z" fill="white"/>
<path d="M38.1654 21.3117C37.8932 21.2555 37.8054 21.6775 38.0776 21.7351C38.3498 21.7913 38.4376 21.3678 38.1654 21.3117Z" fill="white"/>
<path d="M38.771 25.7663C38.8474 26.5211 38.712 27.2383 38.4182 27.849C37.9486 28.8298 37.0715 29.5284 36.0114 29.635C34.924 29.7459 33.9043 29.2101 33.2504 28.307C32.8644 27.7784 32.6051 27.1231 32.5317 26.3986C32.5288 26.3727 32.5302 26.3468 32.5273 26.3194L38.7595 25.6871C38.7624 25.7145 38.7681 25.7404 38.771 25.7663Z" fill="#D55454"/>
<path d="M38.5064 25.7129C37.8828 26.5237 36.9062 27.0941 35.7655 27.2093C34.6263 27.3246 33.5547 26.9616 32.7812 26.2933L38.5064 25.7129Z" fill="white"/>
<path d="M38.4178 27.849C37.9482 28.8298 37.0711 29.5284 36.011 29.635C34.9236 29.7459 33.9039 29.2101 33.25 28.307C34.2899 27.9642 35.3802 27.7712 36.4748 27.7395C37.1244 27.7208 37.7754 27.7583 38.4178 27.849Z" fill="#F37C7C"/>
<path d="M32.2559 24.8659C32.2933 25.5745 31.5429 26.1909 30.5808 26.2428C29.6172 26.2932 28.8064 25.7603 28.7689 25.0517C28.7315 24.3416 29.4819 23.7252 30.444 23.6747C31.4075 23.6229 32.2184 24.1558 32.2559 24.8659Z" fill="#F9BFBB"/>
<path d="M40.3773 23.7118C40.4032 24.1914 39.8963 24.6077 39.2453 24.6422C38.5957 24.6768 38.0484 24.3167 38.0224 23.8371C37.9965 23.3575 38.5035 22.9412 39.1531 22.9067C39.8041 22.8721 40.3514 23.2322 40.3773 23.7118Z" fill="#F9BFBB"/>
<path d="M40.6516 19.0151C38.942 18.5167 37.2151 17.4077 35.8194 15.7686C35.6351 15.554 35.4637 15.3337 35.3009 15.1119C34.2394 17.3501 32.0718 19.4097 29.1869 20.6311C26.8593 21.6163 24.4641 21.8842 22.3944 21.5342C22.0502 19.3636 22.1971 17.147 23.0757 15.0788C23.4717 14.1382 24.0263 13.2683 24.709 12.5093C27.5852 9.30604 32.5326 8.75297 36.0484 11.2404C37.8805 12.5381 39.2473 14.4897 39.9775 16.5983C40.2094 17.2666 40.4082 17.955 40.5709 18.6507C40.5983 18.7717 40.6257 18.8927 40.6516 19.0151Z" fill="#603813"/>
<path d="M26.555 27.3105C25.3898 28.1242 23.7853 28.2668 22.5035 27.6518C21.4189 27.1333 20.6081 26.092 20.3445 24.9224C20.297 24.7107 20.2682 24.4961 20.2581 24.2757C20.2393 23.8926 20.2825 23.5037 20.4122 23.1437C20.7391 22.2564 21.6422 21.6285 22.5856 21.5665C23.5304 21.506 24.4781 21.9842 25.0456 22.7418L25.626 24.499L26.555 27.3105Z" fill="#FFCFCA"/>
<path d="M35.401 37.4394C35.2585 38.6723 35.0755 39.9772 34.099 40.8601C33.242 41.635 32.0437 41.9677 30.9016 41.9591C29.6989 41.949 28.502 41.5616 27.5313 40.8616C26.4323 40.0709 26.0996 38.7415 26.0622 37.4524C26.0463 36.8489 25.0943 36.846 25.1116 37.4524C25.1533 38.9445 25.5552 40.5145 26.7823 41.4723C27.9461 42.3811 29.418 42.8838 30.9016 42.8982C32.2943 42.9111 33.736 42.4675 34.7716 41.5241C35.9411 40.4597 36.1817 38.9244 36.3531 37.4394C36.4208 36.8388 35.4687 36.8446 35.401 37.4394Z" fill="#149C64"/>
<path d="M20.01 48.6362C19.987 48.8695 19.4411 54.2519 18.9658 56.3432C18.6691 57.6496 18.2096 59.0049 17.7963 60.0938C17.2547 58.0673 16.8745 56.6327 16.873 56.6039C16.873 56.6039 18.3119 53.7276 19.0969 51.5053C19.8314 49.4212 19.9927 48.7154 20.01 48.6362Z" fill="#149C64"/>
<path d="M46.8343 59.2549C45.7713 58.0292 44.8913 56.9115 44.8582 56.8683L44.8567 56.8669C44.8567 56.8669 44.9878 52.5517 44.8567 50.7456C44.7717 49.5646 43.8399 45.6167 43.8125 45.4929C43.8788 45.6138 46.0162 49.4825 46.5563 52.0289C47.0906 54.5437 47.0013 57.3508 46.8343 59.2549Z" fill="#149C64"/>
</g>
</g>
</g>
<rect x="1" y="1" width="56" height="56" rx="28" stroke="#20CE86" stroke-width="2"/>
<defs>
<clipPath id="clip0_507_15932">
<rect x="1" y="1" width="56" height="56" rx="28" fill="white"/>
</clipPath>
<clipPath id="clip1_507_15932">
<rect x="1" y="1" width="56" height="56" rx="28" fill="white"/>
</clipPath>
<clipPath id="clip2_507_15932">
<rect width="65.625" height="65.625" fill="white" transform="translate(-3.375 1)"/>
</clipPath>
</defs>
</svg>
