<svg width="58" height="58" viewBox="0 0 58 58" fill="none" xmlns="http://www.w3.org/2000/svg">
<g clip-path="url(#clip0_507_16046)">
<path d="M65 33C65 50.6731 50.6731 65 33 65C15.3269 65 1 50.6731 1 33C1 15.3269 15.3269 1 33 1C50.6731 1 65 15.3269 65 33Z" fill="#D9D9D9"/>
<g clip-path="url(#clip1_507_16046)">
<rect x="1" y="1" width="56" height="56" rx="28" fill="#FFF1F1"/>
<g clip-path="url(#clip2_507_16046)">
<rect width="65.625" height="65.625" transform="translate(-3.375 1)" fill="#FFF1F1"/>
<path d="M-41.211 87.0776C-39.6195 85.7482 -38.028 84.4188 -36.4364 83.0894C-34.9111 81.8133 -33.5875 80.7201 -31.9067 79.6486C-31.2168 79.2093 -30.295 78.6447 -29.5605 78.2342C-25.7725 75.7626 -21.9845 73.2925 -18.1951 70.8224C-15.7984 69.2597 -13.4018 67.6955 -11.0051 66.1328C-9.43087 65.1059 -7.8523 64.0761 -6.41921 62.8605C-4.64188 61.3539 5.53669 46.1674 6.6342 44.8481C7.29241 45.7022 11.5024 49.2021 12.4285 56.14C8.8076 59.4844 0.399155 68.5453 -3.75754 71.1839C-11.1837 75.8966 -19.6613 78.191 -27.6031 81.9718C-27.8897 82.1086 -28.1835 82.8273 -28.3549 83.1067C-28.9094 84.0141 -29.3343 84.9906 -29.9522 85.8606C-30.5759 86.7391 -31.296 87.55 -32.0954 88.2745C-32.4569 88.6014 -33.0474 88.7627 -33.2663 88.1765C-33.2908 88.1333 -33.311 88.0858 -33.3239 88.0311C-33.4982 87.3757 -33.1799 86.778 -32.8515 86.2336C-32.4785 85.6114 -32.1847 84.9892 -32.1472 84.2532C-32.1371 84.0544 -32.1847 83.8369 -32.3388 83.7102C-32.431 83.6324 -32.5534 83.6007 -32.6729 83.5791C-33.0777 83.5114 -33.4493 83.5849 -33.7978 83.7332C-33.9822 83.811 -34.1593 83.9104 -34.3307 84.0213C-34.4964 84.125 -34.6548 84.2388 -34.8118 84.3554C-35.0077 84.5009 -35.1963 84.6493 -35.3865 84.7861C-35.4239 84.8135 -35.4628 84.8408 -35.5002 84.8668C-35.5348 84.8912 -35.5708 84.9157 -35.6054 84.9402C-35.8315 85.0986 -36.0576 85.2556 -36.2838 85.4126C-36.6957 85.7007 -37.1062 85.9873 -37.5181 86.2739C-37.8767 86.5245 -38.2368 86.7751 -38.5954 87.0258C-39.2234 87.4622 -39.9119 87.9605 -40.6853 88.093C-41.2643 88.1924 -41.7338 87.5155 -41.211 87.0776Z" fill="#FFCFCA"/>
<path d="M22.5026 21.1509C22.1858 20.484 21.9395 19.7711 21.7738 19.0192C20.5885 13.6455 23.9833 8.32791 29.357 7.14254C34.7307 5.95718 40.0483 9.35339 41.2337 14.7271C41.2682 14.8827 41.2985 15.0382 41.3259 15.1938C43.096 16.0681 44.4686 17.7086 44.9266 19.7869C45.0591 20.3846 45.1052 20.9824 45.0778 21.5657C47.0798 22.3665 48.6642 24.1121 49.1625 26.3763C49.9662 30.013 47.6675 33.6123 44.0307 34.4146C43.4258 34.5471 42.8223 34.5932 42.2318 34.5629C41.3763 35.3666 40.3004 35.9586 39.0718 36.2293C37.5681 36.5606 36.0731 36.3618 34.7768 35.7584C34.0005 36.3762 33.0744 36.8314 32.0403 37.0589C29.2864 37.6667 26.5556 36.4958 25.0433 34.3123C21.7292 34.5903 18.6397 32.3823 17.9038 29.0466C17.1418 25.5913 19.1784 22.172 22.5026 21.1509Z" fill="#AC1B35"/>
<path d="M34.3298 34.9887C33.4167 34.5048 32.613 33.8408 31.6912 33.3756C31.612 33.3612 31.5328 33.3482 31.4492 33.341C29.9873 33.2215 28.5312 33.0055 27.0635 32.9234C26.6084 32.8989 26.146 32.9018 25.6923 32.9594C24.2016 33.8466 22.6706 34.6618 21.0099 35.0723C20.333 35.2393 19.4962 35.4223 18.6291 35.5116C17.9954 35.7953 17.6656 36.272 17.9997 37.142C18.3209 37.9802 18.9359 38.7364 19.548 39.3989C19.7353 39.602 19.9312 39.7964 20.1342 39.9837C22.9241 42.5316 27.8701 43.8653 31.4751 42.2089C33.3331 41.3563 34.9002 39.9088 36.0582 38.3129C36.4211 37.8132 36.6804 37.2558 36.9555 36.7099C36.9771 36.6667 37.0232 36.563 37.0837 36.4319C36.1619 35.9595 35.2444 35.4756 34.3298 34.9887Z" fill="#FFCFCA"/>
<path d="M24.7754 35.9232C25.2867 36.3193 25.9406 36.4677 26.5714 36.6031C27.3319 36.7687 28.0938 36.9329 28.8702 36.9862C30.3825 37.0884 31.8055 36.7024 33.2861 36.3784C33.3552 35.507 33.4272 34.6371 33.4978 33.7657C33.5842 32.6768 33.6735 31.5851 33.8709 30.5092C33.9314 30.1808 33.999 29.8524 34.0783 29.5269C34.2684 28.716 34.5046 27.9166 34.7408 27.1144C34.9338 26.4576 35.1282 25.7979 35.3227 25.1397C34.8949 25.4724 34.5046 25.628 34.0019 25.8383C31.8832 26.7241 29.7329 27.5277 27.571 28.3041C26.9214 28.5374 26.2632 28.7707 25.5791 28.86L25.147 32.6638L24.7754 35.9232Z" fill="#FFCFCA"/>
<path d="M25.1484 32.6641C27.5206 32.3227 29.8424 31.6443 31.9985 30.6044C32.6841 30.2746 33.3956 29.9189 34.0797 29.5271C34.2698 28.7162 34.506 27.9168 34.7422 27.1146C34.9352 26.4578 35.1297 25.7982 35.3241 25.1399C34.8964 25.4727 34.506 25.6282 34.0034 25.8385C31.8847 26.7243 29.7343 27.528 27.5725 28.3043C26.9229 28.5376 26.2647 28.7709 25.5805 28.8602L25.1484 32.6641Z" fill="#F9BFBB"/>
<path d="M21.2712 26.0849C21.5722 27.3999 22.0864 28.6371 23.1133 29.5473C24.025 30.3539 25.1974 30.8695 26.4044 31.015C27.7396 31.1763 29.092 30.9257 30.3379 30.4014C30.9572 30.1393 31.552 29.8109 32.1051 29.4321C33.0701 28.7681 33.9228 27.9573 34.689 27.0744C35.932 25.6369 37.0237 23.946 37.7266 22.1298C38.5245 20.0774 38.827 17.8637 38.2969 15.6802C38.0838 14.7901 37.7194 13.9374 37.2268 13.1654C35.147 9.90746 30.8463 8.69329 27.368 10.3828C25.5561 11.2642 24.0596 12.7909 23.1047 14.5524C22.8022 15.1113 22.5243 15.6902 22.2794 16.2836C21.0047 19.3572 20.5309 22.8442 21.2712 26.0849Z" fill="#FFCFCA"/>
<path d="M33.8281 26.4148C34.7528 27.3164 36.17 27.6808 37.4116 27.3208C38.4601 27.0169 39.343 26.2017 39.7521 25.1934C39.827 25.0091 39.8846 24.8204 39.9263 24.6245C39.9998 24.2846 40.0185 23.9289 39.9551 23.5875C39.7938 22.7421 39.078 22.045 38.2398 21.8505C37.4015 21.6546 36.4811 21.9441 35.8604 22.539L35.0783 24.0297L33.8281 26.4148Z" fill="#FFCFCA"/>
<path d="M23.7378 11.9344C24.0806 11.6608 24.4263 11.39 24.7806 11.1293C24.8238 11.0962 24.8713 11.0659 24.916 11.0342C24.9318 11.0227 24.9491 11.0112 24.9664 10.9982L24.9722 10.9939C25.1421 10.883 25.3106 10.7707 25.4835 10.6655C25.8363 10.4495 26.2007 10.2507 26.5795 10.0836C26.6443 10.0548 26.7336 10.0318 26.8042 9.99722C26.941 9.95834 27.0779 9.92233 27.2161 9.89064C27.7274 8.95301 28.6248 8.23286 29.7496 7.98369C30.7377 7.76621 31.72 7.95201 32.5251 8.43018C32.8607 8.20694 33.2409 8.03842 33.6586 7.94624C35.4503 7.5516 37.2219 8.68367 37.6165 10.474C37.6425 10.5877 37.6612 10.7001 37.6741 10.8124C38.6737 11.3108 39.4486 12.2383 39.7093 13.4151C39.9095 14.3253 39.7669 15.2298 39.3694 15.9975C40.3574 16.3288 41.1524 17.1555 41.393 18.2472C41.7588 19.9036 40.7117 21.5412 39.0568 21.907C37.4005 22.2714 35.7629 21.2258 35.3985 19.5709C35.2804 19.0408 35.3092 18.5137 35.4546 18.0283C33.9423 17.8209 32.6446 16.7133 32.2615 15.152C31.9922 15.2831 31.7041 15.3868 31.3973 15.4545C29.9484 15.7728 28.5124 15.2255 27.6266 14.1554C27.1974 14.5558 26.6588 14.8496 26.0437 14.9864C24.4738 15.3321 22.9197 14.5327 22.25 13.1457C22.7426 12.7381 23.2366 12.3319 23.7378 11.9344Z" fill="#AC1B35"/>
<path d="M20.5005 38.1563L20.525 38.152C20.4025 38.1866 20.2801 38.2183 20.1562 38.2471C20.2369 38.2211 20.4054 38.1736 20.5005 38.1563Z" fill="#FFCFCA"/>
<path d="M28.5288 21.3524C28.6974 21.3726 28.9465 21.1176 29.0358 20.723C29.0834 20.5142 29.0761 20.3024 29.0157 20.1426C28.9941 20.0864 28.935 19.9553 28.8327 19.9323L28.8169 19.9294C28.6484 19.9092 28.3992 20.1642 28.3099 20.5588C28.2624 20.7676 28.271 20.9794 28.3301 21.1392C28.3517 21.1954 28.4107 21.3265 28.513 21.3495L28.5288 21.3524Z" fill="#1F3C49"/>
<path d="M23.4973 20.5471C23.6384 20.5629 23.8934 20.3382 23.9841 19.9378C24.0288 19.7362 24.0216 19.5302 23.964 19.3747C23.9222 19.2638 23.8588 19.1903 23.7911 19.1745L23.7767 19.1716C23.6341 19.1557 23.3806 19.379 23.2899 19.7808C23.2438 19.9825 23.251 20.1884 23.3086 20.344C23.3518 20.4549 23.4138 20.5283 23.4815 20.5442L23.4973 20.5471Z" fill="#1F3C49"/>
<path d="M25.9807 21.6247C25.8569 21.4706 25.6379 21.3943 25.4248 21.4202C25.2073 21.4418 24.9999 21.5829 24.8875 21.7731C24.7709 21.9617 24.7421 22.2109 24.8242 22.414C24.9005 22.6142 25.0705 22.7741 25.2649 22.8115C25.1367 22.6661 25.0705 22.5062 25.0503 22.3521C25.0301 22.198 25.0676 22.0554 25.1425 21.9286C25.2202 21.8019 25.3297 21.7025 25.4752 21.6478C25.6207 21.593 25.7935 21.5786 25.9807 21.6247Z" fill="#1F3C49"/>
<path d="M30.0107 18.414C30.0424 18.4154 30.0741 18.4024 30.0971 18.3779C30.1432 18.3319 30.1403 18.257 30.0942 18.2123C29.75 17.8825 29.2588 17.7039 28.7836 17.7327C28.7187 17.737 28.6698 17.7918 28.6741 17.8566C28.677 17.9228 28.7331 17.9718 28.798 17.9675C29.2099 17.9415 29.6333 18.0971 29.9315 18.3823C29.9531 18.4039 29.9819 18.414 30.0107 18.414Z" fill="#1F3C49"/>
<path d="M24.9451 17.4606C24.971 17.4519 24.9955 17.4361 25.0113 17.4102C25.0459 17.3554 25.0301 17.2834 24.9753 17.2474C24.6138 17.0141 24.1457 16.9349 23.7266 17.0357C23.6647 17.0515 23.6243 17.1149 23.6402 17.1783C23.6546 17.2416 23.718 17.2805 23.7813 17.2647C24.14 17.1783 24.5389 17.246 24.8486 17.4462C24.8774 17.4649 24.9134 17.4692 24.9451 17.4606Z" fill="#1F3C49"/>
<path d="M28.6987 20.184C28.9493 20.1494 29.0055 20.5368 28.7549 20.5728C28.5043 20.6089 28.4496 20.22 28.6987 20.184Z" fill="white"/>
<path d="M23.588 19.3685C23.8386 19.3325 23.8933 19.7214 23.6442 19.7574C23.3936 19.7934 23.3374 19.4045 23.588 19.3685Z" fill="white"/>
<path d="M23.2022 23.4748C23.1719 23.9861 23.2828 24.4672 23.4974 24.8719C23.8431 25.52 24.4538 25.968 25.1725 26.0112C25.9099 26.0558 26.584 25.6655 27.0002 25.0361C27.2465 24.6688 27.4035 24.2195 27.4338 23.7283C27.4338 23.711 27.4323 23.6923 27.4338 23.675L23.2079 23.4201C23.2065 23.4388 23.2036 23.4575 23.2022 23.4748Z" fill="#D55454"/>
<path d="M23.3789 23.4315C23.8225 23.9615 24.498 24.3187 25.2714 24.3648C26.0449 24.4123 26.7578 24.1372 27.2619 23.6634L23.3789 23.4315Z" fill="white"/>
<path d="M23.498 24.8719C23.8437 25.52 24.4544 25.968 25.1731 26.0112C25.9106 26.0558 26.5846 25.6655 27.0009 25.0361C26.2893 24.8345 25.5476 24.7351 24.8073 24.7437C24.368 24.7495 23.9301 24.7927 23.498 24.8719Z" fill="#F37C7C"/>
<path d="M28.1932 23.0617C28.1197 23.7026 28.765 24.3047 29.6364 24.4055C30.5063 24.5063 31.2726 24.0685 31.3474 23.4261C31.4223 22.7851 30.7756 22.1831 29.9043 22.0823C29.0343 21.9815 28.2681 22.4208 28.1932 23.0617Z" fill="#F9BFBB"/>
<path d="M21.4454 21.4228C21.395 21.8563 21.8314 22.2625 22.419 22.3302C23.0081 22.3979 23.5251 22.1026 23.5756 21.6691C23.6245 21.237 23.1896 20.8294 22.6005 20.7617C22.0128 20.694 21.4958 20.9893 21.4454 21.4228Z" fill="#F9BFBB"/>
<path d="M47.6957 103.972C47.6611 102.394 47.1225 98.6987 47.3601 95.8872C48.3539 88.5417 52.332 76.3021 52.1232 70.996C51.923 65.8873 49.8 61.0681 48.5412 56.1134C47.8326 53.3221 47.3515 50.4675 46.3807 47.7568C46.1258 47.0425 45.8349 46.341 45.5007 45.6598C44.4334 43.4892 42.9413 41.7969 41.0358 40.3206C39.4515 39.0935 37.6929 38.0925 35.8291 37.3608L34.7921 44.8935C34.8108 44.8834 34.8281 44.8763 34.8454 44.8662C34.4968 47.0367 35.2991 49.2115 36.11 51.2553C38.4303 57.0972 40.9364 62.8641 43.6269 68.5446C44.0647 69.4679 44.5112 70.4041 44.6668 71.4137C44.7878 72.203 44.7244 73.0081 44.661 73.8046C44.0662 81.323 43.5851 87.738 43.3374 95.3342C43.1228 95.9189 42.3104 97.6718 41.9461 98.9003C41.7271 99.6392 41.5096 100.378 41.3728 101.136C41.1611 102.325 41.416 103.529 41.4203 104.732C41.4218 104.984 41.4175 105.239 41.4751 105.484C41.743 106.628 42.9427 106.057 43.2726 105.275C43.3028 105.202 43.3302 105.125 43.3489 105.05C43.3763 104.955 43.3936 104.857 43.4065 104.759C43.4526 104.399 43.4209 104.022 43.4137 103.662C43.4094 103.393 43.4137 103.12 43.4742 102.857C43.5261 102.635 43.5577 102.33 43.8069 102.24C44.0359 102.158 44.3686 102.272 44.5602 102.397C44.7892 102.547 44.9462 102.772 45.0614 103.022C45.0859 103.074 45.1075 103.125 45.1277 103.178C45.1838 103.315 45.2299 103.459 45.2717 103.599C45.4258 104.104 45.5468 104.615 45.688 105.122C45.8853 105.827 45.9818 106.512 45.8435 107.237C45.7009 107.973 45.3999 108.666 45.1392 109.367C44.8612 110.119 44.4406 111.127 44.8511 111.899C45.0413 112.255 45.5511 112.242 45.8089 111.974C45.9515 111.824 46.0322 111.627 46.1099 111.437C46.6083 110.214 47.1297 109 47.4494 107.713C47.7504 106.501 47.7202 105.213 47.6957 103.972Z" fill="#FFCFCA"/>
<path d="M49.7121 55.3993C45.1781 58.8228 42.7973 60.6823 39.5926 62.0592L39.5854 62.0779C39.2901 62.9752 38.9891 63.9057 38.6838 64.8562C38.6017 65.1155 38.5167 65.3791 38.4332 65.6412C38.0832 66.7416 37.7303 67.8665 37.3817 69.0029C33.0609 70.3236 16.5046 72.9781 14.3327 73.2676C14.1123 72.0707 13.8977 70.9185 13.6831 69.6337C13.2093 66.7963 12.7325 63.3195 12.1881 57.3221C12.178 57.3437 12.1665 57.3667 12.155 57.3926C11.9533 57.806 11.55 58.6745 10.8616 60.0773C10.7708 60.2631 10.6743 60.4576 10.5735 60.6621C8.60606 58.8934 1.56445 50.8839 1.56445 50.8839C1.56445 50.8839 6.32752 42.5907 10.1184 39.7778C14.8541 36.2635 21.6047 34.6071 21.6047 34.6071C21.6047 34.6071 23.2568 36.3384 23.7565 36.7157C25.2141 37.819 26.748 38.4038 28.5729 38.5176C31.2576 38.6861 34.0863 37.4388 35.6664 35.1573C41.8121 37.6606 46.2136 40.6103 49.7121 55.3993Z" fill="#FF6B6B"/>
<path d="M10.8613 60.0771C11.5497 58.6743 11.953 57.8058 12.1547 57.3924C12.0438 56.1279 12.0985 54.8474 12.3203 53.5929C11.5454 54.8244 10.9751 56.1811 10.7821 57.5926C10.6683 58.4179 10.6884 59.2634 10.8613 60.0771Z" fill="#F98080"/>
<path d="M39.5854 62.0781C39.2901 62.9754 38.9891 63.9058 38.6838 64.8564C37.0303 62.1314 36.4211 58.8 36.9439 55.6414C37.3789 57.9358 38.2834 60.1395 39.5854 62.0781Z" fill="#F98080"/>
</g>
</g>
</g>
<rect x="1" y="1" width="56" height="56" rx="28" stroke="#FF6B6B" stroke-width="2"/>
<defs>
<clipPath id="clip0_507_16046">
<rect x="1" y="1" width="56" height="56" rx="28" fill="white"/>
</clipPath>
<clipPath id="clip1_507_16046">
<rect x="1" y="1" width="56" height="56" rx="28" fill="white"/>
</clipPath>
<clipPath id="clip2_507_16046">
<rect width="65.625" height="65.625" fill="white" transform="translate(-3.375 1)"/>
</clipPath>
</defs>
</svg>
