<svg width="58" height="58" viewBox="0 0 58 58" fill="none" xmlns="http://www.w3.org/2000/svg">
<g clip-path="url(#clip0_507_15947)">
<path d="M65 33C65 50.6731 50.6731 65 33 65C15.3269 65 1 50.6731 1 33C1 15.3269 15.3269 1 33 1C50.6731 1 65 15.3269 65 33Z" fill="#D9D9D9"/>
<g clip-path="url(#clip1_507_15947)">
<rect x="1" y="1" width="56" height="56" rx="28" fill="#EFF9FF"/>
<g clip-path="url(#clip2_507_15947)">
<rect width="63" height="63" transform="translate(-2.5 1)" fill="#EFF9FF"/>
<path d="M51.2051 43.6898C51.2051 39.2652 47.6184 35.6785 43.1952 35.6785C42.6256 35.6785 42.0711 35.7394 41.536 35.8514C40.8917 32.6228 41.4489 28.6849 41.6079 26.2984C41.9743 20.7677 41.796 13.5735 36.9621 9.60939C34.1608 7.31275 29.8371 6.68086 26.3763 7.9308C22.4259 9.35773 20.038 12.9997 18.9125 16.6542C18.1908 18.9964 17.9391 21.4134 17.3211 23.7377C16.8841 23.5344 16.3988 23.4196 15.8858 23.4196C14.2764 23.4196 12.931 24.5369 12.5785 26.0384C12.23 25.9942 11.876 25.9693 11.5152 25.9693C6.89009 25.9693 3.14024 29.7178 3.14024 34.3428C3.14024 35.3301 3.31309 36.2758 3.62557 37.1552C1.3718 38.5144 -0.136719 40.9866 -0.136719 43.8115C-0.136719 47.7203 2.7531 50.9544 6.51262 51.4978C7.35467 55.0914 10.5777 57.7697 14.4285 57.7697C14.5972 57.7697 14.7631 57.7628 14.929 57.7517C16.2287 61.0314 19.4255 63.3516 23.1684 63.3516C26.6016 63.3516 29.5786 61.3964 31.0484 58.5398C32.4684 59.5077 34.1843 60.0746 36.0329 60.0746C40.8253 60.0746 44.7259 56.2708 44.8863 51.5199C48.4978 50.7429 51.2051 47.5337 51.2051 43.6898Z" fill="#602826"/>
<path d="M74.8903 113.573C74.0897 111.568 73.2891 109.564 72.4872 107.558C71.7198 105.635 71.0492 103.977 70.0384 102.164C69.6223 101.42 69.0567 100.447 68.588 99.7072C66.337 95.5702 64.0874 91.4318 61.8378 87.2948C60.4136 84.676 58.9908 82.0586 57.568 79.4411C56.6319 77.7211 55.6945 75.9969 54.9824 74.1731C54.1002 71.9138 53.5748 69.5342 53.0964 67.156C52.1175 62.2751 51.3169 57.3306 49.6618 52.635C48.4008 49.0594 46.6006 45.5916 43.8449 42.9853C39.7604 39.1234 34.0112 37.644 28.4943 38.0187C27.5416 38.0823 26.5917 38.2053 25.6529 38.3851C23.0728 38.8815 20.5784 39.8175 18.2998 41.1283C15.9409 42.4861 14.0135 44.1495 12.4856 46.413C12.0058 47.1223 11.573 47.862 11.1776 48.6211C9.67597 51.5026 8.69843 54.6233 7.47613 57.6334C5.3067 62.9817 2.1915 68.0423 1.18076 73.7251C0.131302 79.6264 2.69481 93.9262 2.67822 102.293C2.51091 105.473 1.33839 109.523 1.05771 111.28C0.840627 112.664 0.608328 114.101 0.75904 115.503C0.918049 116.991 1.31351 118.429 1.68268 119.872C1.74076 120.098 1.8002 120.33 1.93709 120.519C2.18321 120.859 2.75288 120.952 3.01835 120.583C3.59631 119.782 3.28245 118.59 3.08611 117.707C2.90359 116.883 2.67268 116.062 2.62706 115.217C2.58281 114.386 2.79712 113.634 3.1262 112.876C3.36264 112.331 3.57696 111.778 3.82585 111.236C3.89498 111.087 3.96826 110.933 4.05122 110.788C4.08164 110.731 4.11482 110.679 4.14939 110.625C4.31807 110.362 4.52824 110.134 4.80616 110.003C5.04122 109.892 5.42975 109.816 5.67311 109.943C5.93858 110.081 5.92752 110.427 5.94964 110.683C5.97868 110.987 5.93996 111.293 5.89434 111.593C5.83073 111.995 5.7381 112.411 5.73395 112.822C5.73257 112.934 5.73809 113.046 5.7533 113.157C5.76298 113.244 5.78096 113.332 5.80308 113.419C6.05197 114.344 7.30605 115.167 7.78308 113.929C7.88401 113.664 7.91858 113.378 7.95868 113.097C8.14811 111.753 8.6196 110.445 8.56429 109.083C8.52834 108.215 8.39837 107.353 8.26702 106.495C8.04994 105.065 7.41115 102.98 7.26182 102.293C8.15365 93.7602 8.60163 86.5136 9.09248 78.0128C9.14502 77.1141 9.19895 76.2043 9.45475 75.3401C9.78383 74.2353 10.4282 73.255 11.0587 72.2913C14.9412 66.3527 18.6316 60.2896 22.1243 54.1131C23.3466 51.9534 24.5786 49.6457 24.5219 47.1637C27.7822 49.5337 32.2787 50.0881 36.0189 48.5824C40.673 59.0161 42.8466 70.5173 48.4271 80.4851C52.9028 88.477 59.537 94.7724 64.9446 102.164C65.141 102.432 65.0539 103.236 65.0719 103.577C65.1313 104.683 65.0387 105.787 65.1742 106.89C65.3124 108.005 65.5696 109.104 65.9443 110.162C66.1144 110.641 66.5762 111.081 67.0657 110.651C67.1099 110.625 67.1514 110.592 67.1915 110.547C67.6754 110.033 67.6782 109.328 67.6478 108.666C67.6132 107.912 67.652 107.196 67.981 106.503C68.0709 106.316 68.2216 106.141 68.4249 106.101C68.5479 106.076 68.6765 106.106 68.7968 106.146C69.2006 106.283 69.5047 106.533 69.7509 106.843C69.8808 107.005 69.9956 107.183 70.0979 107.37C70.1975 107.547 70.2859 107.731 70.3717 107.915C70.4795 108.144 70.5805 108.374 70.6856 108.592C70.7077 108.638 70.7284 108.682 70.7505 108.724C70.7699 108.764 70.7906 108.804 70.8114 108.844C70.94 109.1 71.0686 109.356 71.1985 109.613C71.4336 110.079 71.6686 110.545 71.9037 111.012C72.1083 111.418 72.3144 111.826 72.519 112.233C72.8785 112.944 73.2629 113.741 73.9058 114.245C74.387 114.622 75.1544 114.235 74.8903 113.573Z" fill="#FFCFCA"/>
<path d="M35.8273 40.6116C35.1761 41.0112 34.3893 41.1011 33.6316 41.1799C32.7176 41.278 31.8023 41.3748 30.8842 41.3375C29.095 41.2656 27.4717 40.6282 25.7752 40.0599C25.8042 39.0284 25.8305 37.9956 25.8609 36.9641C25.8969 35.674 25.9314 34.3812 25.8374 33.0926C25.8084 32.6985 25.7697 32.3044 25.7185 31.9131C25.5996 30.9356 25.424 29.9663 25.2498 28.9943C25.106 28.1979 24.9622 27.3987 24.8184 26.6022C25.2774 27.0475 25.7171 27.2798 26.2799 27.5909C28.6539 28.9003 31.0778 30.1198 33.5154 31.3075C34.251 31.6642 34.9922 32.0224 35.7858 32.2146L35.8079 36.7373L35.8273 40.6116Z" fill="#FFCFCA"/>
<path d="M35.8079 36.7373C33.0647 36.0321 30.4238 34.9384 28.0262 33.4437C27.2629 32.9681 26.4721 32.4607 25.7185 31.9131C25.5996 30.9356 25.424 29.9663 25.2498 28.9943C25.106 28.1978 24.9622 27.3987 24.8184 26.6022C25.2774 27.0475 25.7171 27.2797 26.2799 27.5908C28.6539 28.9002 31.0778 30.1198 33.5154 31.3075C34.251 31.6642 34.9922 32.0224 35.7858 32.2145L35.8079 36.7373Z" fill="#F9BFBB"/>
<path d="M40.4974 19.4707C40.3577 18.8208 40.1822 18.1793 39.9761 17.5543C39.3263 15.5798 38.0653 13.7422 36.3466 12.4992C33.0475 10.1154 28.3173 10.5233 25.5022 13.4339C24.8343 14.1238 24.2868 14.9203 23.8872 15.7831C22.9041 17.9 22.7825 20.2063 23.2111 22.4448C23.5858 24.4248 24.3933 26.3523 25.4082 28.0503C26.0331 29.0942 26.7646 30.0828 27.6412 30.9414C28.1431 31.4337 28.699 31.8817 29.2949 32.266C30.4937 33.0376 31.8556 33.5519 33.2825 33.6446C34.5712 33.7275 35.8972 33.4303 37.0089 32.7846C38.2616 32.0573 39.0428 30.9 39.6166 29.621C41.0284 26.4712 41.2219 22.8389 40.4974 19.4707Z" fill="#FFCFCA"/>
<path d="M26.0235 27.3873C24.7777 27.9624 23.2263 27.8242 22.1119 27.0208C21.1703 26.3433 20.5757 25.2137 20.5246 24.0577C20.5163 23.8476 20.5246 23.6374 20.5522 23.4272C20.6006 23.0595 20.7057 22.6972 20.8923 22.3764C21.3542 21.5883 22.3193 21.1444 23.2277 21.2468C24.1375 21.3505 24.9561 21.9671 25.3667 22.7843L25.6197 24.5541L26.0235 27.3873Z" fill="#FFCFCA"/>
<path d="M36.8401 11.3534C35.77 14.3898 33.5369 16.9575 30.802 18.6595C28.0684 20.3616 24.8592 21.2272 21.6431 21.3945C21.4149 21.4069 22.0786 17.1607 22.2003 16.7528C22.8529 14.5862 24.2715 12.6601 26.1437 11.388C26.4244 11.1972 26.7147 11.0216 27.0134 10.8626C28.8648 9.87674 31.037 9.52139 33.1097 9.82281C33.9628 9.94587 34.7965 10.1657 35.5584 10.5667C35.7063 10.6441 36.9051 11.1695 36.8401 11.3534Z" fill="#602826"/>
<path d="M41.5549 73.5982C42.1577 68.7961 42.614 64.0037 43.5861 59.257C44.4489 55.0453 45.4361 50.5875 43.8336 46.4339C43.1588 45.7205 42.3444 45.1328 41.5037 44.6143C34.3138 40.1801 25.2876 40.6336 17.3178 43.4321C16.8919 50.0262 17.7492 56.6506 18.3023 63.2529C18.4682 64.2001 18.5871 65.1555 18.6977 66.1109C19.3946 72.0855 19.7693 78.0877 20.1731 84.0872C20.3625 84.0609 20.5561 84.0444 20.7538 84.0374C22.1019 83.9918 23.4431 84.2144 24.7732 84.4384C28.1968 85.0108 31.6189 85.5833 35.0411 86.1557C36.3671 86.3783 37.7 86.6023 39.0052 86.9189C39.7712 83.4761 40.587 80.0429 41.4 76.611C41.3779 75.6169 41.4263 74.6158 41.5549 73.5982Z" fill="#FFCFCA"/>
<path d="M52.7986 60.2977C51.7035 61.6721 50.3983 62.5833 48.9008 63.2C48.4819 63.3715 48.103 63.5152 47.7449 63.6369C46.2516 64.1444 45.1468 64.2674 43.2982 64.4734L41.8146 79.3318C39.9189 79.9001 37.9403 80.1393 35.9672 80.2084C32.9073 80.3135 29.8115 80.1268 26.7627 79.8766C23.9517 79.647 21.0909 79.1921 18.5523 77.8979C18.6187 74.3016 18.5426 70.7038 18.3324 67.1116C18.2467 65.6114 18.1375 64.1126 18.0047 62.6151C18.002 62.5971 18.0006 62.5792 17.9992 62.5612C17.63 63.0908 17.2526 63.4945 16.9456 64.0614C13.305 61.6514 10.0723 58.7865 7.21289 55.504C7.27511 55.356 7.33595 55.2067 7.39678 55.0546C7.74937 54.1807 8.17801 53.3677 8.65227 52.5519C9.6644 50.8028 10.6959 49.0537 11.7896 47.353C11.9928 47.035 12.2016 46.7225 12.4173 46.4128C13.8622 44.3291 15.5878 42.4307 17.6743 40.9761C18.7901 40.1976 19.9861 39.5533 21.2527 39.0569C21.9081 38.7998 25.5611 37.7973 25.5985 37.8595C26.0437 38.5951 26.4944 38.8841 27.3144 39.1371C29.2874 39.7469 31.4016 39.8008 33.4493 39.5312C34.5873 39.3805 36.1677 38.3697 36.1677 38.3697C36.1677 38.3697 39.7336 39.3874 41.556 40.488C42.3497 40.965 43.0936 41.5236 43.8043 42.1168C45.9668 43.9198 47.6066 46.1515 48.7916 48.6984C50.0084 51.3117 50.7827 54.095 51.687 56.8244C52.0686 57.9776 52.4446 59.1349 52.7986 60.2977Z" fill="#00AEFF"/>
<path d="M44.0987 57.3639C44.136 56.696 44.165 56.024 44.1167 55.3562C44.0613 54.5653 43.8968 53.7896 43.7115 53.0264C43.2981 51.3271 42.7796 49.6609 42.1602 48.0473C42.297 48.3114 42.4491 48.57 42.6012 48.8244C43.6922 50.6758 44.7278 52.642 45.0583 54.8391C45.3113 56.5121 45.144 58.2585 45.5381 59.8956C45.8837 61.3225 46.6511 62.6001 47.6494 63.5486C47.6812 63.5776 47.713 63.6081 47.7448 63.6371C46.2515 64.1446 45.1468 64.2676 43.2981 64.4736C43.6783 61.9654 43.9549 59.9025 44.0987 57.3639Z" fill="#0081BC"/>
<path d="M31.321 18.9684C31.498 18.9505 31.6777 18.9643 31.8547 18.9781C32.17 19.0044 32.4852 19.0293 32.7991 19.0555C32.9042 19.0638 33.0341 19.0583 33.0798 18.9643C33.1019 18.9173 33.095 18.8606 33.0756 18.8136C32.9982 18.6324 32.7756 18.5702 32.5806 18.5453C32.0953 18.4845 31.5837 18.5177 31.1302 18.7099C31.0417 18.7472 30.5342 18.9781 30.5702 19.097C30.602 19.2021 31.2187 18.9781 31.321 18.9684Z" fill="#211A17"/>
<path d="M38.1863 18.7542C38.0079 18.75 37.831 18.7763 37.654 18.8039C37.3429 18.8523 37.0304 18.9021 36.7179 18.9505C36.6142 18.9657 36.4842 18.9699 36.4317 18.88C36.4054 18.8344 36.4082 18.7777 36.4248 18.7293C36.4884 18.5426 36.7068 18.4638 36.899 18.4251C37.3788 18.3283 37.8918 18.3255 38.3578 18.4818C38.449 18.5136 38.9717 18.7072 38.9454 18.8274C38.9205 18.9353 38.2886 18.7569 38.1863 18.7542Z" fill="#211A17"/>
<path d="M37.628 27.0321C37.2741 27.9516 36.6256 28.5835 35.8375 28.6499C35.0798 28.7121 34.3608 28.2323 33.863 27.4386C33.5215 26.8939 33.2836 26.1998 33.209 25.431L33.3569 25.4186L37.7414 25.0563L37.9046 25.0425C37.9544 25.7711 37.8479 26.4583 37.628 27.0321Z" fill="#CE7872"/>
<path d="M37.7419 25.0566C37.2538 25.7949 36.5099 26.2899 35.6416 26.3632C34.7747 26.4351 33.9589 26.0659 33.3574 25.4188L37.7419 25.0566Z" fill="white"/>
<path d="M37.6283 27.0321C37.2744 27.9516 36.6259 28.5835 35.8378 28.6499C35.08 28.7121 34.361 28.2323 33.8633 27.4386C34.0762 27.2976 34.3002 27.1732 34.5339 27.0695C35.21 26.7694 35.9691 26.6381 36.6978 26.7542C37.0227 26.8054 37.331 26.9035 37.6283 27.0321Z" fill="#EA8C8B"/>
<path d="M33.0584 21.8071C33.0764 22.4044 32.7487 22.8994 32.327 22.9119C31.9053 22.9243 31.5499 22.4501 31.532 21.8527C31.514 21.2554 31.8403 20.7604 32.262 20.748C32.6837 20.7355 33.0405 21.2098 33.0584 21.8071Z" fill="#211A17"/>
<path d="M32.5041 21.46C32.2594 21.4669 32.2705 21.85 32.5166 21.8417C32.7613 21.8348 32.7502 21.4531 32.5041 21.46Z" fill="white"/>
<path d="M37.1316 21.6838C37.1495 22.2811 37.5063 22.7554 37.928 22.7429C38.3497 22.7305 38.676 22.2355 38.6581 21.6382C38.6401 21.0408 38.2847 20.5666 37.863 20.579C37.4413 20.5915 37.1136 21.0865 37.1316 21.6838Z" fill="#211A17"/>
<path d="M38.1206 21.1779C37.8744 21.1848 37.8855 21.5664 38.1316 21.5595C38.3777 21.5526 38.3667 21.1709 38.1206 21.1779Z" fill="white"/>
<path d="M35.8262 23.0283C35.5773 22.8348 35.1901 22.8403 34.9551 23.0519L35.6367 24.2285C35.8262 24.2161 35.981 24.0585 36.0515 23.8815C36.1677 23.5883 36.0751 23.2219 35.8262 23.0283Z" fill="#CE7872"/>
<path d="M31.9596 24.8583C32.0232 25.7694 31.1646 26.5728 30.0418 26.6502C28.9205 26.7276 27.9581 26.0515 27.8959 25.1403C27.8323 24.2277 28.6909 23.4258 29.8137 23.347C30.935 23.2695 31.8974 23.9457 31.9596 24.8583Z" fill="#F9BFBB"/>
<path d="M40.6179 23.9024C40.6538 24.414 40.1726 24.8648 39.5421 24.9076C38.9116 24.9519 38.3724 24.5716 38.3378 24.06C38.3019 23.5484 38.783 23.0977 39.4136 23.0548C40.0441 23.0106 40.5833 23.3908 40.6179 23.9024Z" fill="#F9BFBB"/>
</g>
</g>
</g>
<rect x="1" y="1" width="56" height="56" rx="28" stroke="#00AEFF" stroke-width="2"/>
<defs>
<clipPath id="clip0_507_15947">
<rect x="1" y="1" width="56" height="56" rx="28" fill="white"/>
</clipPath>
<clipPath id="clip1_507_15947">
<rect x="1" y="1" width="56" height="56" rx="28" fill="white"/>
</clipPath>
<clipPath id="clip2_507_15947">
<rect width="63" height="63" fill="white" transform="translate(-2.5 1)"/>
</clipPath>
</defs>
</svg>
