<svg fill="none" height="300" viewBox="0 0 300 300" width="300" xmlns="http://www.w3.org/2000/svg" xmlns:xlink="http://www.w3.org/1999/xlink"><clipPath id="a"><rect height="300" rx="20" width="300"/></clipPath><g clip-path="url(#a)"><rect fill="#ff6b6b" height="300" rx="20" width="300"/><g fill="#fff"><path d="m228.15 130.078c1.722 0 3.141.255 4.256.764 1.14.485 2.05 1.128 2.729 1.928.703.801 1.213 1.71 1.528 2.729.339 1.019.57 2.061.691 3.129-.073.557-.158 1.309-.255 2.255-.097.922-.194 1.965-.291 3.129-.072 1.14-.133 2.353-.181 3.638-.049 1.285-.073 2.559-.073 3.82v.873c0 .291.012.558.036.8.146.073.279.122.4.146.146.024.279.036.401.036.388 0 .654-.145.8-.436.17-.291.255-.679.255-1.164 0-2.038.06-4.051.181-6.04.122-2.013.267-3.904.437-5.675.194-1.77.4-3.371.618-4.802.243-1.431.461-2.595.655-3.493 1.068-.776 2.268-1.322 3.602-1.637 1.358-.339 2.838-.509 4.438-.509 1.674 0 3.141.194 4.403.582 1.261.364 2.304.849 3.128 1.455.849.607 1.48 1.298 1.892 2.074.437.776.655 1.576.655 2.401 0 .145-.049.631-.146 1.455-.097.801-.254 1.868-.473 3.202-.194 1.334-.448 2.898-.764 4.693-.291 1.77-.654 3.674-1.091 5.712-.412 2.037-.885 4.183-1.419 6.439-.509 2.231-1.079 4.487-1.71 6.767-1.067 3.832-2.364 6.948-3.892 9.35-1.504 2.425-3.166 4.317-4.985 5.675-1.794 1.382-3.686 2.328-5.675 2.838-1.989.509-3.99.764-6.003.764-2.061 0-3.844-.267-5.348-.801-1.503-.509-2.753-1.212-3.747-2.11-.97-.873-1.698-1.892-2.183-3.056s-.727-2.389-.727-3.674c0-1.237.169-2.414.509-3.529.364-1.14.958-2.316 1.783-3.529.194-.049.448-.085.764-.109.339-.025.654-.037.946-.037.727 0 1.455.049 2.182.146.728.073 1.31.145 1.747.218l5.711 1.055c.267.049.534.097.801.146.267.048.533.072.8.072.412 0 .752-.084 1.019-.254.291-.17.436-.57.436-1.201l-8.585-1.637c-.898-.364-1.832-.982-2.802-1.855-.946-.873-1.843-2.074-2.692-3.602-.849-1.552-1.625-3.48-2.328-5.784-.679-2.305-1.201-5.057-1.565-8.259-.655-.849-1.212-1.892-1.673-3.129-.485-1.261-.728-2.668-.728-4.22 0-1.334.17-2.668.51-4.002.339-1.334.897-2.583 1.673-3.747z"/><path d="m197.842 120.328c.242-.145.63-.351 1.164-.618s1.164-.522 1.892-.764c.752-.267 1.601-.485 2.546-.655.946-.194 1.953-.291 3.02-.291 1.746 0 3.238.194 4.475.582 1.261.388 2.292.934 3.092 1.637.801.679 1.383 1.504 1.746 2.474.388.97.583 2.05.583 3.238v25.576c0 1.673.181 3.116.545 4.329.364 1.188 1.055 2.098 2.074 2.728.024.194.036.437.036.728v.618c0 3.517-.897 6.161-2.692 7.931-1.77 1.771-4.244 2.656-7.422 2.656-1.43 0-2.813-.206-4.147-.618-1.334-.413-2.51-1.104-3.529-2.074-1.018-.97-1.843-2.243-2.474-3.82-.606-1.576-.909-3.529-.909-5.857z"/><path d="m178.923 146.341c.606 0 1.055-.122 1.346-.364.315-.267.473-.607.473-1.019 0-.485-.182-.824-.546-1.019-.339-.194-.752-.291-1.237-.291-.679 0-1.224.194-1.637.583-.388.363-.63.861-.727 1.491.242.146.558.291.946.437.388.121.848.182 1.382.182zm.473 24.629c-3.323 0-6.33-.473-9.022-1.419-2.693-.97-4.997-2.352-6.913-4.147-1.892-1.819-3.359-4.026-4.402-6.621-1.018-2.595-1.528-5.518-1.528-8.768 0-3.42.546-6.439 1.637-9.059 1.116-2.619 2.608-4.814 4.475-6.585 1.892-1.77 4.087-3.104 6.585-4.001 2.498-.898 5.13-1.347 7.895-1.347 2.934 0 5.578.437 7.931 1.31 2.352.849 4.353 2.025 6.002 3.529 1.674 1.504 2.959 3.262 3.857 5.275.897 2.013 1.346 4.16 1.346 6.44 0 2.158-.388 4.014-1.164 5.566-.752 1.552-1.807 2.838-3.165 3.856-1.359.995-2.972 1.734-4.839 2.219-1.868.485-3.893.728-6.076.728-1.649 0-3.25-.194-4.802-.582-1.528-.388-2.838-.91-3.929-1.564-.121.097-.206.23-.255.4-.024.145-.036.279-.036.4 0 .364.267.728.8 1.091.534.34 1.225.655 2.074.946.849.267 1.819.497 2.911.691 1.091.17 2.182.255 3.274.255 1.504 0 2.874-.097 4.111-.291 1.237-.218 2.34-.473 3.31-.764.995-.315 1.856-.655 2.583-1.019.728-.363 1.334-.715 1.819-1.055.316.267.583.667.801 1.201.242.509.449 1.079.618 1.71.17.63.291 1.285.364 1.964.097.655.146 1.262.146 1.819 0 .558-.037 1.092-.11 1.601-.048.485-.121.91-.218 1.274-.776.654-1.625 1.285-2.546 1.891-.922.582-2.013 1.104-3.275 1.565-1.261.436-2.728.788-4.402 1.055-1.649.291-3.601.436-5.857.436z"/><path d="m131.554 130.078c1.504 0 2.753.243 3.748.728 1.018.485 1.819 1.164 2.401 2.037-.315.34-.619.752-.91 1.237-.267.485-.509.97-.727 1.455-.194.461-.352.91-.473 1.346-.122.413-.182.74-.182.983 0 .291.109.557.327.8.219.218.558.327 1.019.327.461-1.794 1.103-3.298 1.928-4.511.849-1.212 1.807-2.183 2.874-2.91 1.092-.728 2.256-1.237 3.493-1.528 1.261-.316 2.534-.473 3.82-.473 1.043 0 2.001.073 2.874.218.873.121 1.661.291 2.364.509.704.219 1.322.473 1.856.764.533.267.982.534 1.346.801.388 1.018.667 2.098.837 3.238.169 1.14.254 2.255.254 3.347 0 1.964-.182 3.601-.545 4.911-.34 1.31-.716 2.389-1.128 3.238-.388.194-.873.388-1.455.582s-1.225.364-1.929.509c-.679.146-1.406.267-2.182.364-.776.073-1.54.109-2.292.109-.801 0-1.516-.024-2.147-.072-.606-.049-1.164-.11-1.673-.182-.51-.097-.983-.194-1.419-.291-.412-.122-.837-.231-1.273-.328-.195.194-.292.473-.292.837 0 .34.219.606.655.8.461.194 1.274.401 2.438.619v18.263c-.825.533-1.662.97-2.51 1.31-.849.315-1.686.557-2.511.727-.8.194-1.576.315-2.328.364-.728.073-1.407.109-2.037.109-1.359 0-2.632-.133-3.82-.4-1.189-.243-2.232-.619-3.129-1.128-.873-.533-1.564-1.2-2.074-2.001-.509-.8-.764-1.758-.764-2.874v-18.736c-.727-1.019-1.273-2.171-1.637-3.456-.339-1.285-.509-2.632-.509-4.038 0-1.164.17-2.45.509-3.857.364-1.406.91-2.655 1.637-3.747z"/><path d="m103.904 153.616c-.558 0-.958.146-1.2.437-.219.267-.328.582-.328.946 0 .485.17.825.51 1.019.363.194.788.291 1.273.291.776 0 1.37-.194 1.783-.582.412-.389.618-1.092.618-2.111zm18.882-1.782c0 1.673.182 3.056.545 4.147.364 1.092 1.055 1.953 2.074 2.583.024.194.037.437.037.728v.618c0 1.844-.292 3.432-.874 4.766s-1.346 2.438-2.292 3.311c-.921.849-1.976 1.479-3.165 1.892-1.188.412-2.401.618-3.638.618-.873 0-1.734-.109-2.583-.327-.824-.194-1.613-.498-2.365-.91-.727-.412-1.394-.934-2-1.564-.583-.655-1.043-1.419-1.383-2.292-.412 0-.728.109-.946.327-.194.218-.291.51-.291.873 0 .34.109.704.328 1.092.218.388.533.788.945 1.2-.776.534-1.819.934-3.128 1.201-1.31.267-2.644.4-4.002.4-2.2072 0-4.2203-.303-6.0393-.909-1.7948-.607-3.347-1.504-4.6567-2.693-1.2855-1.188-2.292-2.631-3.0196-4.329-.7034-1.722-1.0551-3.699-1.0551-5.93 0-2.304.376-4.293 1.1278-5.966.7762-1.698 1.8191-3.093 3.1288-4.184 1.3097-1.116 2.8255-1.94 4.5476-2.474 1.7462-.534 3.5895-.8 5.5298-.8.8727 0 1.6497.036 2.3287.109.679.048 1.261.109 1.746.182.558.097 1.031.194 1.419.291.073-.243.109-.449.109-.619 0-.315-.17-.582-.509-.8-.316-.218-.74-.376-1.274-.473-.533-.121-1.152-.206-1.855-.255-.704-.048-1.419-.073-2.1466-.073-1.6493 0-3.2985.182-4.9478.546-1.6492.364-3.1287.922-4.4384 1.674-.5336-.898-.9701-2.038-1.3097-3.42-.3153-1.383-.4729-2.789-.4729-4.22 0-.679.0363-1.358.1091-2.038.097-.703.2789-1.321.5457-1.855.6306-.291 1.431-.606 2.4011-.946.9944-.364 2.1344-.691 3.4198-.982 1.3097-.315 2.7407-.582 4.2929-.8 1.5768-.219 3.2618-.328 5.0568-.328 3.129 0 5.857.352 8.186 1.055 2.352.703 4.305 1.722 5.857 3.056 1.552 1.31 2.716 2.935 3.493 4.875.776 1.916 1.164 4.087 1.164 6.512z"/><path d="m65.3022 170.824c-3.6865 0-7.0214-.545-10.0046-1.637-2.9832-1.115-5.542-2.728-7.6763-4.838-2.1101-2.135-3.7472-4.742-4.9114-7.822-1.1399-3.105-1.7099-6.633-1.7099-10.587 0-4.074.6549-7.616 1.9646-10.623 1.3339-3.032 3.0923-5.554 5.2751-7.567 2.2071-2.013 4.7295-3.517 7.5672-4.511 2.8619-.995 5.8209-1.492 8.8769-1.492 3.0802 0 5.9058.4 8.4766 1.201 2.5709.8 4.7659 1.891 6.5849 3.274 1.8433 1.382 3.2743 3.007 4.2929 4.875 1.0187 1.867 1.528 3.88 1.528 6.039 0 1.722-.2789 3.189-.8367 4.402-.5579 1.213-1.334 2.207-2.3284 2.983-.9701.752-2.1464 1.31-3.5289 1.674s-2.8862.546-4.5112.546c-1.0186 0-2.0373-.134-3.056-.401-.9944-.291-1.916-.642-2.7649-1.055-.8489-.412-1.5765-.849-2.1828-1.309-.5821-.485-.958-.91-1.1278-1.274 0-.63 0-1.358 0-2.183.0242-.824.0606-1.661.1091-2.51-.0727-.024-.1698-.036-.291-.036-.097 0-.1698 0-.2183 0-.3638 0-.6549.109-.8731.327-.1941.194-.3517.558-.473 1.092-.1213.509-.2061 1.212-.2547 2.11-.0242.897-.0363 2.037-.0363 3.42 0 1.867.0363 3.468.1091 4.802.097 1.309.2183 2.389.3638 3.238.1455.824.3274 1.431.5457 1.819s.4608.582.7276.582c.2426 0 .4609-.061.6549-.182v-3.311c.8489-.582 1.8918-1.103 3.1287-1.564 1.237-.461 2.5467-.849 3.9291-1.164 1.4067-.34 2.8498-.595 4.3293-.764 1.4795-.194 2.8862-.291 4.2202-.291.6548.679 1.249 1.54 1.7826 2.583.5578 1.043 1.0308 2.17 1.4189 3.383.4123 1.188.7397 2.401.9822 3.638.2426 1.213.376 2.328.4002 3.347-.4608.898-1.2491 1.916-2.3647 3.056-1.1157 1.116-2.5345 2.183-4.2566 3.202-1.722.994-3.7472 1.831-6.0755 2.51-2.3284.679-4.9235 1.018-7.7855 1.018z"/></g></g></svg>