<svg width="28" height="28" viewBox="0 0 28 28" fill="none" xmlns="http://www.w3.org/2000/svg">
<g id="users-three (1)">
<path id="Vector" d="M26.7748 16.45C26.6829 16.5189 26.5783 16.5691 26.467 16.5976C26.3557 16.6261 26.2399 16.6324 26.1261 16.6162C26.0123 16.5999 25.9029 16.5614 25.804 16.5029C25.7052 16.4443 25.6188 16.3669 25.5498 16.275C25.0225 15.5661 24.336 14.9909 23.5457 14.5958C22.7554 14.2006 21.8834 13.9965 20.9998 14C20.8278 14 20.6595 13.9492 20.5162 13.8541C20.3728 13.759 20.2606 13.6237 20.1938 13.4651C20.1483 13.3575 20.1249 13.2418 20.1249 13.125C20.1249 13.0081 20.1483 12.8925 20.1938 12.7848C20.2606 12.6263 20.3728 12.491 20.5162 12.3959C20.6595 12.3007 20.8278 12.25 20.9998 12.25C21.4908 12.2499 21.9719 12.1122 22.3885 11.8524C22.8051 11.5927 23.1405 11.2213 23.3566 10.7805C23.5727 10.3396 23.6609 9.84702 23.6111 9.3586C23.5612 8.87018 23.3755 8.40552 23.0748 8.0174C22.7741 7.62928 22.3706 7.33326 21.9102 7.16296C21.4497 6.99266 20.9507 6.9549 20.4699 7.05398C19.989 7.15307 19.5456 7.38501 19.1899 7.72348C18.8343 8.06194 18.5807 8.49336 18.458 8.96872C18.4292 9.08004 18.3789 9.1846 18.3097 9.27645C18.2406 9.3683 18.154 9.44564 18.055 9.50403C17.956 9.56243 17.8464 9.60076 17.7326 9.61682C17.6188 9.63287 17.5029 9.62635 17.3916 9.59763C17.2802 9.5689 17.1757 9.51853 17.0838 9.44939C16.992 9.38025 16.9146 9.2937 16.8562 9.19468C16.7978 9.09565 16.7595 8.98609 16.7435 8.87226C16.7274 8.75842 16.7339 8.64254 16.7627 8.53122C16.933 7.87203 17.2549 7.2617 17.7026 6.74879C18.1504 6.23588 18.7116 5.83455 19.3418 5.57673C19.9719 5.31891 20.6535 5.21171 21.3324 5.26368C22.0112 5.31564 22.6686 5.52532 23.2522 5.87605C23.8357 6.22677 24.3294 6.70885 24.6939 7.28393C25.0583 7.85901 25.2835 8.51121 25.3516 9.18865C25.4196 9.86609 25.3286 10.5501 25.0858 11.1861C24.843 11.8222 24.4551 12.3928 23.953 12.8526C25.1428 13.3678 26.1771 14.1853 26.9531 15.2239C27.0221 15.316 27.0721 15.4209 27.1005 15.5324C27.1289 15.644 27.1349 15.76 27.1184 15.8739C27.1018 15.9878 27.0629 16.0973 27.004 16.1962C26.945 16.295 26.8672 16.3813 26.7748 16.45ZM20.8817 23.1875C20.945 23.2871 20.9875 23.3984 21.0067 23.5149C21.0258 23.6313 21.0212 23.7504 20.9932 23.8651C20.9651 23.9797 20.9141 24.0874 20.8433 24.1819C20.7725 24.2763 20.6834 24.3554 20.5812 24.4144C20.479 24.4735 20.366 24.5113 20.2488 24.5255C20.1317 24.5397 20.0128 24.5301 19.8995 24.4972C19.7862 24.4644 19.6806 24.4089 19.5893 24.3342C19.498 24.2595 19.4227 24.167 19.368 24.0625C18.8168 23.1291 18.0318 22.3557 17.0904 21.8183C16.149 21.281 15.0838 20.9984 13.9998 20.9984C12.9159 20.9984 11.8507 21.281 10.9093 21.8183C9.96794 22.3557 9.18292 23.1291 8.63172 24.0625C8.57702 24.167 8.50173 24.2595 8.41039 24.3342C8.31904 24.4089 8.21353 24.4644 8.10019 24.4972C7.98685 24.5301 7.86803 24.5397 7.75088 24.5255C7.63374 24.5113 7.52068 24.4735 7.41851 24.4144C7.31634 24.3554 7.22717 24.2763 7.15637 24.1819C7.08557 24.0874 7.0346 23.9797 7.00652 23.8651C6.97844 23.7504 6.97384 23.6313 6.993 23.5149C7.01215 23.3984 7.05466 23.2871 7.11797 23.1875C7.96628 21.7299 9.25974 20.5829 10.8083 19.915C9.93692 19.2478 9.29653 18.3244 8.97713 17.2745C8.65772 16.2246 8.67536 15.1009 9.02756 14.0616C9.37977 13.0222 10.0488 12.1193 10.9407 11.4798C11.8326 10.8404 12.9024 10.4965 13.9998 10.4965C15.0973 10.4965 16.1671 10.8404 17.059 11.4798C17.9509 12.1193 18.6199 13.0222 18.9721 14.0616C19.3243 15.1009 19.342 16.2246 19.0226 17.2745C18.7032 18.3244 18.0628 19.2478 17.1914 19.915C18.7399 20.5829 20.0334 21.7299 20.8817 23.1875ZM13.9998 19.25C14.6921 19.25 15.3688 19.0447 15.9443 18.6601C16.5199 18.2755 16.9685 17.7289 17.2334 17.0894C17.4983 16.4498 17.5676 15.7461 17.4326 15.0672C17.2975 14.3882 16.9642 13.7646 16.4747 13.2751C15.9852 12.7856 15.3616 12.4523 14.6827 12.3172C14.0037 12.1822 13.3 12.2515 12.6605 12.5164C12.0209 12.7813 11.4743 13.2299 11.0897 13.8055C10.7051 14.381 10.4998 15.0577 10.4998 15.75C10.4998 16.6782 10.8686 17.5685 11.525 18.2248C12.1813 18.8812 13.0716 19.25 13.9998 19.25ZM7.87484 13.125C7.87484 12.8929 7.78266 12.6703 7.61856 12.5063C7.45447 12.3422 7.23191 12.25 6.99984 12.25C6.50889 12.2499 6.02779 12.1122 5.61118 11.8524C5.19458 11.5927 4.85918 11.2213 4.64307 10.7805C4.42696 10.3396 4.3388 9.84702 4.38862 9.3586C4.43844 8.87018 4.62424 8.40552 4.9249 8.0174C5.22556 7.62928 5.62904 7.33326 6.08951 7.16296C6.54998 6.99266 7.04899 6.9549 7.52984 7.05398C8.01069 7.15307 8.45412 7.38501 8.80975 7.72348C9.16539 8.06194 9.41898 8.49336 9.54172 8.96872C9.59973 9.19353 9.74468 9.38609 9.94467 9.50403C10.1447 9.62198 10.3833 9.65564 10.6081 9.59763C10.8329 9.53961 11.0255 9.39467 11.1434 9.19468C11.2614 8.99469 11.295 8.75603 11.237 8.53122C11.0667 7.87203 10.7448 7.2617 10.2971 6.74879C9.84933 6.23588 9.28806 5.83455 8.65792 5.57673C8.02778 5.31891 7.34616 5.21171 6.6673 5.26368C5.98844 5.31564 5.33107 5.52532 4.74751 5.87605C4.16395 6.22677 3.6703 6.70885 3.30583 7.28393C2.94137 7.85901 2.71615 8.51121 2.64811 9.18865C2.58006 9.86609 2.67106 10.5501 2.91386 11.1861C3.15666 11.8222 3.54457 12.3928 4.04672 12.8526C2.85812 13.3683 1.825 14.1857 1.04984 15.2239C0.91046 15.4095 0.850535 15.6429 0.883251 15.8728C0.915967 16.1026 1.03865 16.31 1.2243 16.4494C1.40995 16.5888 1.64337 16.6487 1.8732 16.616C2.10304 16.5833 2.31046 16.4606 2.44984 16.275C2.97723 15.5661 3.6637 14.9909 4.45399 14.5958C5.24427 14.2006 6.11629 13.9965 6.99984 14C7.23191 14 7.45447 13.9078 7.61856 13.7437C7.78266 13.5796 7.87484 13.357 7.87484 13.125Z" fill="#A6ACBA"/>
</g>
</svg>
