<svg width="12" height="12" viewBox="0 0 12 12" fill="none" xmlns="http://www.w3.org/2000/svg">
<path d="M11.0625 4.00591C10.9923 3.92573 10.9058 3.86144 10.8088 3.81731C10.7118 3.77318 10.6065 3.75022 10.5 3.74997H8.79515L6.28124 0.877937C6.24605 0.838035 6.20277 0.806077 6.15428 0.784187C6.10579 0.762297 6.05319 0.750977 5.99999 0.750977C5.94678 0.750977 5.89419 0.762297 5.8457 0.784187C5.79721 0.806077 5.75393 0.838035 5.71874 0.877937L3.20483 3.74997H1.49999C1.39314 3.74997 1.28753 3.7728 1.19023 3.81693C1.09292 3.86106 1.00617 3.92547 0.93578 4.00585C0.865388 4.08623 0.812982 4.18072 0.782072 4.28299C0.751162 4.38527 0.74246 4.49296 0.75655 4.59888L1.40624 9.47434C1.43032 9.65453 1.51904 9.81983 1.65587 9.93951C1.79271 10.0592 1.96836 10.1251 2.15014 10.125H9.84983C10.0316 10.1251 10.2073 10.0592 10.3441 9.93951C10.4809 9.81983 10.5697 9.65453 10.5937 9.47434L11.2439 4.59934C11.2578 4.49321 11.2487 4.38534 11.2174 4.28298C11.1862 4.18062 11.1333 4.08615 11.0625 4.00591ZM3.82499 8.62497C3.81234 8.62566 3.79967 8.62566 3.78702 8.62497C3.69373 8.62544 3.60362 8.59112 3.53428 8.52871C3.46494 8.4663 3.42135 8.38029 3.41202 8.28747L3.14952 5.66247C3.13957 5.56351 3.16935 5.46465 3.23229 5.38765C3.29523 5.31064 3.38619 5.26179 3.48514 5.25184C3.5841 5.2419 3.68296 5.27167 3.75997 5.33461C3.83697 5.39755 3.88582 5.48851 3.89577 5.58747L4.15827 8.21247C4.16877 8.31136 4.13956 8.41038 4.07706 8.48774C4.01455 8.5651 3.92388 8.61446 3.82499 8.62497ZM6.37499 8.24997C6.37499 8.34942 6.33548 8.44481 6.26515 8.51513C6.19483 8.58546 6.09944 8.62497 5.99999 8.62497C5.90053 8.62497 5.80515 8.58546 5.73482 8.51513C5.6645 8.44481 5.62499 8.34942 5.62499 8.24997V5.62497C5.62499 5.52551 5.6645 5.43013 5.73482 5.3598C5.80515 5.28948 5.90053 5.24997 5.99999 5.24997C6.09944 5.24997 6.19483 5.28948 6.26515 5.3598C6.33548 5.43013 6.37499 5.52551 6.37499 5.62497V8.24997ZM4.20139 3.74997L5.99999 1.6945L7.79858 3.74997H4.20139ZM8.84811 5.66247L8.58561 8.28747C8.57633 8.37989 8.53307 8.46557 8.46422 8.52792C8.39538 8.59027 8.30584 8.62485 8.21296 8.62497C8.20031 8.62566 8.18763 8.62566 8.17499 8.62497C8.12599 8.62004 8.07844 8.60552 8.03505 8.58222C7.99167 8.55892 7.9533 8.5273 7.92213 8.48917C7.89096 8.45104 7.86762 8.40714 7.85341 8.35999C7.83921 8.31283 7.83444 8.26334 7.83936 8.21434L8.10186 5.58934C8.11181 5.49038 8.16066 5.39943 8.23767 5.33649C8.31467 5.27355 8.41353 5.24377 8.51249 5.25372C8.61145 5.26366 8.7024 5.31251 8.76534 5.38952C8.82829 5.46653 8.85806 5.56538 8.84811 5.66434V5.66247Z" fill="#FF6B6B"/>
</svg>
