<svg width="60" height="60" viewBox="0 0 60 60" fill="none" xmlns="http://www.w3.org/2000/svg">
<g opacity="0.5">
<path d="M30 3.75C24.5318 3.7562 19.2894 5.93118 15.4228 9.79777C11.5562 13.6644 9.3812 18.9068 9.375 24.375C9.375 42.0234 28.125 55.3523 28.9242 55.9102C29.2395 56.131 29.6151 56.2495 30 56.2495C30.3849 56.2495 30.7605 56.131 31.0758 55.9102C31.875 55.3523 50.625 42.0234 50.625 24.375C50.6188 18.9068 48.4438 13.6644 44.5772 9.79777C40.7106 5.93118 35.4682 3.7562 30 3.75Z" fill="#FF6B6B"/>
<path d="M23.8802 34C23.6458 34 23.4221 33.9889 23.2091 33.9667C23.0173 33.9667 22.8682 33.9557 22.7617 33.9335C22.1651 33.7561 21.6325 33.4678 21.1638 33.0687C20.6951 32.6918 20.3435 32.2262 20.1092 31.6718C19.9601 31.3614 19.8642 31.0843 19.8216 30.8404C19.779 30.5743 19.7577 30.3082 19.7577 30.0421C19.7577 29.6874 19.7896 29.3437 19.8535 29.0111C19.6618 28.878 19.4594 28.7339 19.2463 28.5787C19.0333 28.4013 18.8735 28.235 18.767 28.0798C18.2557 27.3703 18 26.6164 18 25.8182C18 25.286 18.1172 24.7761 18.3515 24.2882C18.5646 23.8004 18.8629 23.3792 19.2463 23.0244C19.3529 22.9135 19.5553 22.7029 19.8535 22.3925C20.1305 22.082 20.3862 21.7716 20.6205 21.4612L21.2597 20.7295C21.5579 20.3969 21.8668 20.0532 22.1864 19.6984C22.506 19.3437 22.8043 19.0222 23.0812 18.7339C23.4221 18.4235 23.7204 18.1574 23.976 17.9357C24.2317 17.714 24.4554 17.5366 24.6471 17.4035C25.755 16.694 26.9055 16.4723 28.0985 16.7384C29.3342 17.071 30.1545 17.7916 30.5593 18.9002L30.5273 18.867C30.6125 19.0665 30.6764 19.2661 30.719 19.4656C30.783 19.643 30.8256 19.8315 30.8469 20.031C31.1451 19.6984 31.4115 19.388 31.6458 19.0998C31.8802 18.7894 32.0932 18.5122 32.285 18.2683L32.7324 17.7361C32.775 17.6918 32.8069 17.6474 32.8282 17.6031C32.8708 17.5366 32.8921 17.5033 32.8921 17.5033C33.3822 16.9047 33.9574 16.4834 34.6178 16.2395C35.2996 15.9734 35.9814 15.929 36.6631 16.1064C37.1318 16.2395 37.5579 16.4834 37.9414 16.8381C38.3462 17.1929 38.6764 17.6031 38.9321 18.0687C39.2304 18.7783 39.3582 19.388 39.3156 19.898C39.2943 20.3858 39.2623 20.7184 39.2197 20.8958C39.1984 20.9845 39.1664 21.0843 39.1238 21.1951C39.1025 21.306 39.0812 21.4058 39.0599 21.4945L38.8682 22.1264L38.8362 22.2262C39.2623 22.2483 39.6884 22.3703 40.1145 22.592C40.5406 22.7916 40.8921 23.0687 41.1691 23.4235C41.4461 23.7783 41.6485 24.1663 41.7763 24.5876C41.9254 25.0089 42 25.4191 42 25.8182C42 26.9268 41.5632 27.8692 40.6897 28.6452L40.53 28.8115C40.0826 29.2106 39.6032 29.6098 39.0919 30.0089C38.6019 30.408 38.0799 30.7849 37.526 31.1397C36.269 31.9157 35.0333 32.3038 33.8189 32.3038C33.3076 32.3038 32.7963 32.2262 32.285 32.071C31.9015 31.9823 31.5393 31.8271 31.1984 31.6053C30.8788 31.3836 30.6019 31.1286 30.3675 30.8404C30.1119 31.0621 29.8668 31.2727 29.6325 31.4723C29.3981 31.6497 29.1318 31.8381 28.8336 32.0377H28.8655C28.3755 32.3925 27.9068 32.6918 27.4594 32.9357C27.012 33.1796 26.5859 33.3902 26.1811 33.5676C25.8402 33.7228 25.4567 33.8337 25.0306 33.9002C24.6258 33.9667 24.2423 34 23.8802 34Z" fill="white"/>
</g>
</svg>
