<svg width="60" height="60" viewBox="0 0 60 60" fill="none" xmlns="http://www.w3.org/2000/svg">
<g opacity="0.5">
<path d="M30 3.75C24.5318 3.7562 19.2894 5.93118 15.4228 9.79777C11.5562 13.6644 9.3812 18.9068 9.375 24.375C9.375 42.0234 28.125 55.3523 28.9242 55.9102C29.2395 56.131 29.6151 56.2495 30 56.2495C30.3849 56.2495 30.7605 56.131 31.0758 55.9102C31.875 55.3523 50.625 42.0234 50.625 24.375C50.6188 18.9068 48.4438 13.6644 44.5772 9.79777C40.7106 5.93118 35.4682 3.7562 30 3.75Z" fill="#20CE86"/>
<path d="M29.2604 34C28.9415 34 28.5827 33.9575 28.184 33.8724C26.9616 33.5323 26.0314 32.7528 25.3936 31.534C24.6495 31.8458 23.8788 31.9167 23.0815 31.7466C22.2576 31.5482 21.5534 31.0947 20.9687 30.3861C20.2511 29.5074 19.9322 28.487 20.012 27.3248C20.0651 26.1344 20.5036 25.1565 21.3275 24.3912C21.6198 24.1361 21.9387 23.8385 22.2842 23.4983C22.6031 23.1298 22.9486 22.7614 23.3207 22.3929C23.9585 21.7126 24.6229 21.0182 25.3138 20.3096C26.0314 19.6009 26.7224 18.9774 27.3868 18.4388C27.8386 18.0703 28.2638 17.7444 28.6624 17.4609C29.0876 17.1775 29.4863 16.9366 29.8583 16.7381C31.2403 16.0295 32.5956 15.8311 33.9244 16.1429C35.4393 16.5964 36.489 17.631 37.0737 19.2466C37.4457 20.3804 37.4325 21.5709 37.0338 22.8181C36.9807 22.9598 36.9275 23.1015 36.8744 23.2432C36.8212 23.3849 36.7548 23.5408 36.675 23.7109C37.6318 24.1928 38.3227 24.9864 38.748 26.0919C39.12 27.2256 39.0802 28.3311 38.6284 29.4082C38.1766 30.4569 37.4192 31.1797 36.3561 31.5765C35.5323 31.9167 34.7749 32.2285 34.0839 32.5119C33.3929 32.767 32.8082 32.9796 32.3299 33.1497C32.0641 33.263 31.8117 33.3622 31.5725 33.4473C31.3599 33.5323 31.1871 33.6032 31.0542 33.6599C30.7885 33.7166 30.5094 33.7874 30.2171 33.8724C29.9248 33.9575 29.6059 34 29.2604 34Z" fill="white"/>
</g>
</svg>
