<svg width="60" height="60" viewBox="0 0 60 60" fill="none" xmlns="http://www.w3.org/2000/svg">
<g opacity="0.5">
<path d="M30 3.75C24.5318 3.7562 19.2894 5.93118 15.4228 9.79777C11.5562 13.6644 9.3812 18.9068 9.375 24.375C9.375 42.0234 28.125 55.3523 28.9242 55.9102C29.2395 56.131 29.6151 56.2495 30 56.2495C30.3849 56.2495 30.7605 56.131 31.0758 55.9102C31.875 55.3523 50.625 42.0234 50.625 24.375C50.6188 18.9068 48.4438 13.6644 44.5772 9.79777C40.7106 5.93118 35.4682 3.7562 30 3.75Z" fill="#00AEFF"/>
<path d="M29.0338 34C28.6257 34 28.1949 33.9455 27.7415 33.8364C26.7212 33.5966 25.9957 33.0405 25.5649 32.1682C25.2702 31.6012 25.1342 31.0887 25.1568 30.6307C25.2022 30.151 25.2362 29.802 25.2589 29.584C25.2815 29.4749 25.3042 29.3659 25.3269 29.2568C25.3722 29.126 25.4062 28.9952 25.4289 28.8643C25.2702 28.9515 25.1228 29.0279 24.9868 29.0933C24.8507 29.1369 24.7034 29.1805 24.5447 29.2241C24.1819 29.355 23.7965 29.4204 23.3884 29.4204C22.6855 29.4204 22.0394 29.235 21.4499 28.8643C20.8604 28.4718 20.441 27.9375 20.1916 27.2614C19.8968 26.4328 19.9422 25.6041 20.3276 24.7754C20.713 23.9467 21.3479 23.3797 22.2321 23.0744C22.3228 23.0526 22.5268 22.9654 22.8442 22.8127C23.1617 22.6382 23.6378 22.322 24.2726 21.8641C24.9301 21.4061 25.7803 20.741 26.8232 19.8687C27.7301 19.1054 28.501 18.4403 29.1358 17.8733C29.7706 17.2845 30.0994 16.9792 30.1221 16.9574C30.5528 16.543 31.0516 16.2595 31.6184 16.1069C32.2079 15.9542 32.7974 15.9651 33.3869 16.1396C34.3618 16.3795 35.0646 16.9246 35.4954 17.7751C35.6315 17.9932 35.7448 18.3312 35.8355 18.7892C35.9489 19.2253 35.9149 19.7269 35.7335 20.2939C35.7335 20.3157 35.7221 20.3375 35.6995 20.3593C35.6768 20.3811 35.6655 20.4139 35.6655 20.4575C35.6428 20.5011 35.6201 20.5556 35.5974 20.621C35.5974 20.6865 35.5861 20.741 35.5634 20.7846C35.5181 20.9372 35.4501 21.1008 35.3594 21.2753C35.2914 21.4497 35.212 21.6569 35.1213 21.8968C35.0306 22.1149 34.9286 22.3765 34.8152 22.6819C34.7246 22.9653 34.6112 23.2598 34.4752 23.5651C34.5205 23.5433 34.5659 23.5214 34.6112 23.4996C34.6565 23.456 34.7019 23.4233 34.7472 23.4015C35.5408 22.8999 36.391 22.7473 37.2979 22.9435C38.2048 23.118 38.9076 23.5869 39.4064 24.3501C39.9505 25.0916 40.1206 25.9094 39.9165 26.8035C39.7351 27.6976 39.2477 28.3954 38.4542 28.897C37.91 29.2459 37.3886 29.5949 36.8898 29.9438C36.4136 30.2709 35.9262 30.6198 35.4274 30.9906C34.8606 31.4049 34.3278 31.7865 33.829 32.1355C33.3529 32.4844 32.8654 32.7897 32.3666 33.0514C32.0039 33.2476 31.6638 33.4003 31.3464 33.5093C31.029 33.6402 30.7116 33.7492 30.3941 33.8364C29.8953 33.9455 29.4419 34 29.0338 34Z" fill="white"/>
</g>
</svg>
