<svg width="249" height="236" viewBox="0 0 249 236" fill="none" xmlns="http://www.w3.org/2000/svg">
<rect width="249" height="236" fill="#8D8D8D"/>
<path d="M-7096 -4695C-7096 -4696.1 -7095.1 -4697 -7094 -4697H14081C14082.1 -4697 14083 -4696.1 14083 -4695V8334C14083 8335.1 14082.1 8336 14081 8336H-7094C-7095.1 8336 -7096 8335.1 -7096 8334V-4695Z" fill="#444444"/>
<path d="M-7094 -4696H14081V-4698H-7094V-4696ZM14082 -4695V8334H14084V-4695H14082ZM14081 8335H-7094V8337H14081V8335ZM-7095 8334V-4695H-7097V8334H-7095ZM-7094 8335C-7094.55 8335 -7095 8334.55 -7095 8334H-7097C-7097 8335.66 -7095.66 8337 -7094 8337V8335ZM14082 8334C14082 8334.55 14081.6 8335 14081 8335V8337C14082.7 8337 14084 8335.66 14084 8334H14082ZM14081 -4696C14081.6 -4696 14082 -4695.55 14082 -4695H14084C14084 -4696.66 14082.7 -4698 14081 -4698V-4696ZM-7094 -4698C-7095.66 -4698 -7097 -4696.66 -7097 -4695H-7095C-7095 -4695.55 -7094.55 -4696 -7094 -4696V-4698Z" fill="white" fill-opacity="0.1"/>
<g clip-path="url(#clip0_38_1898)">
<rect width="375" height="812" transform="translate(-63 -234)" fill="white"/>
<g clip-path="url(#clip1_38_1898)">
<path d="M30.8271 155.716C29.5984 155.716 28.4257 155.661 27.3088 155.55C26.3035 155.55 25.5217 155.495 24.9632 155.385C21.8358 154.501 19.0435 153.064 16.5863 151.075C14.1291 149.196 12.2862 146.875 11.0575 144.112C10.2757 142.565 9.77309 141.184 9.54968 139.968C9.32631 138.642 9.21463 137.315 9.21463 135.989C9.21463 134.221 9.38215 132.508 9.71725 130.85C8.71201 130.187 7.65092 129.469 6.53399 128.695C5.41707 127.811 4.57939 126.982 4.02093 126.209C1.34031 122.672 0 118.915 0 114.936C0 112.284 0.614306 109.742 1.84292 107.311C2.95984 104.879 4.52355 102.779 6.53399 101.011C7.09246 100.459 8.15354 99.4087 9.71725 97.8615C11.1692 96.3143 12.5095 94.7671 13.7381 93.2199L17.0889 89.5729C18.6526 87.9151 20.2722 86.2022 21.9475 84.4339C23.6229 82.6657 25.1866 81.0632 26.6386 79.6265C28.4257 78.0793 29.9894 76.7531 31.3297 75.648C32.67 74.5428 33.8428 73.6587 34.848 72.9956C40.6559 69.4591 46.6875 68.354 52.942 69.6802C59.4202 71.3379 63.7206 74.9296 65.8425 80.4554L65.6751 80.2896C66.1217 81.2843 66.4568 82.2789 66.6805 83.2735C67.0152 84.1576 67.2389 85.097 67.3504 86.0917C68.9142 84.434 70.3102 82.8867 71.5389 81.45C72.7676 79.9028 73.8845 78.5214 74.8899 77.3057L77.2354 74.6533C77.4587 74.4323 77.6261 74.2113 77.7379 73.9903C77.9612 73.6587 78.073 73.4929 78.073 73.4929C80.6419 70.509 83.6577 68.4092 87.1201 67.1936C90.6943 65.8674 94.2681 65.6464 97.8424 66.5305C100.3 67.1936 102.533 68.4092 104.544 70.1775C106.666 71.9457 108.397 73.9902 109.738 76.3111C111.301 79.8476 111.972 82.8867 111.748 85.4286C111.636 87.8599 111.469 89.5176 111.246 90.4018C111.134 90.8438 110.966 91.3411 110.743 91.8937C110.631 92.4463 110.52 92.9436 110.408 93.3857L109.403 96.5353L109.235 97.0327C111.469 97.1432 113.703 97.751 115.937 98.8562C118.17 99.8508 120.014 101.232 121.465 103C122.917 104.769 123.978 106.703 124.649 108.802C125.43 110.902 125.821 112.947 125.821 114.936C125.821 120.462 123.532 125.159 118.952 129.027L118.115 129.856C115.769 131.845 113.256 133.834 110.575 135.823C108.007 137.813 105.27 139.692 102.366 141.46C95.776 145.328 89.2978 147.262 82.9315 147.262C80.2508 147.262 77.5702 146.875 74.8899 146.101C72.8791 145.659 70.9805 144.886 69.1934 143.781C67.5181 142.676 66.0661 141.405 64.8374 139.968C63.4969 141.073 62.2127 142.123 60.984 143.117C59.7553 144.002 58.3592 144.941 56.7954 145.936H56.9632C54.394 147.704 51.937 149.196 49.5914 150.412C47.2459 151.627 45.0118 152.677 42.89 153.561C41.1028 154.335 39.0924 154.888 36.8585 155.219C34.7363 155.55 32.7259 155.716 30.8271 155.716Z" fill="#F7F7F7"/>
<path d="M54.1495 111.723C52.1002 111.404 50.8667 108.453 51.3946 105.13C51.9224 101.807 54.0115 99.3718 56.0609 99.6905C58.1102 100.009 59.3436 102.961 58.8158 106.284C58.288 109.607 56.1988 112.042 54.1495 111.723Z" fill="#4B4B4B"/>
<path d="M36.9151 109.593C34.8658 109.275 33.6324 106.323 34.1602 103C34.688 99.6772 36.7772 97.2419 38.8265 97.5606C40.8758 97.8793 42.1092 100.831 41.5814 104.154C41.0536 107.477 38.9644 109.912 36.9151 109.593Z" fill="#4B4B4B"/>
<path d="M29.6159 111.902L62.9998 116.164C62.9998 116.164 60.8458 133.213 41.462 130.017C32.7023 128.572 28.539 121.492 29.6159 111.902Z" fill="#979797"/>
</g>
<g clip-path="url(#clip2_38_1898)">
<path d="M190.512 90.8655C188.784 90.8655 186.864 90.6745 184.704 90.2448C178.08 88.5258 173.04 84.6104 169.584 78.4508C165.552 80.0265 161.376 80.3608 157.056 79.5013C152.592 78.4986 148.8 76.2066 145.632 72.6255C141.744 68.1849 140.016 63.028 140.448 57.1549C140.736 51.1386 143.088 46.2205 147.552 42.3528C149.136 41.0636 150.864 39.5834 152.736 37.8644C154.464 36.0022 156.336 34.14 158.352 32.2778C161.808 28.8399 165.408 25.3543 169.152 21.7731C173.04 18.192 176.784 15.0406 180.384 12.3189C182.832 10.4567 185.136 8.83324 187.296 7.40078C189.6 5.96832 191.76 4.7746 193.776 3.77188C201.216 0.142976 208.56 -0.859747 215.76 0.71596C223.968 3.0079 229.632 8.2125 232.8 16.3775C234.816 22.1074 234.72 28.1237 232.608 34.4265C232.32 35.1428 232.032 35.859 231.744 36.5752C231.456 37.2915 231.12 38.0554 230.688 38.9149C235.872 41.3501 239.616 45.361 241.92 50.9476C243.936 56.6774 243.696 62.264 241.296 67.7074C238.848 73.0075 234.768 76.6364 229.008 78.6418C224.544 80.3608 220.464 81.9365 216.72 83.3689C212.976 84.6582 209.808 85.7086 207.216 86.5681C205.776 87.1411 204.432 87.6186 203.136 88.0483C201.984 88.4781 201.072 88.8123 200.352 89.0988C198.912 89.3853 197.424 89.7195 195.84 90.1493C194.256 90.579 192.528 90.77 190.656 90.77L190.512 90.8655Z" fill="#F7F7F7"/>
<path d="M195.61 52.6828C198.203 52.0204 199.423 48.067 198.336 43.8525C197.248 39.638 194.264 36.7584 191.67 37.4208C189.077 38.0832 187.856 42.0366 188.944 46.2511C190.032 50.4656 193.016 53.3452 195.61 52.6828Z" fill="#4B4B4B"/>
<path d="M197.521 60.3541C198.817 61.2135 202.561 63.5055 207.505 63.0757C213.217 62.5505 218.257 58.6351 220.705 52.9053" stroke="#979797" stroke-width="6.45213" stroke-linecap="round" stroke-linejoin="round"/>
<path d="M211.486 41.3502C212.254 44.3583 214.846 45.7431 216.238 45.2656C217.63 44.7881 218.83 42.1142 217.582 39.3447" stroke="#4B4B4B" stroke-width="3.87128" stroke-linecap="round" stroke-linejoin="round"/>
</g>
<g clip-path="url(#clip3_38_1898)">
<path d="M178.503 234.868C175.914 234.868 173.182 234.509 170.306 233.791C163.834 232.213 159.232 228.552 156.499 222.812C154.629 219.08 153.767 215.707 153.91 212.693C154.198 209.535 154.414 207.239 154.558 205.804C154.701 205.086 154.845 204.368 154.989 203.65C155.277 202.79 155.492 201.928 155.636 201.067C154.629 201.641 153.695 202.143 152.832 202.574C151.969 202.861 151.034 203.148 150.027 203.435C147.726 204.297 145.281 204.727 142.693 204.727C138.234 204.727 134.136 203.507 130.396 201.067C126.657 198.484 123.996 194.967 122.414 190.518C120.545 185.064 120.832 179.61 123.277 174.156C125.722 168.702 129.749 164.97 135.358 162.961C135.933 162.817 137.228 162.243 139.241 161.238C141.255 160.09 144.275 158.009 148.302 154.995C152.472 151.981 157.865 147.603 164.481 141.862C170.234 136.839 175.123 132.461 179.15 128.729C183.177 124.854 185.262 122.845 185.406 122.701C188.139 119.974 191.303 118.108 194.898 117.104C198.638 116.099 202.377 116.171 206.116 117.319C212.3 118.898 216.759 122.486 219.491 128.084C220.354 129.519 221.073 131.743 221.648 134.758C222.367 137.628 222.152 140.929 221.001 144.661C221.001 144.804 220.929 144.948 220.785 145.091C220.642 145.235 220.57 145.45 220.57 145.737C220.426 146.024 220.282 146.383 220.138 146.814C220.138 147.244 220.066 147.603 219.922 147.89C219.635 148.895 219.203 149.971 218.628 151.12C218.197 152.268 217.693 153.631 217.118 155.21C216.543 156.645 215.896 158.368 215.177 160.377C214.601 162.243 213.882 164.181 213.019 166.19C213.307 166.046 213.594 165.903 213.882 165.759C214.17 165.472 214.457 165.257 214.745 165.114C219.779 161.812 225.172 160.808 230.924 162.099C236.677 163.248 241.135 166.333 244.3 171.357C247.751 176.237 248.83 181.619 247.535 187.504C246.385 193.389 243.293 197.981 238.259 201.283C234.808 203.579 231.5 205.875 228.336 208.171C225.316 210.325 222.223 212.621 219.06 215.061C215.464 217.788 212.084 220.3 208.921 222.596C205.901 224.893 202.808 226.902 199.644 228.624C197.343 229.916 195.186 230.921 193.172 231.638C191.159 232.5 189.146 233.217 187.132 233.791C183.968 234.509 181.092 234.868 178.503 234.868Z" fill="#F7F7F7"/>
<path d="M193.434 161.808C191.195 163.262 187.445 161.473 185.057 157.812C182.669 154.151 182.548 150.005 184.786 148.55C187.025 147.096 190.776 148.885 193.164 152.546C195.552 156.207 195.673 160.353 193.434 161.808Z" fill="#4B4B4B"/>
<path d="M175.09 174.568C172.852 176.023 169.101 174.234 166.713 170.573C164.325 166.912 164.204 162.765 166.443 161.311C168.681 159.857 172.432 161.645 174.82 165.306C177.208 168.967 177.329 173.114 175.09 174.568Z" fill="#4B4B4B"/>
<path d="M199.725 183.393C203.781 180.068 205.625 177.164 201.146 171.707C196.666 166.25 192.642 166.63 188.25 170.075C183.858 173.518 183.638 177.14 187.998 182.482C192.358 187.825 195.668 186.718 199.725 183.393Z" fill="#979797"/>
</g>
</g>
<defs>
<clipPath id="clip0_38_1898">
<rect width="375" height="812" fill="white" transform="translate(-63 -234)"/>
</clipPath>
<clipPath id="clip1_38_1898">
<rect width="126" height="90" fill="white" transform="translate(0 66)"/>
</clipPath>
<clipPath id="clip2_38_1898">
<rect width="103.2" height="91.2" fill="white" transform="translate(140.4)"/>
</clipPath>
<clipPath id="clip3_38_1898">
<rect width="127.2" height="118.8" fill="white" transform="translate(121.199 116.4)"/>
</clipPath>
</defs>
</svg>
