<svg width="63" height="63" viewBox="0 0 63 63" fill="none" xmlns="http://www.w3.org/2000/svg">
<rect width="63" height="63" rx="31.5" fill="#FF6B6B"/>
<path d="M22.2671 34.3619C22.271 34.4402 22.2589 34.5185 22.2316 34.592C22.2043 34.6655 22.1624 34.7327 22.1083 34.7895C22.0542 34.8463 21.9891 34.8915 21.9171 34.9223C21.845 34.9532 21.7673 34.969 21.6889 34.9689H15.3122C15.0512 34.9693 14.7978 34.8814 14.5931 34.7195C14.3885 34.5576 14.2446 34.3312 14.1849 34.0772C14.1477 33.9033 14.1494 33.7233 14.1899 33.5502C14.2304 33.377 14.3086 33.2149 14.419 33.0755C15.4391 31.7227 16.7926 30.6575 18.3474 29.984C17.6648 29.3617 17.1413 28.5848 16.8206 27.7186C16.5 26.8523 16.3917 25.9218 16.5046 25.005C16.6176 24.0882 16.9485 23.2119 17.4698 22.4493C17.9911 21.6867 18.6875 21.0602 19.5008 20.6221C20.314 20.1841 21.2204 19.9473 22.1439 19.9315C23.0675 19.9158 23.9814 20.1215 24.8091 20.5316C25.6368 20.9417 26.3542 21.5442 26.9011 22.2885C27.4481 23.0328 27.8088 23.8974 27.9529 24.8098C27.9715 24.9325 27.9495 25.0579 27.8903 25.167C27.8311 25.276 27.7379 25.3628 27.6248 25.4139C26.0211 26.1554 24.6629 27.34 23.7105 28.8282C22.7581 30.3163 22.2512 32.0458 22.2497 33.8127C22.2497 33.9977 22.2497 34.1798 22.2671 34.3619ZM48.5717 33.0741C47.554 31.7228 46.2036 30.6582 44.6521 29.984C45.3346 29.3617 45.8582 28.5848 46.1788 27.7186C46.4994 26.8523 46.6078 25.9218 46.4948 25.005C46.3819 24.0882 46.0509 23.2119 45.5296 22.4493C45.0083 21.6867 44.3119 21.0602 43.4987 20.6221C42.6854 20.1841 41.7791 19.9473 40.8555 19.9315C39.9319 19.9158 39.018 20.1215 38.1903 20.5316C37.3626 20.9417 36.6453 21.5442 36.0983 22.2885C35.5513 23.0328 35.1906 23.8974 35.0465 24.8098C35.0279 24.9325 35.0499 25.0579 35.1091 25.167C35.1683 25.276 35.2615 25.3628 35.3746 25.4139C36.9783 26.1554 38.3365 27.34 39.2889 28.8282C40.2413 30.3163 40.7482 32.0458 40.7497 33.8127C40.7497 33.9977 40.7497 34.1798 40.7324 34.3619C40.7284 34.4402 40.7405 34.5185 40.7678 34.592C40.7951 34.6655 40.837 34.7327 40.8911 34.7895C40.9452 34.8463 41.0103 34.8915 41.0824 34.9223C41.1545 34.9532 41.2321 34.969 41.3105 34.9689H47.6872C47.9482 34.9693 48.2016 34.8814 48.4063 34.7195C48.611 34.5576 48.7549 34.3312 48.8146 34.0772C48.852 33.9029 48.8502 33.7226 48.8095 33.5492C48.7687 33.3757 48.69 33.2134 48.579 33.0741H48.5717ZM35.7085 39.315C36.8597 38.4333 37.7058 37.213 38.1277 35.8256C38.5496 34.4383 38.5262 32.9536 38.0607 31.5802C37.5952 30.2069 36.7111 29.0139 35.5326 28.169C34.3541 27.324 32.9404 26.8696 31.4903 26.8696C30.0402 26.8696 28.6266 27.324 27.4481 28.169C26.2696 29.0139 25.3854 30.2069 24.9199 31.5802C24.4545 32.9536 24.431 34.4383 24.853 35.8256C25.2749 37.213 26.1209 38.4333 27.2722 39.315C25.2293 40.2001 23.5234 41.716 22.4044 43.6408C22.3029 43.8166 22.2494 44.016 22.2495 44.219C22.2495 44.422 22.3029 44.6214 22.4044 44.7971C22.5059 44.9729 22.6519 45.1189 22.8277 45.2203C23.0036 45.3218 23.203 45.3752 23.406 45.3752H39.5935C39.7964 45.3752 39.9959 45.3218 40.1717 45.2203C40.3475 45.1189 40.4935 44.9729 40.595 44.7971C40.6965 44.6214 40.75 44.422 40.75 44.219C40.75 44.016 40.6966 43.8166 40.5951 43.6408C39.4736 41.7148 37.7646 40.1987 35.7186 39.315H35.7085Z" fill="white"/>
</svg>
