<svg width="98" height="42" viewBox="0 0 98 42" fill="none" xmlns="http://www.w3.org/2000/svg">
<path id="V" d="M44.2656 91C42.2659 91 40.1551 90.7244 37.9332 90.1731C32.934 88.9604 29.3789 86.149 27.2681 81.739C25.8239 78.8726 25.1574 76.2817 25.2684 73.9664C25.4906 71.541 25.6573 69.777 25.7684 68.6745C25.8795 68.1232 25.9906 67.572 26.1017 67.0207C26.3238 66.3592 26.4905 65.6977 26.6016 65.0362C25.8239 65.4772 25.1018 65.8631 24.4352 66.1938C23.7687 66.4143 23.0466 66.6348 22.2689 66.8553C20.4914 67.5168 18.6028 67.8476 16.6031 67.8476C13.1591 67.8476 9.99295 66.9105 7.10449 65.0362C4.21604 63.0517 2.16079 60.3506 0.938749 56.9329C-0.50548 52.7434 -0.283291 48.5539 1.60532 44.3644C3.49392 40.175 6.60457 37.3085 10.9373 35.765C11.3816 35.6547 12.3815 35.2137 13.9368 34.442C15.4921 33.56 17.8251 31.9613 20.9358 29.6461C24.1575 27.3309 28.3235 23.9683 33.4339 19.5583C37.8777 15.6995 41.6549 12.3369 44.7655 9.47044C47.8762 6.4937 49.4871 4.9502 49.5981 4.83995C51.7089 2.74521 54.153 1.31197 56.9304 0.540225C59.8188 -0.231522 62.7073 -0.176402 65.5957 0.705593C70.3728 1.91834 73.8167 4.67458 75.9275 8.97431C76.5941 10.0768 77.1496 11.7857 77.594 14.1009C78.1494 16.3059 77.9828 18.8417 77.094 21.7081C77.094 21.8184 77.0385 21.9286 76.9274 22.0389C76.8163 22.1491 76.7608 22.3145 76.7608 22.535C76.6497 22.7555 76.5386 23.0311 76.4275 23.3619C76.4275 23.6926 76.3719 23.9683 76.2608 24.1888C76.0386 24.9605 75.7054 25.7874 75.261 26.6694C74.9277 27.5514 74.5389 28.5987 74.0945 29.8115C73.6501 30.914 73.1502 32.237 72.5947 33.7805C72.1503 35.2137 71.5949 36.7021 70.9283 38.2456C71.1505 38.1353 71.3727 38.0251 71.5949 37.9148C71.817 37.6943 72.0392 37.529 72.2614 37.4187C76.1497 34.883 80.3158 34.1112 84.7596 35.1035C89.2033 35.9855 92.6473 38.3558 95.0913 42.2146C97.7576 45.963 98.5908 50.0974 97.591 54.6176C96.7022 59.1379 94.3137 62.6659 90.4254 65.2016C87.7591 66.9656 85.2039 68.7296 82.7599 70.4936C80.4269 72.1473 78.0383 73.9113 75.5943 75.7856C72.8169 77.8803 70.2062 79.8097 67.7621 81.5737C65.4291 83.3377 63.0406 84.8812 60.5965 86.2042C58.819 87.1964 57.1526 87.9681 55.5972 88.5194C54.0419 89.1809 52.4866 89.7321 50.9313 90.1731C48.4872 90.7244 46.2653 91 44.2656 91Z" fill="#DEF2FF"/>
</svg>
