<svg width="125" height="42" viewBox="0 0 125 42" fill="none" xmlns="http://www.w3.org/2000/svg">
<path id="Vector" d="M30.6258 91C29.4052 91 28.2401 90.944 27.1305 90.8319C26.1318 90.8319 25.3551 90.7758 24.8003 90.6637C21.6933 89.7669 18.9192 88.3097 16.478 86.2919C14.0368 84.3863 12.206 82.0323 10.9854 79.2299C10.2086 77.6605 9.70928 76.2593 9.48736 75.0263C9.26543 73.6811 9.15447 72.3359 9.15447 70.9908C9.15447 69.1972 9.32091 67.4597 9.6538 65.7783C8.65514 65.1057 7.60099 64.3771 6.49136 63.5924C5.38172 62.6956 4.5495 61.8549 3.99468 61.0702C1.33156 57.4831 0 53.6718 0 49.6364C0 46.946 0.610307 44.3678 1.8309 41.9017C2.94053 39.4356 4.49402 37.3057 6.49136 35.5122C7.04617 34.9517 8.10032 33.8868 9.6538 32.3174C11.0963 30.7481 12.4279 29.1787 13.6485 27.6094L16.9774 23.9102C18.5309 22.2288 20.1398 20.4912 21.8043 18.6977C23.4687 16.9042 25.0222 15.2788 26.4647 13.8215C28.2401 12.2522 29.7936 10.907 31.1252 9.78603C32.4567 8.66506 33.6218 7.76829 34.6205 7.09571C40.3906 3.50862 46.3826 2.38765 52.5965 3.73281C59.0324 5.41426 63.3045 9.0574 65.4128 14.6622L65.2463 14.4941C65.6902 15.503 66.0231 16.5118 66.245 17.5207C66.5779 18.4175 66.7998 19.3703 66.9108 20.3792C68.4643 18.6977 69.8513 17.1284 71.0719 15.6711C72.2925 14.1018 73.4021 12.7005 74.4008 11.4675L76.731 8.77716C76.9529 8.55296 77.1194 8.32877 77.2304 8.10458C77.4523 7.76829 77.5633 7.60015 77.5633 7.60015C80.1154 4.57354 83.1114 2.44371 86.5513 1.21065C90.1021 -0.134513 93.6529 -0.35871 97.2037 0.538061C99.6449 1.21064 101.864 2.4437 103.862 4.23725C105.97 6.03079 107.69 8.10458 109.021 10.4586C110.575 14.0457 111.241 17.1284 111.019 19.7066C110.908 22.1727 110.741 23.8541 110.519 24.7509C110.408 25.1993 110.242 25.7037 110.02 26.2642C109.909 26.8247 109.798 27.3292 109.687 27.7775L108.688 30.9723L108.522 31.4767C110.741 31.5888 112.961 32.2053 115.18 33.3263C117.399 34.3352 119.23 35.7364 120.672 37.5299C122.115 39.3235 123.169 41.2852 123.835 43.415C124.612 45.5448 125 47.6186 125 49.6364C125 55.2412 122.725 60.0053 118.176 63.9287L117.344 64.7694C115.013 66.7871 112.517 68.8049 109.854 70.8226C107.301 72.8403 104.583 74.746 101.698 76.5395C95.1509 80.4629 88.715 82.4246 82.3901 82.4246C79.727 82.4246 77.0639 82.0323 74.4008 81.2476C72.4035 80.7992 70.5171 80.0145 68.7417 78.8936C67.0772 77.7726 65.6347 76.4835 64.4141 75.0263C63.0826 76.1472 61.8065 77.2121 60.5859 78.221C59.3653 79.1178 57.9783 80.0706 56.4248 81.0795H56.5912C54.0391 82.873 51.5979 84.3863 49.2677 85.6194C46.9374 86.8524 44.7182 87.9174 42.6099 88.8141C40.8345 89.5988 38.8371 90.1593 36.6179 90.4956C34.5096 90.8319 32.5122 91 30.6258 91Z" fill="#FFE1E1"/>
</svg>
