<svg width="102" height="42" viewBox="0 0 102 42" fill="none" xmlns="http://www.w3.org/2000/svg">
<path id="H" d="M49.7136 91C48.0015 91 46.0755 90.785 43.9354 90.3552C37.3725 88.6356 32.3791 84.6949 28.955 78.5331C24.9602 80.1094 20.8228 80.4676 16.5427 79.6078C12.1199 78.6047 8.33909 76.312 5.20034 72.7295C1.34824 68.2873 -0.36381 63.1286 0.0642017 57.2534C0.349543 51.2349 2.70361 46.2911 7.12639 42.4221C8.69577 41.1324 10.4078 39.6278 12.2625 37.9082C13.9746 36.0453 15.8293 34.1825 17.8267 32.3196C21.2508 28.8804 24.8175 25.3696 28.527 21.7872C32.3791 18.2048 36.0885 15.0522 39.6553 12.3296C42.0807 10.4667 44.3634 8.81878 46.5035 7.3858C48.7862 5.95283 50.9262 4.73479 52.9236 3.73171C60.3425 0.149269 67.6187 -0.853816 74.7522 0.722459C82.8844 3.01522 88.5199 8.24559 91.6587 16.4136C93.6561 22.1455 93.5847 28.164 91.4447 34.4691C91.1593 35.1855 90.874 35.902 90.5887 36.6185C90.3033 37.335 89.9466 38.1231 89.5186 38.9829C94.6548 41.419 98.3642 45.4313 100.647 51.0199C102.644 56.7518 102.43 62.3405 100.005 67.7858C97.5795 73.0878 93.5134 76.7419 87.8066 78.748C83.3838 80.4676 79.3177 82.0439 75.6083 83.4768C71.8988 84.7665 68.7601 85.8413 66.192 86.701C64.7653 87.2742 63.4099 87.7758 62.1259 88.2057C60.9845 88.6356 60.0572 88.9938 59.3438 89.2804C57.9171 89.567 56.4191 89.9253 54.8497 90.3552C53.2803 90.785 51.5683 91 49.7136 91Z" fill="#CEFDE3"/>
</svg>
