<svg width="19" height="19" viewBox="0 0 19 19" fill="none" xmlns="http://www.w3.org/2000/svg">
<path id="Vector" d="M18.5306 3.46899L15.5306 0.468988C15.461 0.399256 15.3783 0.343937 15.2872 0.306193C15.1962 0.26845 15.0986 0.249023 15 0.249023C14.9014 0.249023 14.8038 0.26845 14.7128 0.306193C14.6217 0.343937 14.539 0.399256 14.4694 0.468988L5.46937 9.46899C5.39975 9.53869 5.34454 9.62143 5.3069 9.71248C5.26926 9.80352 5.24992 9.90109 5.25 9.99961V12.9996C5.25 13.1985 5.32902 13.3893 5.46967 13.5299C5.61032 13.6706 5.80109 13.7496 6 13.7496H9C9.09852 13.7497 9.19609 13.7304 9.28714 13.6927C9.37818 13.6551 9.46092 13.5999 9.53063 13.5302L18.5306 4.53024C18.6004 4.46058 18.6557 4.37787 18.6934 4.28682C18.7312 4.19577 18.7506 4.09818 18.7506 3.99961C18.7506 3.90105 18.7312 3.80346 18.6934 3.71241C18.6557 3.62136 18.6004 3.53864 18.5306 3.46899ZM8.68969 12.2496H6.75V10.3099L12.75 4.30993L14.6897 6.24961L8.68969 12.2496ZM15.75 5.1893L13.8103 3.24961L15 2.05993L16.9397 3.99961L15.75 5.1893ZM18 9.99961V17.4996C18 17.8974 17.842 18.279 17.5607 18.5603C17.2794 18.8416 16.8978 18.9996 16.5 18.9996H1.5C1.10218 18.9996 0.720644 18.8416 0.43934 18.5603C0.158035 18.279 0 17.8974 0 17.4996V2.49961C0 2.10179 0.158035 1.72026 0.43934 1.43895C0.720644 1.15765 1.10218 0.999613 1.5 0.999613H9C9.19891 0.999613 9.38968 1.07863 9.53033 1.21928C9.67098 1.35994 9.75 1.5507 9.75 1.74961C9.75 1.94853 9.67098 2.13929 9.53033 2.27994C9.38968 2.4206 9.19891 2.49961 9 2.49961H1.5V17.4996H16.5V9.99961C16.5 9.8007 16.579 9.60994 16.7197 9.46928C16.8603 9.32863 17.0511 9.24961 17.25 9.24961C17.4489 9.24961 17.6397 9.32863 17.7803 9.46928C17.921 9.60994 18 9.8007 18 9.99961Z" fill="#2A2E37"/>
</svg>
