<svg width="249" height="292" viewBox="0 0 249 292" fill="none" xmlns="http://www.w3.org/2000/svg">
<g clip-path="url(#clip0_1477_87129)">
<path d="M30.8271 155.716C29.5984 155.716 28.4257 155.661 27.3088 155.55C26.3035 155.55 25.5217 155.495 24.9632 155.385C21.8358 154.501 19.0435 153.064 16.5863 151.075C14.1291 149.196 12.2862 146.875 11.0575 144.112C10.2757 142.565 9.77309 141.184 9.54968 139.968C9.32631 138.642 9.21463 137.315 9.21463 135.989C9.21463 134.221 9.38215 132.508 9.71725 130.85C8.71201 130.187 7.65092 129.469 6.53399 128.695C5.41707 127.811 4.57939 126.982 4.02093 126.209C1.34031 122.672 0 118.915 0 114.936C0 112.284 0.614306 109.742 1.84292 107.311C2.95984 104.879 4.52355 102.779 6.53399 101.011C7.09246 100.459 8.15354 99.4087 9.71725 97.8615C11.1692 96.3143 12.5095 94.7671 13.7381 93.2199L17.0889 89.5729C18.6526 87.9151 20.2722 86.2022 21.9475 84.4339C23.6229 82.6657 25.1866 81.0632 26.6386 79.6265C28.4257 78.0793 29.9894 76.7531 31.3297 75.648C32.67 74.5428 33.8428 73.6587 34.848 72.9956C40.6559 69.4591 46.6875 68.354 52.942 69.6802C59.4202 71.3379 63.7206 74.9296 65.8425 80.4554L65.6751 80.2896C66.1217 81.2843 66.4568 82.2789 66.6805 83.2735C67.0152 84.1576 67.2389 85.097 67.3504 86.0917C68.9142 84.434 70.3102 82.8867 71.5389 81.45C72.7676 79.9028 73.8845 78.5214 74.8899 77.3057L77.2354 74.6533C77.4587 74.4323 77.6261 74.2113 77.7379 73.9903C77.9612 73.6587 78.073 73.4929 78.073 73.4929C80.6419 70.509 83.6577 68.4092 87.1201 67.1936C90.6943 65.8674 94.2681 65.6464 97.8424 66.5305C100.3 67.1936 102.533 68.4092 104.544 70.1775C106.666 71.9457 108.397 73.9902 109.738 76.3111C111.301 79.8476 111.972 82.8867 111.748 85.4286C111.636 87.8599 111.469 89.5176 111.246 90.4018C111.134 90.8438 110.966 91.3411 110.743 91.8937C110.631 92.4463 110.52 92.9436 110.408 93.3857L109.403 96.5353L109.235 97.0327C111.469 97.1432 113.703 97.751 115.937 98.8562C118.17 99.8508 120.014 101.232 121.465 103C122.917 104.769 123.978 106.703 124.649 108.802C125.43 110.902 125.821 112.947 125.821 114.936C125.821 120.462 123.532 125.159 118.952 129.027L118.115 129.856C115.769 131.845 113.256 133.834 110.575 135.823C108.007 137.813 105.27 139.692 102.366 141.46C95.776 145.328 89.2978 147.262 82.9315 147.262C80.2508 147.262 77.5702 146.875 74.8899 146.101C72.8791 145.659 70.9805 144.886 69.1934 143.781C67.5181 142.676 66.0661 141.405 64.8374 139.968C63.4969 141.073 62.2127 142.123 60.984 143.117C59.7553 144.002 58.3592 144.941 56.7954 145.936H56.9632C54.394 147.704 51.937 149.196 49.5914 150.412C47.2459 151.627 45.0118 152.677 42.89 153.561C41.1028 154.335 39.0924 154.888 36.8585 155.219C34.7363 155.55 32.7259 155.716 30.8271 155.716Z" fill="#F7F7F7"/>
<path d="M54.1495 111.723C52.1002 111.404 50.8667 108.453 51.3946 105.13C51.9224 101.807 54.0115 99.3718 56.0609 99.6905C58.1102 100.009 59.3436 102.961 58.8158 106.284C58.288 109.607 56.1988 112.042 54.1495 111.723Z" fill="#4B4B4B"/>
<path d="M36.9151 109.593C34.8658 109.275 33.6324 106.323 34.1602 103C34.688 99.6772 36.7772 97.2419 38.8265 97.5606C40.8758 97.8793 42.1092 100.831 41.5814 104.154C41.0536 107.477 38.9644 109.912 36.9151 109.593Z" fill="#4B4B4B"/>
<path d="M29.6159 111.902L62.9998 116.164C62.9998 116.164 60.8458 133.213 41.462 130.017C32.7023 128.572 28.539 121.492 29.6159 111.902Z" fill="#979797"/>
</g>
<g clip-path="url(#clip1_1477_87129)">
<path d="M190.512 90.8655C188.784 90.8655 186.864 90.6745 184.704 90.2448C178.08 88.5258 173.04 84.6104 169.584 78.4508C165.552 80.0265 161.376 80.3608 157.056 79.5013C152.592 78.4986 148.8 76.2066 145.632 72.6255C141.744 68.1849 140.016 63.028 140.448 57.1549C140.736 51.1386 143.088 46.2205 147.552 42.3528C149.136 41.0636 150.864 39.5834 152.736 37.8644C154.464 36.0022 156.336 34.14 158.352 32.2778C161.808 28.8399 165.408 25.3543 169.152 21.7731C173.04 18.192 176.784 15.0406 180.384 12.3189C182.832 10.4567 185.136 8.83324 187.296 7.40078C189.6 5.96832 191.76 4.7746 193.776 3.77188C201.216 0.142976 208.56 -0.859747 215.76 0.71596C223.968 3.0079 229.632 8.2125 232.8 16.3775C234.816 22.1074 234.72 28.1237 232.608 34.4265C232.32 35.1428 232.032 35.859 231.744 36.5752C231.456 37.2915 231.12 38.0554 230.688 38.9149C235.872 41.3501 239.616 45.361 241.92 50.9476C243.936 56.6774 243.696 62.264 241.296 67.7074C238.848 73.0075 234.768 76.6364 229.008 78.6418C224.544 80.3608 220.464 81.9365 216.72 83.3689C212.976 84.6582 209.808 85.7086 207.216 86.5681C205.776 87.1411 204.432 87.6186 203.136 88.0483C201.984 88.4781 201.072 88.8123 200.352 89.0988C198.912 89.3853 197.424 89.7195 195.84 90.1493C194.256 90.579 192.528 90.77 190.656 90.77L190.512 90.8655Z" fill="#F7F7F7"/>
<path d="M195.61 52.6828C198.203 52.0204 199.423 48.067 198.336 43.8525C197.248 39.638 194.264 36.7584 191.67 37.4208C189.077 38.0832 187.856 42.0366 188.944 46.2511C190.032 50.4656 193.016 53.3452 195.61 52.6828Z" fill="#4B4B4B"/>
<path d="M197.521 60.3541C198.817 61.2135 202.561 63.5055 207.505 63.0757C213.217 62.5505 218.257 58.6351 220.705 52.9053" stroke="#979797" stroke-width="6.45213" stroke-linecap="round" stroke-linejoin="round"/>
<path d="M211.486 41.3502C212.254 44.3583 214.846 45.7431 216.238 45.2656C217.63 44.7881 218.83 42.1142 217.582 39.3447" stroke="#4B4B4B" stroke-width="3.87128" stroke-linecap="round" stroke-linejoin="round"/>
</g>
<g clip-path="url(#clip2_1477_87129)">
<path d="M178.503 234.868C175.914 234.868 173.182 234.509 170.306 233.791C163.834 232.213 159.232 228.552 156.499 222.812C154.629 219.08 153.767 215.707 153.91 212.693C154.198 209.535 154.414 207.239 154.558 205.804C154.701 205.086 154.845 204.368 154.989 203.65C155.277 202.79 155.492 201.928 155.636 201.067C154.629 201.641 153.695 202.143 152.832 202.574C151.969 202.861 151.034 203.148 150.027 203.435C147.726 204.297 145.281 204.727 142.693 204.727C138.234 204.727 134.136 203.507 130.396 201.067C126.657 198.484 123.996 194.967 122.414 190.518C120.545 185.064 120.832 179.61 123.277 174.156C125.722 168.702 129.749 164.97 135.358 162.961C135.933 162.817 137.228 162.243 139.241 161.238C141.255 160.09 144.275 158.009 148.302 154.995C152.472 151.981 157.865 147.603 164.481 141.862C170.234 136.839 175.123 132.461 179.15 128.729C183.177 124.854 185.262 122.845 185.406 122.701C188.139 119.974 191.303 118.108 194.898 117.104C198.638 116.099 202.377 116.171 206.116 117.319C212.3 118.898 216.759 122.486 219.491 128.084C220.354 129.519 221.073 131.743 221.648 134.758C222.367 137.628 222.152 140.929 221.001 144.661C221.001 144.804 220.929 144.948 220.785 145.091C220.642 145.235 220.57 145.45 220.57 145.737C220.426 146.024 220.282 146.383 220.138 146.814C220.138 147.244 220.066 147.603 219.922 147.89C219.635 148.895 219.203 149.971 218.628 151.12C218.197 152.268 217.693 153.631 217.118 155.21C216.543 156.645 215.896 158.368 215.177 160.377C214.601 162.243 213.882 164.181 213.019 166.19C213.307 166.046 213.594 165.903 213.882 165.759C214.17 165.472 214.457 165.257 214.745 165.114C219.779 161.812 225.172 160.808 230.924 162.099C236.677 163.248 241.135 166.333 244.3 171.357C247.751 176.237 248.83 181.619 247.535 187.504C246.385 193.389 243.293 197.981 238.259 201.283C234.808 203.579 231.5 205.875 228.336 208.171C225.316 210.325 222.223 212.621 219.06 215.061C215.464 217.788 212.084 220.3 208.921 222.596C205.901 224.893 202.808 226.902 199.644 228.624C197.343 229.916 195.186 230.921 193.172 231.638C191.159 232.5 189.146 233.217 187.132 233.791C183.968 234.509 181.092 234.868 178.503 234.868Z" fill="#F7F7F7"/>
<path d="M193.434 161.808C191.195 163.262 187.445 161.473 185.057 157.812C182.669 154.151 182.548 150.005 184.786 148.55C187.025 147.096 190.776 148.885 193.164 152.546C195.552 156.207 195.673 160.353 193.434 161.808Z" fill="#4B4B4B"/>
<path d="M175.09 174.568C172.852 176.023 169.101 174.234 166.713 170.573C164.325 166.912 164.204 162.765 166.443 161.311C168.681 159.857 172.432 161.645 174.82 165.306C177.208 168.967 177.329 173.114 175.09 174.568Z" fill="#4B4B4B"/>
<path d="M199.725 183.393C203.781 180.068 205.625 177.164 201.146 171.707C196.666 166.25 192.642 166.63 188.25 170.075C183.858 173.518 183.638 177.14 187.998 182.482C192.358 187.825 195.668 186.718 199.725 183.393Z" fill="#979797"/>
</g>
<path d="M68.2205 256.028C70.0525 256.028 71.3514 257.696 71.365 260.321C71.3514 262.96 70.0525 264.628 68.2205 264.628C66.3885 264.628 65.076 262.96 65.0896 260.321C65.076 257.696 66.3885 256.028 68.2205 256.028ZM68.2205 257.19C67.0994 257.19 66.3338 258.394 66.3338 260.321C66.3338 262.263 67.0994 263.466 68.2205 263.466C69.3553 263.466 70.1209 262.263 70.1209 260.321C70.1209 258.394 69.3553 257.19 68.2205 257.19ZM74.4822 255.112V259.911H76.451V261.005H74.4822V267.362H73.1834V255.112H74.4822ZM81.5779 257.313C81.5779 258.886 82.7537 260.39 84.6404 260.991L83.9705 262.003C82.5623 261.538 81.4959 260.567 80.949 259.337C80.3953 260.67 79.3084 261.723 77.8455 262.235L77.1756 261.237C79.076 260.581 80.2518 258.981 80.2654 257.313V256.972H77.5174V255.919H84.2713V256.972H81.5779V257.313ZM87.1971 255.112V262.509H85.8982V255.112H87.1971ZM87.1971 263.124V267.362H85.8982V264.177H78.8982V263.124H87.1971ZM96.2205 258.858C96.2205 260.759 97.1092 262.741 98.8182 263.63L98.0799 264.601C96.8973 263.972 96.0701 262.803 95.6326 261.415C95.1883 262.892 94.368 264.17 93.1853 264.86L92.4197 263.903C94.1014 262.919 94.99 260.827 95.0037 258.858V258.407H92.7342V257.327H95.0037V255.55H96.2205V257.327H98.449V258.407H96.2205V258.858ZM103.138 255.112V267.362H101.894V261.073H100.431V266.761H99.201V255.345H100.431V259.979H101.894V255.112H103.138ZM111.246 256.001V257.04H106.666V258.394H110.904V259.419H106.666V260.813C109.12 260.827 110.549 260.786 112.203 260.499L112.34 261.552C110.562 261.839 109.045 261.88 106.365 261.88H105.353V256.001H111.246ZM114.814 255.126V262.659H113.515V255.126H114.814ZM110.713 262.823C113.283 262.823 114.883 263.657 114.883 265.079C114.883 266.515 113.283 267.349 110.713 267.335C108.115 267.349 106.543 266.515 106.543 265.079C106.543 263.657 108.115 262.823 110.713 262.823ZM110.713 263.849C108.881 263.849 107.842 264.3 107.842 265.079C107.842 265.886 108.881 266.337 110.713 266.337C112.504 266.337 113.584 265.886 113.584 265.079C113.584 264.3 112.504 263.849 110.713 263.849ZM122.429 262.741C124.959 262.741 126.49 263.589 126.49 265.038C126.49 266.501 124.959 267.349 122.429 267.362C119.873 267.349 118.314 266.501 118.314 265.038C118.314 263.589 119.873 262.741 122.429 262.741ZM122.429 263.767C120.652 263.767 119.599 264.218 119.613 265.038C119.599 265.858 120.652 266.323 122.429 266.323C124.193 266.323 125.219 265.858 125.219 265.038C125.219 264.218 124.193 263.767 122.429 263.767ZM126.381 255.112V258.106H128.158V259.214H126.381V262.427H125.082V255.112H126.381ZM118.506 255.878V257.642H121.719V255.878H123.004V261.565H117.234V255.878H118.506ZM118.506 260.526H121.719V258.667H118.506V260.526ZM139 255.112V267.39H137.701V255.112H139ZM132.451 256.028C134.269 256.028 135.609 257.696 135.609 260.321C135.609 262.96 134.269 264.628 132.451 264.628C130.605 264.628 129.279 262.96 129.279 260.321C129.279 257.696 130.605 256.028 132.451 256.028ZM132.451 257.19C131.316 257.19 130.537 258.394 130.537 260.321C130.537 262.263 131.316 263.466 132.451 263.466C133.572 263.466 134.351 262.263 134.351 260.321C134.351 258.394 133.572 257.19 132.451 257.19ZM146.984 262.29V263.712H148.898V262.29H150.101V267.212H145.767V262.29H146.984ZM146.984 266.2H148.898V264.696H146.984V266.2ZM153.656 263.206C153.656 264.491 154.367 265.79 155.885 266.323L155.215 267.308C154.107 266.884 153.389 266.084 153.013 265.106C152.603 266.063 151.879 266.87 150.826 267.308L150.17 266.323C151.646 265.722 152.371 264.423 152.371 263.206V262.208H153.656V263.206ZM147.763 255.632C149.377 255.632 150.621 256.548 150.894 257.915H153.287V255.112H154.586V261.606H153.287V258.981H150.908C150.641 260.39 149.39 261.306 147.763 261.306C145.89 261.306 144.551 260.157 144.551 258.462C144.551 256.794 145.89 255.632 147.763 255.632ZM147.763 256.712C146.601 256.712 145.795 257.423 145.795 258.462C145.795 259.515 146.601 260.239 147.763 260.253C148.898 260.239 149.705 259.515 149.705 258.462C149.705 257.423 148.898 256.712 147.763 256.712ZM159.795 256.028C161.456 256.028 162.673 257.437 162.871 259.706H165.4V255.112H166.685V267.39H165.4V260.759H162.885C162.741 263.145 161.497 264.628 159.795 264.628C157.963 264.628 156.678 262.96 156.691 260.321C156.678 257.696 157.963 256.028 159.795 256.028ZM159.795 257.19C158.687 257.19 157.922 258.394 157.922 260.321C157.922 262.263 158.687 263.466 159.795 263.466C160.902 263.466 161.668 262.263 161.668 260.321C161.668 258.394 160.902 257.19 159.795 257.19ZM179.783 264.751V265.831H168.572V264.751H171.252V261.552C170.247 260.998 169.638 260.116 169.638 259.022C169.638 257.095 171.525 255.823 174.15 255.823C176.789 255.823 178.676 257.095 178.676 259.022C178.676 260.103 178.088 260.971 177.103 261.524V264.751H179.783ZM174.15 256.862C172.222 256.862 170.896 257.696 170.896 259.022C170.896 260.335 172.222 261.196 174.15 261.196C176.064 261.196 177.418 260.335 177.418 259.022C177.418 257.696 176.064 256.862 174.15 256.862ZM172.537 264.751H175.791V262.017C175.292 262.146 174.738 262.208 174.15 262.208C173.576 262.208 173.029 262.146 172.537 262.03V264.751ZM182.066 266.296C181.533 266.296 181.082 265.858 181.096 265.325C181.082 264.792 181.533 264.354 182.066 264.354C182.586 264.354 183.037 264.792 183.037 265.325C183.037 265.858 182.586 266.296 182.066 266.296ZM23.199 275.112V287.39H21.9002V275.112H23.199ZM16.6502 276.028C18.4686 276.028 19.8084 277.696 19.8084 280.321C19.8084 282.96 18.4686 284.628 16.6502 284.628C14.8045 284.628 13.4783 282.96 13.4783 280.321C13.4783 277.696 14.8045 276.028 16.6502 276.028ZM16.6502 277.19C15.5154 277.19 14.7361 278.394 14.7361 280.321C14.7361 282.263 15.5154 283.466 16.6502 283.466C17.7713 283.466 18.5506 282.263 18.5506 280.321C18.5506 278.394 17.7713 277.19 16.6502 277.19ZM36.3514 280.636V281.716H31.3611V283.001H30.076V281.716H25.1541V280.636H36.3514ZM31.3748 283.876C31.3748 285.106 33.0975 286.091 35.4764 286.323L35.0799 287.308C33.077 287.096 31.4432 286.371 30.7049 285.257C29.9666 286.357 28.3465 287.103 26.3572 287.308L25.9334 286.323C28.285 286.091 30.035 285.079 30.035 283.876V283.534H31.3748V283.876ZM30.7322 275.29C33.4393 275.29 35.1072 276.097 35.1072 277.56C35.1072 278.995 33.4393 279.815 30.7322 279.815C28.0389 279.815 26.3572 278.995 26.3572 277.56C26.3572 276.097 28.0389 275.29 30.7322 275.29ZM30.7322 276.274C28.8318 276.261 27.6834 276.739 27.6971 277.56C27.6834 278.353 28.8318 278.817 30.7322 278.817C32.6326 278.817 33.7674 278.353 33.7674 277.56C33.7674 276.739 32.6326 276.261 30.7322 276.274ZM44.076 276.425V277.177C44.076 278.202 44.076 279.788 43.7205 281.976L42.4353 281.88C42.743 279.918 42.7771 278.503 42.7908 277.478H37.8143V276.425H44.076ZM40.9314 279.925V283.589C42.2371 283.548 43.5633 283.459 44.7869 283.302L44.8553 284.272C42.2986 284.683 39.4549 284.737 37.2811 284.724L37.1307 283.671C37.8963 283.664 38.7508 283.657 39.6463 283.63V279.925H40.9314ZM46.7967 275.112V280.171H48.6697V281.278H46.7967V287.362H45.4842V275.112H46.7967ZM62.3963 275.112V278.284H64.1736V279.392H62.3963V282.495H61.0975V275.112H62.3963ZM62.3963 283.138V287.212H54.576V283.138H62.3963ZM55.8475 284.163V286.159H61.1111V284.163H55.8475ZM60.0857 276.356V277.396H52.785V276.356H55.7928V275.017H57.0916V276.356H60.0857ZM56.4353 277.929C58.199 277.929 59.4021 278.804 59.4021 280.116C59.4021 281.442 58.199 282.304 56.4353 282.317C54.6443 282.304 53.4549 281.442 53.4549 280.116C53.4549 278.804 54.6443 277.929 56.4353 277.929ZM56.4353 278.927C55.3963 278.913 54.699 279.378 54.7127 280.116C54.699 280.882 55.3963 281.333 56.4353 281.333C57.4744 281.333 58.1717 280.882 58.1853 280.116C58.1717 279.378 57.4744 278.913 56.4353 278.927ZM67.9061 276.562C67.8924 279.31 67.5506 282.14 65.8416 284.546L64.8299 283.972C66.2586 282.058 66.6893 279.938 66.785 277.628H65.117V276.562H67.9061ZM70.6268 276.562C70.6268 277.594 70.6062 278.722 70.4764 279.856H71.9119V275.427H73.1424V286.761H71.9119V280.909H70.326C70.0457 282.434 69.533 283.944 68.5896 285.284L67.5779 284.696C69.1639 282.57 69.451 279.993 69.5057 277.628H68.2752V276.562H70.6268ZM75.4666 275.112V287.362H74.2225V275.112H75.4666ZM90.1502 275.085V279.843H91.8318V280.937H90.1502V287.362H88.8514V275.085H90.1502ZM83.8611 276.37V277.437H82.0154V283.124C82.6033 283.104 83.2527 283.042 83.9705 282.892L84.0799 283.972C82.9725 284.19 82.0975 284.218 81.2771 284.218H80.7166V276.37H83.8611ZM87.8123 276.37V277.437H85.8162V283.124C86.7117 283.117 87.3885 283.056 88.1404 282.864L88.2498 283.944C87.2654 284.19 86.4588 284.218 85.1463 284.218H84.5447V276.37H87.8123ZM103.658 280.923V281.989H92.4881V280.923H103.658ZM102.687 278.858V279.897H98.4353V275.714H102.592V276.753H99.7342V278.858H102.687ZM97.7654 275.714V276.753H94.8396V278.845C95.865 278.838 96.8221 278.763 97.9021 278.53L98.0252 279.583C96.6853 279.87 95.5506 279.897 94.2518 279.897H93.5408V275.714H97.7654ZM98.7361 283.206C98.7361 284.737 100.445 285.968 102.851 286.282L102.359 287.308C100.431 287.014 98.8318 286.166 98.0936 284.901C97.3348 286.166 95.742 287.014 93.8143 287.308L93.3357 286.282C95.7146 285.968 97.4236 284.737 97.4236 283.206V282.864H98.7361V283.206ZM114.213 275.126V279.063H115.99V280.144H114.213V284.286H112.914V275.126H114.213ZM111.902 276.548V277.601H104.601V276.548H107.609V275.112H108.908V276.548H111.902ZM108.252 278.188C110.015 278.188 111.219 279.104 111.219 280.499C111.219 281.894 110.015 282.796 108.252 282.796C106.474 282.796 105.271 281.894 105.271 280.499C105.271 279.104 106.474 278.188 108.252 278.188ZM108.252 279.187C107.213 279.187 106.515 279.692 106.529 280.499C106.515 281.292 107.213 281.784 108.252 281.784C109.291 281.784 109.988 281.292 110.002 280.499C109.988 279.692 109.291 279.187 108.252 279.187ZM114.732 286.05V287.103H106.447V283.562H107.746V286.05H114.732ZM130.619 275.112V287.362H129.375V281.032H127.789V286.733H126.599V275.358H127.789V279.966H129.375V275.112H130.619ZM125.109 276.589V277.642H121.814V283.315C123.318 283.302 124.453 283.233 125.765 282.987L125.861 284.054C124.385 284.354 123.127 284.409 121.336 284.423H120.515V276.589H125.109ZM141.803 275.112V280.239H143.648V281.333H141.803V287.362H140.504V275.112H141.803ZM132.054 284.026C133.018 284.026 134.139 284.026 135.308 283.985V282.741C133.928 282.55 133.025 281.716 133.039 280.526C133.025 279.146 134.215 278.229 135.965 278.229C137.701 278.229 138.904 279.146 138.918 280.526C138.904 281.716 137.988 282.557 136.607 282.755V283.931C137.694 283.89 138.788 283.801 139.806 283.657L139.888 284.614C137.236 285.093 134.365 285.106 132.26 285.106L132.054 284.026ZM139.629 276.562V277.601H132.287V276.562H135.308V275.14H136.607V276.562H139.629ZM135.965 279.241C134.939 279.241 134.256 279.747 134.256 280.526C134.256 281.306 134.939 281.784 135.965 281.784C136.99 281.784 137.674 281.306 137.674 280.526C137.674 279.747 136.99 279.241 135.965 279.241ZM155.502 280.731V281.729H144.291V280.731H155.502ZM154.121 282.591V285.284H146.929V286.296H154.504V287.212H145.631V284.423H152.836V283.521H145.617V282.591H154.121ZM154.094 275.427V278.079H147.012V279.009H154.299V279.925H145.726V277.218H152.795V276.343H145.699V275.427H154.094ZM164.32 278.229C164.306 280.472 165.66 282.714 167.56 283.562L166.781 284.587C165.373 283.917 164.259 282.543 163.691 280.868C163.117 282.659 161.989 284.143 160.519 284.86L159.726 283.767C161.654 282.905 163.008 280.567 163.008 278.229V276.138H164.32V278.229ZM169.967 275.112V287.39H168.668V275.112H169.967ZM176.201 277.313C176.201 278.872 177.281 280.362 179.154 280.991L178.498 282.003C177.11 281.524 176.092 280.567 175.558 279.364C175.025 280.69 173.966 281.729 172.523 282.235L171.826 281.224C173.74 280.567 174.888 278.995 174.902 277.3V276.972H172.209V275.919H178.84V276.972H176.201V277.313ZM181.547 275.112V278.257H183.324V279.351H181.547V282.495H180.248V275.112H181.547ZM181.547 283.097V287.362H180.248V284.149H173.453V283.097H181.547ZM190.078 277.136V278.188H183.994V277.136H186.4V275.468H187.685V277.136H190.078ZM187.043 278.927C188.601 278.927 189.695 280.089 189.709 281.743C189.695 283.411 188.601 284.587 187.043 284.587C185.512 284.587 184.377 283.411 184.39 281.743C184.377 280.089 185.512 278.927 187.043 278.927ZM187.043 280.007C186.154 280.007 185.539 280.731 185.539 281.743C185.539 282.782 186.154 283.479 187.043 283.479C187.918 283.479 188.56 282.782 188.56 281.743C188.56 280.731 187.918 280.007 187.043 280.007ZM194.508 275.112V287.362H193.277V281.278H191.869V286.788H190.638V275.386H191.869V280.212H193.277V275.112H194.508ZM207.332 284.765V285.845H196.121V284.765H201.056V282.249H197.406V275.946H198.705V278.052H204.721V275.946H206.006V282.249H202.342V284.765H207.332ZM198.705 281.196H204.721V279.104H198.705V281.196ZM211.953 278.462C211.953 280.417 212.773 282.509 214.414 283.507L213.689 284.505C212.541 283.814 211.762 282.591 211.351 281.169C210.893 282.728 210.053 284.054 208.863 284.778L208.056 283.808C209.793 282.769 210.695 280.608 210.695 278.517V276.233H211.953V278.462ZM218.762 275.112V287.362H217.517V275.112H218.762ZM216.219 275.345V286.761H214.988V280.499H213.088V279.419H214.988V275.345H216.219ZM231.531 284.751V285.831H220.32V284.751H223V281.552C221.995 280.998 221.387 280.116 221.387 279.022C221.387 277.095 223.273 275.823 225.898 275.823C228.537 275.823 230.424 277.095 230.424 279.022C230.424 280.103 229.836 280.971 228.851 281.524V284.751H231.531ZM225.898 276.862C223.971 276.862 222.644 277.696 222.644 279.022C222.644 280.335 223.971 281.196 225.898 281.196C227.812 281.196 229.166 280.335 229.166 279.022C229.166 277.696 227.812 276.862 225.898 276.862ZM224.285 284.751H227.539V282.017C227.04 282.146 226.486 282.208 225.898 282.208C225.324 282.208 224.777 282.146 224.285 282.03V284.751ZM234.676 276.302L234.553 283.343H233.199L233.076 276.302H234.676ZM233.883 286.296C233.349 286.296 232.898 285.858 232.912 285.325C232.898 284.792 233.349 284.354 233.883 284.354C234.402 284.354 234.853 284.792 234.853 285.325C234.853 285.858 234.402 286.296 233.883 286.296Z" fill="#A6ACBA"/>
<defs>
<clipPath id="clip0_1477_87129">
<rect width="126" height="90" fill="white" transform="translate(0 66)"/>
</clipPath>
<clipPath id="clip1_1477_87129">
<rect width="103.2" height="91.2" fill="white" transform="translate(140.4)"/>
</clipPath>
<clipPath id="clip2_1477_87129">
<rect width="127.2" height="118.8" fill="white" transform="translate(121.199 116.4)"/>
</clipPath>
</defs>
</svg>
