<svg width="272" height="363" viewBox="0 0 272 363" fill="none" xmlns="http://www.w3.org/2000/svg">
<path d="M198.854 363C192.006 363 184.302 362.143 175.742 360.428C149.49 353.568 129.516 337.849 115.82 313.269C99.8408 319.557 83.2911 320.986 66.1706 317.556C48.4795 313.555 33.3564 304.409 20.8014 290.119C5.39295 272.399 -1.45524 251.821 0.256807 228.384C1.39817 204.377 10.8144 184.656 28.5056 169.222C34.7831 164.078 41.6313 158.076 49.0501 151.216C55.8983 143.785 63.3172 136.354 71.3067 128.923C85.0031 115.204 99.2702 101.2 114.108 86.9094C129.516 72.619 144.354 60.0435 158.621 49.1828C168.323 41.7518 177.454 35.1782 186.014 29.462C195.145 23.7459 203.705 18.8871 211.695 14.8858C241.37 0.595434 270.475 -3.40588 299.009 2.8819C331.538 12.0278 354.08 32.8917 366.635 65.4739C374.624 88.3385 374.339 112.346 365.779 137.497C364.637 140.355 363.496 143.214 362.355 146.072C361.213 148.93 359.787 152.074 358.074 155.503C378.619 165.221 393.457 181.226 402.588 203.519C410.577 226.384 409.721 248.677 400.02 270.398C390.318 291.548 374.054 306.124 351.226 314.127C333.535 320.986 317.271 327.274 302.433 332.99C287.595 338.135 275.04 342.422 264.768 345.851C259.061 348.138 253.64 350.139 248.504 351.853C243.938 353.568 240.229 354.997 237.375 356.141C231.668 357.284 225.676 358.713 219.399 360.428C213.121 362.143 206.273 363 198.854 363Z" fill="#CEFDE3"/>
</svg>
