<svg width="259" height="359" viewBox="0 0 259 359" fill="none" xmlns="http://www.w3.org/2000/svg">
<path d="M175.256 363C167.338 363 158.981 361.901 150.185 359.702C130.392 354.864 116.317 343.649 107.96 326.058C102.242 314.623 99.6026 304.288 100.042 295.053C100.922 285.378 101.582 278.341 102.022 273.943C102.462 271.744 102.901 269.545 103.341 267.346C104.221 264.708 104.881 262.069 105.321 259.43C102.242 261.189 99.3826 262.729 96.7436 264.048C94.1045 264.928 91.2455 265.807 88.1666 266.687C81.1291 269.325 73.6518 270.645 65.7346 270.645C52.0995 270.645 39.5639 266.907 28.128 259.43C16.6921 251.514 8.55496 240.739 3.71668 227.106C-2.00129 210.394 -1.1216 193.682 6.35574 176.97C13.8331 160.258 26.1487 148.824 43.3026 142.667C45.062 142.227 49.0206 140.468 55.1784 137.389C61.3362 133.871 70.5729 127.494 82.8885 118.259C95.644 109.023 112.138 95.6096 132.371 78.0182C149.965 62.6256 164.919 49.2121 177.235 37.7777C189.551 25.9034 195.928 19.7464 196.368 19.3066C204.725 10.9507 214.402 5.23347 225.398 2.15497C236.834 -0.923542 248.27 -0.70367 259.706 2.81462C278.619 7.65228 292.254 18.6469 300.611 35.7986C303.25 40.1965 305.449 47.0132 307.209 56.2487C309.408 65.0445 308.748 75.1596 305.229 86.594C305.229 87.0338 305.009 87.4736 304.57 87.9134C304.13 88.3532 303.91 89.0129 303.91 89.8924C303.47 90.772 303.03 91.8715 302.59 93.1908C302.59 94.5102 302.37 95.6096 301.931 96.4892C301.051 99.5677 299.731 102.866 297.972 106.384C296.652 109.903 295.113 114.081 293.354 118.918C291.594 123.316 289.615 128.594 287.416 134.751C285.656 140.468 283.457 146.405 280.818 152.562C281.698 152.122 282.577 151.682 283.457 151.243C284.337 150.363 285.217 149.703 286.096 149.264C301.491 139.149 317.985 136.07 335.579 140.028C353.172 143.546 366.807 153.002 376.484 168.394C387.04 183.347 390.339 199.839 386.381 217.87C382.862 235.902 373.405 249.975 358.011 260.09C347.454 267.126 337.338 274.163 327.661 281.2C318.425 287.796 308.968 294.833 299.292 302.309C288.295 310.665 277.959 318.362 268.283 325.398C259.046 332.435 249.589 338.592 239.913 343.869C232.875 347.827 226.278 350.906 220.12 353.105C213.962 355.743 207.804 357.942 201.646 359.702C191.97 361.901 183.173 363 175.256 363Z" fill="#DEF2FF"/>
</svg>
