<svg width="309" height="320" viewBox="0 0 309 320" fill="none" xmlns="http://www.w3.org/2000/svg">
<path d="M122.258 363C117.386 363 112.735 362.776 108.305 362.329C104.318 362.329 101.218 362.106 99.0027 361.659C86.5997 358.081 75.5256 352.268 65.7803 344.22C56.0351 336.618 48.7262 327.228 43.8536 316.049C40.7528 309.789 38.7595 304.199 37.8735 299.281C36.9876 293.915 36.5446 288.549 36.5446 283.183C36.5446 276.028 37.2091 269.098 38.538 262.39C34.5513 259.707 30.3431 256.801 25.9135 253.671C21.4838 250.094 18.1616 246.74 15.9468 243.61C5.3156 229.301 0 214.098 0 198C0 187.268 2.43635 176.984 7.30896 167.146C11.7386 157.309 17.9401 148.813 25.9135 141.659C28.1283 139.423 32.3365 135.175 38.538 128.915C44.2965 122.654 49.6121 116.394 54.4847 110.134L67.7737 95.378C73.9752 88.6707 80.3981 81.7398 87.0426 74.5853C93.6871 67.4309 99.8886 60.9472 105.647 55.1342C112.735 48.874 118.936 43.5081 124.252 39.0366C129.567 34.565 134.218 30.9878 138.205 28.3049C161.239 13.9959 185.159 9.52438 209.965 14.8902C235.657 21.5976 252.712 36.1301 261.128 58.4878L260.463 57.8171C262.235 61.8414 263.564 65.8659 264.45 69.8902C265.779 73.4675 266.665 77.2683 267.108 81.2927C273.309 74.5854 278.846 68.3252 283.719 62.5122C288.592 56.252 293.021 50.6626 297.008 45.7439L306.31 35.0122C307.196 34.1179 307.861 33.2236 308.304 32.3293C309.19 30.9878 309.633 30.3171 309.633 30.3171C319.821 18.2439 331.781 9.74798 345.513 4.82928C359.688 -0.536574 373.862 -1.4309 388.037 2.14633C397.783 4.82926 406.642 9.74795 414.615 16.9024C423.031 24.0569 429.898 32.3293 435.213 41.7195C441.415 56.0284 444.072 68.3252 443.186 78.6097C442.744 88.4472 442.079 95.1545 441.193 98.7317C440.75 100.52 440.086 102.533 439.2 104.768C438.757 107.004 438.314 109.016 437.871 110.805L433.884 123.549L433.22 125.561C442.079 126.008 450.938 128.467 459.798 132.939C468.657 136.963 475.966 142.553 481.724 149.707C487.483 156.862 491.691 164.687 494.349 173.183C497.45 181.679 499 189.951 499 198C499 220.358 489.919 239.362 471.758 255.012L468.435 258.366C459.133 266.415 449.166 274.463 438.535 282.512C428.347 290.561 417.495 298.163 405.977 305.317C379.843 320.967 354.15 328.793 328.901 328.793C318.27 328.793 307.639 327.228 297.008 324.098C289.035 322.309 281.504 319.179 274.417 314.707C267.772 310.236 262.014 305.094 257.141 299.281C251.826 303.752 246.731 308 241.859 312.024C236.986 315.602 231.449 319.402 225.248 323.427H225.912C215.724 330.581 205.979 336.618 196.676 341.537C187.374 346.455 178.515 350.703 170.099 354.281C163.011 357.411 155.038 359.646 146.178 360.988C137.762 362.329 129.789 363 122.258 363Z" fill="#FFE1E1"/>
</svg>
